<svg xmlns="http://www.w3.org/2000/svg" viewBox="0 0 1000 1000"><defs><style>.cls-1{fill:#fff;}</style></defs><title>VessiLogo</title><g id="Logos"><path class="cls-1" d="M743.48,275.25H590.69a30,30,0,0,0-24.91,13.32l-36.11,54.11a29.93,29.93,0,0,0,0,33.21l1.34,2a29.94,29.94,0,0,0,49.83,0l27.83-41.72a11.21,11.21,0,0,1,9.3-5h48.11a11.18,11.18,0,0,1,9.31,17.37L584,485.86a11.17,11.17,0,0,1-18.6,0L434,288.59a29.94,29.94,0,0,0-24.92-13.34H256.55c-23.92,0-38.18,26.66-24.91,46.56L475.09,686.68a29.93,29.93,0,0,0,49,1.13l31.54-46.9a31,31,0,0,0,4.74-16.44c0-17.52-14.54-31.73-32.48-31.73a33.12,33.12,0,0,0-10.12,1.58,31.5,31.5,0,0,0-8.85,4.42,47.43,47.43,0,0,1-4.16,3.24,9,9,0,0,1-3.56,1.14,11.12,11.12,0,0,1-7.37-2A11.77,11.77,0,0,1,490.7,598L324.63,348.62a11.18,11.18,0,0,1,9.31-17.37H381.3a11.19,11.19,0,0,1,9.3,5L537.25,556l12.51,18.75a29.94,29.94,0,0,0,49.82,0L612.09,556s150-224.77,150-224.77l6.3-9.45C781.66,301.9,767.39,275.25,743.48,275.25Z"/></g></svg>