<svg xmlns="http://www.w3.org/2000/svg" width="809" height="15" fill="none"><path stroke="#CCE1E4" stroke-linecap="round" stroke-width="2" d="M1.078 7.344c11.206-8.004 22.413-8.004 33.619 0 11.206 8.003 22.412 8.003 33.619 0 11.206-8.004 22.412-8.004 33.619 0 11.206 8.003 22.412 8.003 33.618 0 11.207-8.004 22.413-8.004 33.619 0 11.206 8.003 22.413 8.003 33.619 0 11.206-8.004 22.412-8.004 33.619 0 11.206 8.003 22.412 8.003 33.619 0 11.206-8.004 22.412-8.004 33.618 0 11.207 8.003 22.413 8.003 33.619 0 11.206-8.004 22.413-8.004 33.619 0 11.206 8.003 22.412 8.003 33.619 0 11.206-8.004 22.412-8.004 33.618 0 11.207 8.003 22.413 8.003 33.619 0 11.207-8.004 22.413-8.004 33.619 0 11.206 8.003 22.413 8.003 33.619 0 11.206-8.004 22.412-8.004 33.619 0 11.206 8.003 22.412 8.003 33.618 0 11.207-8.004 22.413-8.004 33.619 0 11.207 8.003 22.413 8.003 33.619 0 11.206-8.004 22.413-8.004 33.619 0 11.206 8.003 22.412 8.003 33.619 0 11.206-8.004 22.412-8.004 33.618 0 11.207 8.003 22.413 8.003 33.619 0"/></svg>