<svg width="23" height="19" viewBox="0 0 23 19" fill="none" xmlns="http://www.w3.org/2000/svg">
<path d="M20.4023 11.0008L22.4558 3.69443C22.5566 3.33691 22.4833 2.94271 22.2541 2.64019C22.0249 2.33767 21.6765 2.16349 21.3007 2.16349H6.27542L5.9729 0.916733C5.84455 0.375861 5.35869 0 4.80865 0H1.70092C1.04087 0.00916733 0.5 0.55004 0.5 1.21009C0.5 1.87014 1.04087 2.41101 1.70092 2.41101H3.86441L6.86213 14.5852C6.8988 14.7502 6.9813 14.8969 7.07298 15.0253C6.39459 15.3369 5.92706 16.0245 5.92706 16.8221C5.92706 17.913 6.81629 18.8022 7.9072 18.8022C8.99812 18.8022 9.88735 17.913 9.88735 16.8221C9.88735 16.3087 9.69483 15.8503 9.37398 15.4928H17.1204C16.7995 15.8411 16.607 16.3087 16.607 16.8221C16.607 17.913 17.4962 18.8022 18.5871 18.8022C19.6781 18.8022 20.5673 17.913 20.5673 16.8221C20.5673 16.1345 20.2189 15.5386 19.6964 15.1811C19.9347 14.9611 20.0906 14.6494 20.0906 14.2919C20.0906 13.6318 19.5497 13.0909 18.8897 13.0909H8.97061L8.66809 11.8809H19.2472C19.7881 11.8809 20.2556 11.5233 20.4023 11.0008Z" fill="#005864"/>
</svg>
