<svg width="24" height="24" viewBox="0 0 24 24" fill="none" xmlns="http://www.w3.org/2000/svg">
<path d="M7.79951 2H16.1995C19.3995 2 21.9995 4.6 21.9995 7.8V16.2C21.9995 17.7383 21.3884 19.2135 20.3007 20.3012C19.213 21.3889 17.7378 22 16.1995 22H7.79951C4.59951 22 1.99951 19.4 1.99951 16.2V7.8C1.99951 6.26175 2.61058 4.78649 3.69829 3.69878C4.786 2.61107 6.26126 2 7.79951 2ZM7.59951 4C6.64473 4 5.72906 4.37929 5.05393 5.05442C4.3788 5.72955 3.99951 6.64522 3.99951 7.6V16.4C3.99951 18.39 5.60951 20 7.59951 20H16.3995C17.3543 20 18.27 19.6207 18.9451 18.9456C19.6202 18.2705 19.9995 17.3548 19.9995 16.4V7.6C19.9995 5.61 18.3895 4 16.3995 4H7.59951ZM17.2495 5.5C17.581 5.5 17.899 5.6317 18.1334 5.86612C18.3678 6.10054 18.4995 6.41848 18.4995 6.75C18.4995 7.08152 18.3678 7.39946 18.1334 7.63388C17.899 7.8683 17.581 8 17.2495 8C16.918 8 16.6 7.8683 16.3656 7.63388C16.1312 7.39946 15.9995 7.08152 15.9995 6.75C15.9995 6.41848 16.1312 6.10054 16.3656 5.86612C16.6 5.6317 16.918 5.5 17.2495 5.5ZM11.9995 7C13.3256 7 14.5974 7.52678 15.535 8.46447C16.4727 9.40215 16.9995 10.6739 16.9995 12C16.9995 13.3261 16.4727 14.5979 15.535 15.5355C14.5974 16.4732 13.3256 17 11.9995 17C10.6734 17 9.40166 16.4732 8.46398 15.5355C7.5263 14.5979 6.99951 13.3261 6.99951 12C6.99951 10.6739 7.5263 9.40215 8.46398 8.46447C9.40166 7.52678 10.6734 7 11.9995 7ZM11.9995 9C11.2039 9 10.4408 9.31607 9.87819 9.87868C9.31558 10.4413 8.99951 11.2044 8.99951 12C8.99951 12.7957 9.31558 13.5587 9.87819 14.1213C10.4408 14.6839 11.2039 15 11.9995 15C12.7952 15 13.5582 14.6839 14.1208 14.1213C14.6834 13.5587 14.9995 12.7957 14.9995 12C14.9995 11.2044 14.6834 10.4413 14.1208 9.87868C13.5582 9.31607 12.7952 9 11.9995 9Z" fill="#9ED0E0"/>
</svg>
