<svg width="113" height="24" viewBox="0 0 113 24" fill="none" xmlns="http://www.w3.org/2000/svg">
<path fill-rule="evenodd" clip-rule="evenodd" d="M32.2173 3.43732C30.2891 3.39498 28.3753 3.50762 26.4942 3.74729C25.6332 3.85697 24.8539 3.18355 24.7535 2.24315C24.6531 1.30276 25.2696 0.451491 26.1305 0.341802C28.1422 0.0855046 30.1989 -0.0362688 32.2804 0.00944238C33.147 0.0284737 33.8354 0.811258 33.818 1.75784C33.8006 2.70442 33.0839 3.45635 32.2173 3.43732ZM112.306 0.333348C113.026 0.861567 113.217 1.92673 112.733 2.71246C112.226 3.53683 111.522 4.52338 110.653 5.60621C110.082 6.31832 109.09 6.38981 108.438 5.76588C107.786 5.14196 107.721 4.05889 108.292 3.34678C109.1 2.34017 109.715 1.47083 110.128 0.799604C110.612 0.0138783 111.587 -0.194872 112.306 0.333348ZM39.5519 2.60062C39.7714 1.68473 40.6292 1.13667 41.4677 1.37651C43.4293 1.93757 45.3846 2.6845 47.3166 3.64293C48.1057 4.03444 48.455 5.05064 48.0965 5.91267C47.7381 6.7747 46.8078 7.15614 46.0186 6.76463C44.2542 5.88937 42.4676 5.20667 40.6726 4.69325C39.8341 4.45341 39.3323 3.51651 39.5519 2.60062ZM19.0913 3.54414C19.3396 4.45123 18.8677 5.40645 18.0373 5.67769C16.134 6.29932 14.3102 7.01976 12.5913 7.79965C11.7908 8.16283 10.8723 7.74846 10.5398 6.87412C10.2073 5.99977 10.5867 4.99656 11.3872 4.63337C13.1994 3.81113 15.125 3.05031 17.138 2.39283C17.9685 2.12159 18.843 2.63705 19.0913 3.54414ZM53.0168 9.23141C53.5576 8.4915 54.5451 8.37052 55.2225 8.96121C56.0147 9.65198 56.7972 10.3882 57.5687 11.1717C58.3407 11.9556 59.1134 12.6819 59.8859 13.3538C60.564 13.9435 60.6761 15.022 60.1362 15.7627C59.5963 16.5034 58.6089 16.6258 57.9308 16.036C57.0937 15.308 56.2603 14.5244 55.4315 13.6827C54.717 12.9571 53.9941 12.2772 53.2642 11.6407C52.5868 11.05 52.476 9.97132 53.0168 9.23141ZM5.37729 9.73668C5.83251 10.5424 5.60358 11.5986 4.86596 12.0958C3.99679 12.6818 3.19974 13.2614 2.48251 13.8216C1.77747 14.3724 0.79718 14.1945 0.292974 13.4244C-0.211232 12.6543 -0.0484224 11.5836 0.65662 11.0328C1.43496 10.4248 2.29142 9.80241 3.21747 9.17816C3.95509 8.68093 4.92207 8.93099 5.37729 9.73668ZM103.771 10.5254C104.307 11.2688 104.191 12.3467 103.51 12.9329C101.885 14.3328 100.093 15.7237 98.1633 17.0229C97.4253 17.5196 96.4585 17.2689 96.0038 16.4628C95.549 15.6568 95.7786 14.6008 96.5165 14.1041C98.3342 12.8805 100.027 11.5667 101.567 10.2406C102.247 9.65437 103.234 9.78188 103.771 10.5254ZM65.6193 19.3506C65.9463 18.4737 66.8621 18.0525 67.6649 18.4097C69.5993 19.2705 71.5221 19.8495 73.4211 20.1899C74.2764 20.3432 74.856 21.2249 74.7157 22.1591C74.5753 23.0934 73.7681 23.7265 72.9128 23.5732C70.7845 23.1917 68.6348 22.5435 66.4806 21.5849C65.6779 21.2277 65.2923 20.2274 65.6193 19.3506ZM90.2625 19.5249C90.5526 20.4171 90.1257 21.3973 89.3089 21.7142C87.2544 22.5114 85.1108 23.14 82.8995 23.5346C82.0441 23.6873 81.2373 23.0536 81.0975 22.1192C80.9578 21.1848 81.5379 20.3036 82.3934 20.1509C84.4002 19.7928 86.3614 19.2194 88.2582 18.4834C89.075 18.1665 89.9724 18.6328 90.2625 19.5249Z" fill="#CE2073"/>
</svg>
