<svg width="87" height="21" viewBox="0 0 87 21" fill="none" xmlns="http://www.w3.org/2000/svg">
<path d="M4.29166 2.2459L8.10536 10.7211C8.14511 10.8111 8.21014 10.8875 8.29254 10.9412C8.37494 10.9948 8.47116 11.0234 8.5695 11.0234C8.66783 11.0234 8.76405 10.9948 8.84645 10.9412C8.92885 10.8875 8.99388 10.8111 9.03364 10.7211L12.8473 2.2459C12.9328 2.05565 13.0715 1.89414 13.2466 1.78079C13.4217 1.66744 13.6258 1.60707 13.8344 1.60693H16.053C16.2364 1.60695 16.4168 1.65355 16.5773 1.74236C16.7378 1.83118 16.8731 1.9593 16.9705 2.11471C17.0679 2.27012 17.1243 2.44773 17.1343 2.63088C17.1443 2.81402 17.1076 2.99671 17.0277 3.1618L9.54264 18.6471C9.45396 18.8302 9.3155 18.9846 9.14311 19.0927C8.97073 19.2007 8.7714 19.258 8.56795 19.258C8.3645 19.258 8.16517 19.2007 7.99278 19.0927C7.8204 18.9846 7.68193 18.8302 7.59325 18.6471L0.108206 3.1618C0.0282871 2.99671 -0.00838994 2.81402 0.00161143 2.63088C0.0116128 2.44773 0.0679668 2.27012 0.165388 2.11471C0.262809 1.9593 0.398105 1.83118 0.558588 1.74236C0.719072 1.65355 0.899482 1.60695 1.0829 1.60693H3.30459C3.51318 1.60707 3.71729 1.66744 3.89239 1.78079C4.0675 1.89414 4.20614 2.05565 4.29166 2.2459Z" fill="white"/>
<path d="M55.1027 5.75598C54.8913 5.8918 54.6395 5.95058 54.3898 5.92239C54.1401 5.89421 53.9078 5.7808 53.732 5.60127C53.4734 5.33902 53.165 5.13112 52.8249 4.98977C52.4848 4.84842 52.1199 4.77649 51.7516 4.77819C51.5203 4.76809 51.2892 4.8039 51.0717 4.88356C50.8542 4.96323 50.6547 5.08516 50.4845 5.24233C50.2421 5.4907 50.1056 5.82354 50.1039 6.17061C50.1039 6.63475 50.3159 6.93025 50.6949 7.18398C50.9487 7.35262 51.2024 7.43772 52.0874 7.90341L54.2023 8.95546C55.1306 9.4196 56.0202 9.88374 56.6963 10.6032C57.6679 11.5763 58.0052 12.6748 58.0052 13.9001C58.0188 15.4013 57.46 16.8513 56.4426 17.9551C55.0501 19.4775 53.3158 19.9417 51.4561 19.9417C50.3159 19.9417 48.8786 19.773 47.6115 18.8014C46.846 18.2048 46.2194 17.4488 45.7751 16.5859C45.7066 16.4567 45.6651 16.3149 45.653 16.1691C45.6409 16.0234 45.6584 15.8767 45.7045 15.7379C45.7507 15.5991 45.8244 15.4711 45.9214 15.3616C46.0183 15.252 46.1364 15.1633 46.2686 15.1007L47.7167 14.4138C47.9673 14.2953 48.2537 14.2774 48.517 14.3637C48.7804 14.4501 49.0006 14.6341 49.1323 14.8779C49.2741 15.1553 49.4596 15.4081 49.6816 15.6267C49.9353 15.8804 50.5263 16.3028 51.4979 16.3028C52.1322 16.3028 52.8083 16.0924 53.1889 15.7118C53.552 15.3371 53.7626 14.8408 53.7799 14.3194C53.7832 13.8331 53.5999 13.3641 53.2678 13.009C53.2431 12.9811 53.2183 12.9533 53.192 12.9285C52.6939 12.4442 52.109 12.1549 51.4561 11.8687L49.9353 11.1493C49.1323 10.7702 48.1607 10.3046 47.4846 9.62846C46.5564 8.74195 46.2175 7.7719 46.2175 6.62856C46.2113 5.2197 46.7393 3.86083 47.695 2.82571C48.498 1.98097 49.8502 1.13623 52.0471 1.13623C53.3158 1.13623 54.3292 1.38996 55.3441 2.06451C55.8516 2.39215 56.3056 2.79606 56.6901 3.262C56.7884 3.37912 56.8607 3.51572 56.9024 3.66281C56.9441 3.80991 56.9541 3.96416 56.9319 4.11542C56.9097 4.26668 56.8557 4.41153 56.7735 4.54043C56.6913 4.66932 56.5827 4.77935 56.4549 4.86328L55.1027 5.75598Z" fill="white"/>
<path d="M87 2.81218V18.9349C87 19.2221 86.886 19.4976 86.6829 19.7007C86.4797 19.9038 86.2043 20.0179 85.9171 20.0179H83.9878C83.7006 20.0179 83.4251 19.9038 83.222 19.7007C83.0189 19.4976 82.9048 19.2221 82.9048 18.9349V4.98746C82.9047 4.82451 82.9414 4.66365 83.0121 4.51686C83.0828 4.37006 83.1858 4.24111 83.3132 4.13962L85.7438 2.2057C85.8577 2.11471 85.9951 2.05778 86.14 2.04147C86.2849 2.02517 86.4315 2.05015 86.5628 2.11355C86.6941 2.17695 86.8048 2.27617 86.8822 2.39979C86.9596 2.5234 87.0004 2.66636 87 2.81218Z" fill="white"/>
<path d="M73.2042 5.60168C72.9928 5.73751 72.741 5.79628 72.4913 5.7681C72.2416 5.73991 72.0092 5.6265 71.8334 5.44697C71.5748 5.18473 71.2664 4.97682 70.9264 4.83547C70.5863 4.69413 70.2214 4.62219 69.8531 4.62389C69.6217 4.61379 69.3906 4.64961 69.1731 4.72927C68.9556 4.80893 68.7561 4.93086 68.586 5.08803C68.3435 5.3364 68.2071 5.66924 68.2054 6.01632C68.2054 6.48046 68.4173 6.77596 68.7964 7.02969C69.0501 7.19833 69.3038 7.28342 70.1888 7.74911L72.3037 8.80116C73.232 9.2653 74.1216 9.72944 74.7977 10.4489C75.7693 11.422 76.1066 12.5205 76.1066 13.7458C76.1202 15.247 75.5615 16.697 74.544 17.8008C73.1516 19.3232 71.4172 19.7874 69.5576 19.7874C68.4173 19.7874 66.9801 19.6187 65.7129 18.6471C64.9475 18.0505 64.3208 17.2945 63.8765 16.4316C63.8081 16.3024 63.7666 16.1606 63.7545 16.0148C63.7423 15.8691 63.7599 15.7224 63.806 15.5836C63.8521 15.4448 63.9259 15.3168 64.0228 15.2073C64.1197 15.0977 64.2379 15.009 64.37 14.9464L65.8182 14.2595C66.0687 14.141 66.3551 14.1231 66.6185 14.2095C66.8818 14.2958 67.102 14.4798 67.2338 14.7236C67.3755 15.001 67.561 15.2538 67.783 15.4724C68.0367 15.7261 68.6278 16.1485 69.5994 16.1485C70.2337 16.1485 70.9098 15.9381 71.2904 15.5575C71.6534 15.1828 71.8641 14.6865 71.8814 14.1651C71.8847 13.6788 71.7014 13.2098 71.3693 12.8547C71.3445 12.8268 71.3198 12.799 71.2935 12.7742C70.7953 12.29 70.2105 12.0006 69.5576 11.7144L68.0367 10.995C67.2338 10.6159 66.2622 10.1503 65.5861 9.47416C64.6578 8.58766 64.319 7.6176 64.319 6.47427C64.3128 5.0654 64.8407 3.70653 65.7965 2.67141C66.5995 1.82667 67.9517 0.981934 70.1486 0.981934C71.4172 0.981934 72.4306 1.23566 73.4455 1.91022C73.9531 2.23785 74.4071 2.64176 74.7915 3.1077C74.8898 3.22483 74.9621 3.36142 75.0038 3.50852C75.0455 3.65561 75.0556 3.80986 75.0334 3.96112C75.0111 4.11239 74.9572 4.25723 74.8749 4.38613C74.7927 4.51503 74.6842 4.62506 74.5564 4.70898L73.2042 5.60168Z" fill="white"/>
<path d="M38.6025 15.0751C38.6647 15.1096 38.7193 15.1565 38.7628 15.2128C38.8063 15.269 38.838 15.3336 38.8558 15.4025C38.8736 15.4714 38.8772 15.5432 38.8664 15.6135C38.8555 15.6838 38.8305 15.7512 38.7928 15.8115C38.0971 16.9236 37.1706 17.8733 36.076 18.5964C34.6388 19.5247 32.7373 19.9486 30.8359 19.9486C28.4703 19.9486 26.5271 19.3576 24.8361 17.6666C23.1451 15.9755 22.2168 13.5264 22.2168 10.8592C22.2168 8.113 23.1884 5.45192 25.0481 3.55049C26.5271 2.07143 28.4703 1.1416 31.0061 1.1416C33.8358 1.1416 35.6475 2.36693 36.7104 3.46231C38.2676 4.98759 39.1576 7.06742 39.1858 9.24705C39.1858 9.24705 39.3405 11.413 37.4839 11.413L27.0207 11.4888C26.9467 11.4889 26.8736 11.5051 26.8065 11.5364C26.7394 11.5676 26.6799 11.6131 26.6322 11.6696C26.5845 11.7262 26.5497 11.7924 26.5302 11.8638C26.5107 11.9352 26.507 12.01 26.5194 12.0829C26.7097 13.1845 27.2187 14.3294 27.969 15.0798C28.9406 16.0514 30.1242 16.2215 31.1376 16.2215C32.2794 16.2215 33.1241 15.9678 33.9688 15.3335C34.5184 14.9041 34.9917 14.3852 35.369 13.7987C35.4421 13.6898 35.5537 13.6125 35.6813 13.5823C35.809 13.5522 35.9434 13.5715 36.0575 13.6363L38.6025 15.0751ZM34.2999 8.113C34.3839 8.11305 34.4666 8.09309 34.5412 8.05476C34.6159 8.01643 34.6803 7.96084 34.7292 7.89261C34.7781 7.82438 34.8099 7.74548 34.8222 7.66245C34.8345 7.57943 34.8267 7.49468 34.7997 7.41524C34.5839 6.76494 34.212 6.17743 33.7167 5.70411C33.1674 5.1982 32.2809 4.69073 30.9318 4.69073C29.4945 4.69073 28.5662 5.28174 28.017 5.83097C27.5618 6.272 27.2072 6.80606 26.9773 7.39668C26.946 7.47638 26.9347 7.56254 26.9443 7.64763C26.954 7.73273 26.9843 7.81416 27.0327 7.88482C27.0811 7.95548 27.146 8.01323 27.2219 8.053C27.2977 8.09278 27.3821 8.11337 27.4678 8.113H34.2999Z" fill="white"/>
</svg>
