<svg width="30" height="425" viewBox="0 0 30 425" fill="none" xmlns="http://www.w3.org/2000/svg">
<rect width="30" height="425" fill="#E6E6E6"/>
<path d="M11.35 89.4251L16.9056 86.9703C16.9646 86.9447 17.0147 86.9028 17.0499 86.8498C17.0851 86.7967 17.1038 86.7348 17.1038 86.6715C17.1038 86.6082 17.0851 86.5463 17.0499 86.4932C17.0147 86.4402 16.9646 86.3983 16.9056 86.3727L11.35 83.918C11.2253 83.8629 11.1194 83.7737 11.0451 83.661C10.9708 83.5482 10.9312 83.4169 10.9311 83.2826V81.8545C10.9311 81.7365 10.9617 81.6203 11.0199 81.517C11.0781 81.4138 11.1621 81.3267 11.264 81.264C11.3659 81.2012 11.4823 81.165 11.6023 81.1585C11.7224 81.1521 11.8422 81.1757 11.9504 81.2272L22.1012 86.0451C22.2213 86.1022 22.3225 86.1913 22.3933 86.3023C22.4641 86.4132 22.5017 86.5415 22.5017 86.6725C22.5017 86.8035 22.4641 86.9318 22.3933 87.0427C22.3225 87.1537 22.2213 87.2428 22.1012 87.2999L11.9504 92.1179C11.8422 92.1693 11.7224 92.1929 11.6023 92.1865C11.4823 92.18 11.3659 92.1438 11.264 92.081C11.1621 92.0183 11.0781 91.9312 11.0199 91.8279C10.9617 91.7246 10.9311 91.6085 10.9311 91.4905V90.0604C10.9312 89.9261 10.9708 89.7948 11.0451 89.6821C11.1194 89.5693 11.2253 89.4801 11.35 89.4251Z" fill="#005864"/>
<path d="M13.6514 56.7192C13.7404 56.8553 13.779 57.0174 13.7605 57.1781C13.742 57.3388 13.6677 57.4884 13.55 57.6016C13.3781 57.768 13.2418 57.9665 13.1491 58.1854C13.0565 58.4043 13.0093 58.6392 13.0105 58.8762C13.0038 59.0252 13.0273 59.1739 13.0795 59.3139C13.1318 59.4539 13.2117 59.5824 13.3147 59.6919C13.4775 59.8479 13.6957 59.9358 13.9232 59.9368C14.2275 59.9368 14.4212 59.8004 14.5875 59.5564C14.698 59.3931 14.7538 59.2298 15.0591 58.6601L15.7487 57.2988C16.053 56.7013 16.3572 56.1287 16.8288 55.6935C17.4667 55.0681 18.1868 54.851 18.99 54.851C19.9741 54.8422 20.9246 55.2019 21.6482 55.8568C22.6461 56.7531 22.9504 57.8694 22.9504 59.0665C22.9504 59.8004 22.8398 60.7256 22.2029 61.5412C21.8118 62.0339 21.3162 62.4372 20.7506 62.7232C20.6659 62.7673 20.5729 62.794 20.4774 62.8018C20.3819 62.8096 20.2857 62.7983 20.1947 62.7686C20.1037 62.7389 20.0198 62.6915 19.948 62.6291C19.8762 62.5667 19.8181 62.4906 19.777 62.4056L19.3267 61.4734C19.2491 61.3122 19.2373 61.1278 19.2939 60.9583C19.3505 60.7888 19.4712 60.6471 19.631 60.5622C19.8128 60.471 19.9786 60.3516 20.1218 60.2087C20.2882 60.0454 20.565 59.665 20.565 59.0396C20.565 58.6313 20.4271 58.1961 20.1776 57.9511C19.932 57.7174 19.6067 57.5818 19.2649 57.5707C18.9461 57.5686 18.6387 57.6865 18.4059 57.9003C18.3876 57.9162 18.3693 57.9322 18.3531 57.9491C18.0357 58.2698 17.846 58.6462 17.6584 59.0665L17.1868 60.0454C16.9383 60.5622 16.6331 61.1876 16.1899 61.6228C15.6088 62.2203 14.9729 62.4384 14.2234 62.4384C13.2999 62.4424 12.4091 62.1026 11.7306 61.4874C11.1768 60.9705 10.6231 60.1002 10.6231 58.686C10.6231 57.8694 10.7894 57.2172 11.2316 56.5639C11.4464 56.2372 11.7111 55.945 12.0166 55.6975C12.0933 55.6342 12.1829 55.5877 12.2793 55.5608C12.3757 55.534 12.4768 55.5275 12.576 55.5418C12.6752 55.5561 12.7701 55.5909 12.8546 55.6438C12.9391 55.6967 13.0112 55.7666 13.0662 55.8488L13.6514 56.7192Z" fill="#005864"/>
<path d="M11.7213 36.1877H22.29C22.4783 36.1877 22.6588 36.2611 22.792 36.3919C22.9251 36.5226 22.9999 36.6999 22.9999 36.8848V38.1266C22.9999 38.3115 22.9251 38.4888 22.792 38.6196C22.6588 38.7503 22.4783 38.8237 22.29 38.8237H13.1472C13.0404 38.8238 12.935 38.8002 12.8387 38.7547C12.7425 38.7091 12.658 38.6429 12.5915 38.5608L11.3237 36.9963C11.2641 36.923 11.2268 36.8346 11.2161 36.7413C11.2054 36.648 11.2218 36.5537 11.2633 36.4692C11.3049 36.3846 11.3699 36.3133 11.451 36.2635C11.532 36.2138 11.6257 36.1875 11.7213 36.1877Z" fill="#005864"/>
<path d="M13.5499 45.0674C13.639 45.2035 13.6775 45.3655 13.659 45.5262C13.6406 45.687 13.5662 45.8365 13.4485 45.9497C13.2766 46.1161 13.1403 46.3147 13.0477 46.5336C12.955 46.7525 12.9079 46.9873 12.909 47.2244C12.9024 47.3733 12.9258 47.5221 12.9781 47.6621C13.0303 47.8021 13.1102 47.9305 13.2132 48.04C13.376 48.1961 13.5942 48.2839 13.8217 48.285C14.126 48.285 14.3197 48.1486 14.486 47.9046C14.5966 47.7412 14.6523 47.5779 14.9576 47.0083L15.6473 45.647C15.9515 45.0494 16.2558 44.4768 16.7273 44.0416C17.3653 43.4162 18.0853 43.1991 18.8886 43.1991C19.8726 43.1904 20.8231 43.55 21.5467 44.205C22.5446 45.1012 22.8489 46.2176 22.8489 47.4146C22.8489 48.1486 22.7383 49.0737 22.1014 49.8893C21.7103 50.382 21.2148 50.7854 20.6492 51.0714C20.5644 51.1154 20.4715 51.1421 20.3759 51.1499C20.2804 51.1577 20.1842 51.1465 20.0932 51.1168C20.0023 51.0871 19.9183 51.0396 19.8466 50.9772C19.7748 50.9148 19.7166 50.8388 19.6755 50.7537L19.2253 49.8216C19.1476 49.6603 19.1359 49.476 19.1925 49.3065C19.2491 49.137 19.3697 48.9952 19.5295 48.9104C19.7114 48.8191 19.8771 48.6998 20.0204 48.5569C20.1867 48.3935 20.4636 48.0131 20.4636 47.3877C20.4636 46.9794 20.3256 46.5442 20.0761 46.2992C19.8305 46.0656 19.5052 45.93 19.1634 45.9188C18.8446 45.9167 18.5372 46.0347 18.3044 46.2485C18.2861 46.2644 18.2679 46.2803 18.2516 46.2973C17.9342 46.6179 17.7446 46.9944 17.5569 47.4146L17.0853 48.3935C16.8369 48.9104 16.5316 49.5358 16.0884 49.971C15.5073 50.5685 14.8714 50.7866 14.1219 50.7866C13.1984 50.7906 12.3076 50.4507 11.6291 49.8355C11.0754 49.3187 10.5216 48.4483 10.5216 47.0342C10.5216 46.2176 10.6879 45.5653 11.1301 44.912C11.3449 44.5853 11.6097 44.2931 11.9151 44.0456C11.9919 43.9824 12.0814 43.9358 12.1778 43.909C12.2743 43.8821 12.3754 43.8757 12.4745 43.89C12.5737 43.9043 12.6686 43.939 12.7531 43.9919C12.8376 44.0449 12.9097 44.1147 12.9648 44.197L13.5499 45.0674Z" fill="#005864"/>
<path d="M19.7597 67.3401C19.7824 67.3 19.8131 67.2649 19.8499 67.2369C19.8868 67.2089 19.9292 67.1885 19.9743 67.1771C20.0195 67.1656 20.0665 67.1633 20.1126 67.1702C20.1587 67.1772 20.2029 67.1933 20.2425 67.2176C20.9715 67.6654 21.594 68.2618 22.068 68.9663C22.6765 69.8915 22.9544 71.1154 22.9544 72.3393C22.9544 73.862 22.567 75.1127 21.4585 76.2012C20.35 77.2897 18.7445 77.8872 16.9961 77.8872C15.1959 77.8872 13.4516 77.2618 12.2052 76.0648C11.2356 75.1127 10.6261 73.862 10.6261 72.2297C10.6261 70.4083 11.4293 69.2422 12.1473 68.558C13.1472 67.5556 14.5106 66.9828 15.9393 66.9646C15.9393 66.9646 17.3592 66.8651 17.3592 68.0601L17.4089 74.7951C17.4089 74.8427 17.4196 74.8897 17.44 74.9329C17.4605 74.9761 17.4903 75.0144 17.5274 75.0451C17.5644 75.0758 17.6079 75.0982 17.6547 75.1108C17.7015 75.1233 17.7505 75.1257 17.7983 75.1177C18.5204 74.9952 19.2709 74.6676 19.7628 74.1846C20.3997 73.5592 20.5112 72.7974 20.5112 72.1451C20.5112 71.4101 20.3449 70.8664 19.9291 70.3227C19.6476 69.969 19.3075 69.6643 18.923 69.4214C18.8516 69.3744 18.8009 69.3026 18.7812 69.2204C18.7614 69.1382 18.7741 69.0517 18.8165 68.9783L19.7597 67.3401ZM15.1959 70.1096C15.196 70.0555 15.1829 70.0023 15.1578 69.9542C15.1326 69.9062 15.0962 69.8647 15.0515 69.8332C15.0068 69.8018 14.955 69.7813 14.9006 69.7734C14.8462 69.7655 14.7906 69.7705 14.7386 69.7879C14.3123 69.9268 13.9272 70.1661 13.6169 70.485C13.2852 70.8385 12.9526 71.4092 12.9526 72.2775C12.9526 73.2027 13.34 73.8002 13.7 74.1537C13.9891 74.4467 14.3392 74.675 14.7264 74.823C14.7786 74.8431 14.8351 74.8504 14.8909 74.8442C14.9467 74.838 15.0001 74.8185 15.0464 74.7873C15.0927 74.7562 15.1305 74.7144 15.1566 74.6656C15.1827 74.6167 15.1962 74.5624 15.1959 74.5073V70.1096Z" fill="#005864"/>
<path d="M7 9.10712V14.7468C7.00016 14.9287 7.04602 15.1077 7.13353 15.2681C7.22104 15.4284 7.3475 15.5652 7.50176 15.6663L9.54005 16.9992C9.72528 17.1202 9.94292 17.1848 10.1656 17.1848C10.3882 17.1848 10.6058 17.1202 10.7911 16.9992L10.8664 16.9497C11.0209 16.8488 11.1477 16.7121 11.2353 16.5516C11.3229 16.3912 11.3688 16.212 11.3688 16.0301C11.3688 15.8481 11.3229 15.6689 11.2353 15.5085C11.1477 15.3481 11.0209 15.2113 10.8664 15.1104L9.29482 14.0832C9.23707 14.0455 9.18967 13.9945 9.15682 13.9346C9.12397 13.8747 9.10668 13.8079 9.10648 13.7399V11.9641C9.10648 11.8894 9.12714 11.8162 9.16627 11.7521C9.2054 11.6881 9.26152 11.6356 9.32867 11.6004C9.39582 11.5651 9.47147 11.5483 9.54756 11.5519C9.62366 11.5554 9.69736 11.5791 9.7608 11.6204L14.9336 14.9938C14.9913 15.0314 15.0386 15.0824 15.0714 15.1423C15.1041 15.2022 15.1213 15.2691 15.1213 15.337C15.1213 15.405 15.1041 15.4719 15.0714 15.5318C15.0386 15.5917 14.9913 15.6427 14.9336 15.6803L7.50251 20.5305C7.34792 20.6314 7.22117 20.7682 7.1335 20.9286C7.04584 21.0891 6.99998 21.2683 7 21.4503V27.0804C7 27.9634 8.00427 28.4897 8.75389 27.9999L22.4984 19.0138C22.649 18.9153 22.7732 18.7826 22.8605 18.6271C22.9478 18.4716 22.9955 18.2978 22.9997 18.1203C23.0039 17.9429 22.9644 17.7671 22.8845 17.6078C22.8046 17.4485 22.6868 17.3103 22.5409 17.2051L20.7742 16.0409C20.5886 15.9269 20.374 15.8662 20.1549 15.866C19.495 15.866 18.9597 16.4027 18.9597 17.0649C18.9596 17.1917 18.9797 17.3177 19.0192 17.4384C19.0568 17.5552 19.113 17.6655 19.1857 17.7651C19.2293 17.814 19.27 17.8653 19.3077 17.9186C19.3313 17.959 19.3459 18.0038 19.3507 18.05C19.3591 18.1466 19.3324 18.243 19.2754 18.3221C19.244 18.3675 19.2041 18.4067 19.1578 18.4376L9.76381 24.5675C9.70037 24.6088 9.62667 24.6325 9.55058 24.6361C9.47448 24.6396 9.39883 24.6228 9.33168 24.5876C9.26454 24.5523 9.20841 24.4999 9.16928 24.4358C9.13016 24.3718 9.10949 24.2985 9.10949 24.2239V22.4757C9.10963 22.4077 9.12689 22.3408 9.15975 22.281C9.1926 22.2211 9.24004 22.1701 9.29784 22.1324L17.5757 16.7194L18.282 16.2576C18.4365 16.1567 18.5631 16.02 18.6507 15.8596C18.7383 15.6992 18.7841 15.5201 18.7841 15.3382C18.7841 15.1562 18.7383 14.9771 18.6507 14.8167C18.5631 14.6563 18.4365 14.5196 18.282 14.4187L17.5757 13.9569L9.10874 8.4202L8.75276 8.18766C8.00389 7.69784 7 8.22457 7 9.10712Z" fill="#005864"/>
<path d="M11.35 414.238L16.9056 411.783C16.9646 411.757 17.0147 411.715 17.0499 411.662C17.0851 411.609 17.1038 411.547 17.1038 411.484C17.1038 411.421 17.0851 411.359 17.0499 411.306C17.0147 411.253 16.9646 411.211 16.9056 411.185L11.35 408.73C11.2253 408.675 11.1194 408.586 11.0451 408.473C10.9708 408.361 10.9312 408.229 10.9311 408.095V406.667C10.9311 406.549 10.9617 406.433 11.0199 406.33C11.0781 406.226 11.1621 406.139 11.264 406.076C11.3659 406.014 11.4823 405.977 11.6023 405.971C11.7224 405.965 11.8422 405.988 11.9504 406.04L22.1012 410.858C22.2213 410.915 22.3225 411.004 22.3933 411.115C22.4641 411.226 22.5017 411.354 22.5017 411.485C22.5017 411.616 22.4641 411.744 22.3933 411.855C22.3225 411.966 22.2213 412.055 22.1012 412.112L11.9504 416.93C11.8422 416.982 11.7224 417.005 11.6023 416.999C11.4823 416.993 11.3659 416.956 11.264 416.894C11.1621 416.831 11.0781 416.744 11.0199 416.64C10.9617 416.537 10.9311 416.421 10.9311 416.303V414.873C10.9312 414.739 10.9708 414.607 11.0451 414.495C11.1194 414.382 11.2253 414.293 11.35 414.238Z" fill="#005864"/>
<path d="M13.6514 381.532C13.7404 381.668 13.779 381.83 13.7605 381.991C13.742 382.151 13.6677 382.301 13.55 382.414C13.3781 382.58 13.2418 382.779 13.1491 382.998C13.0565 383.217 13.0093 383.452 13.0105 383.689C13.0038 383.838 13.0273 383.986 13.0795 384.126C13.1318 384.266 13.2117 384.395 13.3147 384.504C13.4775 384.66 13.6957 384.748 13.9232 384.749C14.2275 384.749 14.4212 384.613 14.5875 384.369C14.698 384.206 14.7538 384.042 15.0591 383.473L15.7487 382.111C16.053 381.514 16.3572 380.941 16.8288 380.506C17.4667 379.881 18.1868 379.663 18.99 379.663C19.9741 379.655 20.9246 380.014 21.6482 380.669C22.6461 381.566 22.9504 382.682 22.9504 383.879C22.9504 384.613 22.8398 385.538 22.2029 386.354C21.8118 386.846 21.3162 387.25 20.7506 387.536C20.6659 387.58 20.5729 387.607 20.4774 387.614C20.3819 387.622 20.2857 387.611 20.1947 387.581C20.1037 387.551 20.0198 387.504 19.948 387.442C19.8762 387.379 19.8181 387.303 19.777 387.218L19.3267 386.286C19.2491 386.125 19.2373 385.94 19.2939 385.771C19.3505 385.601 19.4712 385.46 19.631 385.375C19.8128 385.283 19.9786 385.164 20.1218 385.021C20.2882 384.858 20.565 384.477 20.565 383.852C20.565 383.444 20.4271 383.009 20.1776 382.764C19.932 382.53 19.6067 382.394 19.2649 382.383C18.9461 382.381 18.6387 382.499 18.4059 382.713C18.3876 382.729 18.3693 382.745 18.3531 382.762C18.0357 383.082 17.846 383.459 17.6584 383.879L17.1868 384.858C16.9383 385.375 16.6331 386 16.1899 386.435C15.6088 387.033 14.9729 387.251 14.2234 387.251C13.2999 387.255 12.4091 386.915 11.7306 386.3C11.1768 385.783 10.6231 384.913 10.6231 383.499C10.6231 382.682 10.7894 382.03 11.2316 381.376C11.4464 381.05 11.7111 380.757 12.0166 380.51C12.0933 380.447 12.1829 380.4 12.2793 380.373C12.3757 380.347 12.4768 380.34 12.576 380.354C12.6752 380.369 12.7701 380.403 12.8546 380.456C12.9391 380.509 13.0112 380.579 13.0662 380.661L13.6514 381.532Z" fill="#005864"/>
<path d="M11.7213 361H22.29C22.4783 361 22.6588 361.074 22.792 361.204C22.9251 361.335 22.9999 361.512 22.9999 361.697V362.939C22.9999 363.124 22.9251 363.301 22.792 363.432C22.6588 363.563 22.4783 363.636 22.29 363.636H13.1472C13.0404 363.636 12.935 363.613 12.8387 363.567C12.7425 363.522 12.658 363.455 12.5915 363.373L11.3237 361.809C11.2641 361.735 11.2268 361.647 11.2161 361.554C11.2054 361.461 11.2218 361.366 11.2633 361.282C11.3049 361.197 11.3699 361.126 11.451 361.076C11.532 361.026 11.6257 361 11.7213 361Z" fill="#005864"/>
<path d="M13.5499 369.88C13.639 370.016 13.6775 370.178 13.659 370.339C13.6406 370.499 13.5662 370.649 13.4485 370.762C13.2766 370.929 13.1403 371.127 13.0477 371.346C12.955 371.565 12.9079 371.8 12.909 372.037C12.9024 372.186 12.9258 372.335 12.9781 372.475C13.0303 372.615 13.1102 372.743 13.2132 372.853C13.376 373.009 13.5942 373.096 13.8217 373.097C14.126 373.097 14.3197 372.961 14.486 372.717C14.5966 372.554 14.6523 372.39 14.9576 371.821L15.6473 370.459C15.9515 369.862 16.2558 369.289 16.7273 368.854C17.3653 368.229 18.0853 368.012 18.8886 368.012C19.8726 368.003 20.8231 368.363 21.5467 369.017C22.5446 369.914 22.8489 371.03 22.8489 372.227C22.8489 372.961 22.7383 373.886 22.1014 374.702C21.7103 375.195 21.2148 375.598 20.6492 375.884C20.5644 375.928 20.4715 375.955 20.3759 375.962C20.2804 375.97 20.1842 375.959 20.0932 375.929C20.0023 375.9 19.9183 375.852 19.8466 375.79C19.7748 375.727 19.7166 375.651 19.6755 375.566L19.2253 374.634C19.1476 374.473 19.1359 374.288 19.1925 374.119C19.2491 373.949 19.3697 373.808 19.5295 373.723C19.7114 373.632 19.8771 373.512 20.0204 373.369C20.1867 373.206 20.4636 372.826 20.4636 372.2C20.4636 371.792 20.3256 371.357 20.0761 371.112C19.8305 370.878 19.5052 370.742 19.1634 370.731C18.8446 370.729 18.5372 370.847 18.3044 371.061C18.2861 371.077 18.2679 371.093 18.2516 371.11C17.9342 371.43 17.7446 371.807 17.5569 372.227L17.0853 373.206C16.8369 373.723 16.5316 374.348 16.0884 374.783C15.5073 375.381 14.8714 375.599 14.1219 375.599C13.1984 375.603 12.3076 375.263 11.6291 374.648C11.0754 374.131 10.5216 373.261 10.5216 371.847C10.5216 371.03 10.6879 370.378 11.1301 369.725C11.3449 369.398 11.6097 369.106 11.9151 368.858C11.9919 368.795 12.0814 368.748 12.1778 368.721C12.2743 368.695 12.3754 368.688 12.4745 368.702C12.5737 368.717 12.6686 368.752 12.7531 368.804C12.8376 368.857 12.9097 368.927 12.9648 369.009L13.5499 369.88Z" fill="#005864"/>
<path d="M19.7597 392.153C19.7824 392.113 19.8131 392.077 19.8499 392.049C19.8868 392.021 19.9292 392.001 19.9743 391.99C20.0195 391.978 20.0665 391.976 20.1126 391.983C20.1587 391.99 20.2029 392.006 20.2425 392.03C20.9715 392.478 21.594 393.074 22.068 393.779C22.6765 394.704 22.9544 395.928 22.9544 397.152C22.9544 398.674 22.567 399.925 21.4585 401.014C20.35 402.102 18.7445 402.7 16.9961 402.7C15.1959 402.7 13.4516 402.074 12.2052 400.877C11.2356 399.925 10.6261 398.674 10.6261 397.042C10.6261 395.221 11.4293 394.055 12.1473 393.371C13.1472 392.368 14.5106 391.795 15.9393 391.777C15.9393 391.777 17.3592 391.678 17.3592 392.873L17.4089 399.608C17.4089 399.655 17.4196 399.702 17.44 399.745C17.4605 399.789 17.4903 399.827 17.5274 399.858C17.5644 399.888 17.6079 399.911 17.6547 399.923C17.7015 399.936 17.7505 399.938 17.7983 399.93C18.5204 399.808 19.2709 399.48 19.7628 398.997C20.3997 398.372 20.5112 397.61 20.5112 396.958C20.5112 396.223 20.3449 395.679 19.9291 395.135C19.6476 394.781 19.3075 394.477 18.923 394.234C18.8516 394.187 18.8009 394.115 18.7812 394.033C18.7614 393.951 18.7741 393.864 18.8165 393.791L19.7597 392.153ZM15.1959 394.922C15.196 394.868 15.1829 394.815 15.1578 394.767C15.1326 394.719 15.0962 394.677 15.0515 394.646C15.0068 394.614 14.955 394.594 14.9006 394.586C14.8462 394.578 14.7906 394.583 14.7386 394.6C14.3123 394.739 13.9272 394.979 13.6169 395.297C13.2852 395.651 12.9526 396.222 12.9526 397.09C12.9526 398.015 13.34 398.613 13.7 398.966C13.9891 399.259 14.3392 399.487 14.7264 399.635C14.7786 399.656 14.8351 399.663 14.8909 399.657C14.9467 399.65 15.0001 399.631 15.0464 399.6C15.0927 399.569 15.1305 399.527 15.1566 399.478C15.1827 399.429 15.1962 399.375 15.1959 399.32V394.922Z" fill="#005864"/>
<path d="M7 333.92V339.559C7.00016 339.741 7.04602 339.92 7.13353 340.081C7.22104 340.241 7.3475 340.378 7.50176 340.479L9.54005 341.812C9.72528 341.933 9.94292 341.997 10.1656 341.997C10.3882 341.997 10.6058 341.933 10.7911 341.812L10.8664 341.762C11.0209 341.661 11.1477 341.525 11.2353 341.364C11.3229 341.204 11.3688 341.025 11.3688 340.843C11.3688 340.661 11.3229 340.481 11.2353 340.321C11.1477 340.161 11.0209 340.024 10.8664 339.923L9.29482 338.896C9.23707 338.858 9.18967 338.807 9.15682 338.747C9.12397 338.687 9.10668 338.62 9.10648 338.552V336.777C9.10648 336.702 9.12714 336.629 9.16627 336.565C9.2054 336.501 9.26152 336.448 9.32867 336.413C9.39582 336.378 9.47147 336.361 9.54756 336.364C9.62366 336.368 9.69736 336.392 9.7608 336.433L14.9336 339.806C14.9913 339.844 15.0386 339.895 15.0714 339.955C15.1041 340.015 15.1213 340.082 15.1213 340.15C15.1213 340.217 15.1041 340.284 15.0714 340.344C15.0386 340.404 14.9913 340.455 14.9336 340.493L7.50251 345.343C7.34792 345.444 7.22117 345.581 7.1335 345.741C7.04584 345.902 6.99998 346.081 7 346.263V351.893C7 352.776 8.00427 353.302 8.75389 352.812L22.4984 343.826C22.649 343.728 22.7732 343.595 22.8605 343.44C22.9478 343.284 22.9955 343.11 22.9997 342.933C23.0039 342.755 22.9644 342.58 22.8845 342.42C22.8046 342.261 22.6868 342.123 22.5409 342.018L20.7742 340.853C20.5886 340.739 20.374 340.679 20.1549 340.678C19.495 340.678 18.9597 341.215 18.9597 341.877C18.9596 342.004 18.9797 342.13 19.0192 342.251C19.0568 342.368 19.113 342.478 19.1857 342.578C19.2293 342.627 19.27 342.678 19.3077 342.731C19.3313 342.772 19.3459 342.816 19.3507 342.863C19.3591 342.959 19.3324 343.055 19.2754 343.135C19.244 343.18 19.2041 343.219 19.1578 343.25L9.76381 349.38C9.70037 349.421 9.62667 349.445 9.55058 349.449C9.47448 349.452 9.39883 349.435 9.33168 349.4C9.26454 349.365 9.20841 349.312 9.16928 349.248C9.13016 349.184 9.10949 349.111 9.10949 349.036V347.288C9.10963 347.22 9.12689 347.153 9.15975 347.093C9.1926 347.034 9.24004 346.983 9.29784 346.945L17.5757 341.532L18.282 341.07C18.4365 340.969 18.5631 340.832 18.6507 340.672C18.7383 340.512 18.7841 340.333 18.7841 340.151C18.7841 339.969 18.7383 339.79 18.6507 339.629C18.5631 339.469 18.4365 339.332 18.282 339.231L17.5757 338.769L9.10874 333.233L8.75276 333C8.00389 332.51 7 333.037 7 333.92Z" fill="#005864"/>
</svg>
