<svg width="260" height="20" viewBox="0 0 260 20" fill="none" xmlns="http://www.w3.org/2000/svg">
<rect width="20" height="260" transform="matrix(0 1 -1 0 260 0)" fill="#E6E6E6"/>
<path d="M2.76245 4.82828L5.21724 10.3839C5.24283 10.4429 5.28469 10.493 5.33773 10.5282C5.39076 10.5634 5.4527 10.5821 5.516 10.5821C5.57929 10.5821 5.64123 10.5634 5.69426 10.5282C5.7473 10.493 5.78916 10.4429 5.81475 10.3839L8.26954 4.82828C8.32459 4.70356 8.41383 4.59769 8.52654 4.52339C8.63925 4.44909 8.77064 4.40951 8.9049 4.40942L10.333 4.40942C10.451 4.40943 10.5672 4.43998 10.6705 4.4982C10.7737 4.55642 10.8608 4.64041 10.9235 4.74228C10.9863 4.84415 11.0225 4.96058 11.029 5.08064C11.0354 5.20069 11.0118 5.32044 10.9603 5.42867L6.14239 15.5795C6.08531 15.6996 5.99618 15.8008 5.88522 15.8716C5.77426 15.9424 5.64595 15.98 5.515 15.98C5.38404 15.98 5.25574 15.9424 5.14478 15.8716C5.03382 15.8008 4.94469 15.6996 4.88761 15.5795L0.0696498 5.42867C0.0182078 5.32044 -0.00540042 5.20069 0.00103724 5.08064C0.0074749 4.96058 0.0437488 4.84415 0.106457 4.74228C0.169164 4.64041 0.256252 4.55642 0.359551 4.4982C0.462851 4.43998 0.578977 4.40943 0.69704 4.40942L2.12709 4.40942C2.26136 4.40951 2.39274 4.44909 2.50545 4.52339C2.61816 4.59769 2.7074 4.70356 2.76245 4.82828Z" fill="#005864"/>
<path d="M35.4684 7.12988C35.3323 7.21892 35.1702 7.25745 35.0095 7.23897C34.8488 7.2205 34.6992 7.14615 34.5861 7.02847C34.4196 6.85656 34.2211 6.72027 34.0022 6.62762C33.7833 6.53496 33.5484 6.48781 33.3114 6.48893C33.1624 6.4823 33.0137 6.50578 32.8737 6.558C32.7337 6.61022 32.6053 6.69015 32.4958 6.79318C32.3397 6.95599 32.2519 7.17417 32.2508 7.40168C32.2508 7.70593 32.3872 7.89964 32.6312 8.06596C32.7945 8.17651 32.9578 8.23229 33.5275 8.53756L34.8888 9.22719C35.4863 9.53144 36.0589 9.8357 36.4941 10.3073C37.1195 10.9452 37.3366 11.6653 37.3366 12.4685C37.3454 13.4525 36.9857 14.403 36.3308 15.1266C35.4345 16.1246 34.3182 16.4288 33.1212 16.4288C32.3872 16.4288 31.4621 16.3183 30.6465 15.6814C30.1537 15.2903 29.7504 14.7947 29.4644 14.2291C29.4203 14.1444 29.3936 14.0514 29.3858 13.9559C29.378 13.8603 29.3893 13.7642 29.419 13.6732C29.4487 13.5822 29.4961 13.4983 29.5585 13.4265C29.6209 13.3547 29.697 13.2965 29.7821 13.2555L30.7142 12.8052C30.8754 12.7276 31.0598 12.7158 31.2293 12.7724C31.3988 12.829 31.5406 12.9496 31.6254 13.1094C31.7166 13.2913 31.836 13.457 31.9789 13.6003C32.1422 13.7666 32.5227 14.0435 33.1481 14.0435C33.5564 14.0435 33.9915 13.9056 34.2365 13.6561C34.4702 13.4105 34.6058 13.0851 34.6169 12.7433C34.6191 12.4246 34.5011 12.1172 34.2873 11.8843C34.2714 11.8661 34.2554 11.8478 34.2385 11.8316C33.9179 11.5142 33.5414 11.3245 33.1212 11.1369L32.1422 10.6653C31.6254 10.4168 31 10.1116 30.5648 9.66836C29.9673 9.08724 29.7492 8.45135 29.7492 7.70188C29.7452 6.77834 30.085 5.88758 30.7002 5.20904C31.2171 4.6553 32.0875 4.10156 33.5016 4.10156C34.3182 4.10156 34.9705 4.26789 35.6238 4.71007C35.9504 4.92484 36.2427 5.1896 36.4901 5.49504C36.5534 5.57182 36.6 5.66136 36.6268 5.75778C36.6536 5.8542 36.6601 5.95532 36.6458 6.05447C36.6315 6.15362 36.5967 6.24857 36.5438 6.33307C36.4909 6.41756 36.421 6.48969 36.3388 6.5447L35.4684 7.12988Z" fill="#005864"/>
<path d="M55.9999 5.1998V15.7685C55.9999 15.9568 55.9265 16.1373 55.7957 16.2705C55.665 16.4036 55.4877 16.4784 55.3028 16.4784H54.061C53.8761 16.4784 53.6988 16.4036 53.5681 16.2705C53.4373 16.1373 53.3639 15.9568 53.3639 15.7685V6.62573C53.3638 6.51892 53.3875 6.41347 53.433 6.31724C53.4785 6.22101 53.5447 6.13649 53.6268 6.06996L55.1913 4.80224C55.2646 4.74259 55.353 4.70527 55.4463 4.69459C55.5396 4.6839 55.6339 4.70028 55.7185 4.74183C55.803 4.78339 55.8743 4.84844 55.9241 4.92947C55.9739 5.0105 56.0002 5.10421 55.9999 5.1998Z" fill="#005864"/>
<path d="M47.12 7.02832C46.9839 7.11736 46.8219 7.15588 46.6611 7.13741C46.5004 7.11893 46.3509 7.04459 46.2377 6.9269C46.0712 6.755 45.8727 6.61871 45.6538 6.52606C45.4349 6.4334 45.2 6.38625 44.963 6.38736C44.814 6.38074 44.6653 6.40422 44.5253 6.45644C44.3853 6.50866 44.2569 6.58859 44.1474 6.69162C43.9913 6.85442 43.9035 7.07261 43.9024 7.30012C43.9024 7.60437 44.0388 7.79808 44.2828 7.9644C44.4461 8.07495 44.6095 8.13073 45.1791 8.43599L46.5404 9.12563C47.1379 9.42988 47.7106 9.73413 48.1457 10.2057C48.7711 10.8436 48.9882 11.5637 48.9882 12.3669C48.997 13.351 48.6374 14.3015 47.9824 15.0251C47.0861 16.023 45.9698 16.3273 44.7728 16.3273C44.0388 16.3273 43.1137 16.2167 42.2981 15.5798C41.8053 15.1887 41.402 14.6932 41.116 14.1275C41.072 14.0428 41.0452 13.9498 41.0374 13.8543C41.0296 13.7588 41.0409 13.6626 41.0706 13.5716C41.1003 13.4806 41.1478 13.3967 41.2102 13.3249C41.2726 13.2531 41.3486 13.195 41.4337 13.1539L42.3658 12.7036C42.5271 12.626 42.7114 12.6143 42.8809 12.6709C43.0504 12.7275 43.1922 12.8481 43.277 13.0079C43.3682 13.1897 43.4876 13.3555 43.6305 13.4987C43.7938 13.6651 44.1743 13.9419 44.7997 13.9419C45.208 13.9419 45.6432 13.804 45.8881 13.5545C46.1218 13.3089 46.2574 12.9836 46.2686 12.6418C46.2707 12.323 46.1527 12.0156 45.9389 11.7828C45.923 11.7645 45.9071 11.7463 45.8901 11.73C45.5695 11.4126 45.193 11.2229 44.7728 11.0353L43.7938 10.5637C43.277 10.3153 42.6516 10.01 42.2164 9.5668C41.6189 8.98567 41.4008 8.34979 41.4008 7.60031C41.3968 6.67678 41.7366 5.78602 42.3518 5.10748C42.8687 4.55374 43.7391 4 45.1532 4C45.9698 4 46.6221 4.16632 47.2754 4.6085C47.602 4.82328 47.8943 5.08804 48.1418 5.39348C48.205 5.47025 48.2516 5.5598 48.2784 5.65622C48.3052 5.75264 48.3117 5.85375 48.2974 5.95291C48.2831 6.05206 48.2484 6.14701 48.1954 6.23151C48.1425 6.316 48.0726 6.38813 47.9904 6.44314L47.12 7.02832Z" fill="#005864"/>
<path d="M24.8474 13.2381C24.8875 13.2608 24.9226 13.2915 24.9506 13.3284C24.9786 13.3652 24.999 13.4076 25.0104 13.4527C25.0219 13.4979 25.0242 13.5449 25.0173 13.591C25.0103 13.6371 24.9942 13.6813 24.9699 13.7209C24.5221 14.4499 23.9257 15.0724 23.2212 15.5464C22.296 16.1549 21.0721 16.4328 19.8482 16.4328C18.3255 16.4328 17.0748 16.0454 15.9863 14.9369C14.8978 13.8284 14.3003 12.2229 14.3003 10.4745C14.3003 8.67435 14.9257 6.92998 16.1227 5.68356C17.0748 4.71401 18.3255 4.10449 19.9578 4.10449C21.7792 4.10449 22.9453 4.90772 23.6295 5.62575C24.6319 6.6256 25.2047 7.98896 25.2229 9.41774C25.2229 9.41774 25.3224 10.8376 24.1274 10.8376L17.3924 10.8873C17.3448 10.8873 17.2978 10.898 17.2546 10.9184C17.2114 10.9389 17.1731 10.9687 17.1424 11.0058C17.1117 11.0428 17.0893 11.0863 17.0767 11.1331C17.0642 11.1799 17.0618 11.2289 17.0698 11.2767C17.1923 11.9988 17.5199 12.7493 18.0029 13.2412C18.6283 13.8781 19.3901 13.9896 20.0424 13.9896C20.7774 13.9896 21.3211 13.8233 21.8648 13.4075C22.2185 13.126 22.5232 12.7859 22.7661 12.4014C22.8131 12.33 22.8849 12.2793 22.9671 12.2596C23.0493 12.2398 23.1358 12.2525 23.2092 12.295L24.8474 13.2381ZM22.0779 8.67435C22.132 8.67439 22.1852 8.6613 22.2333 8.63618C22.2813 8.61105 22.3228 8.57461 22.3543 8.52989C22.3857 8.48516 22.4062 8.43344 22.4141 8.37902C22.422 8.32459 22.417 8.26904 22.3996 8.21696C22.2607 7.79068 22.0214 7.40556 21.7025 7.09529C21.349 6.76366 20.7783 6.431 19.91 6.431C18.9848 6.431 18.3873 6.81842 18.0338 7.17845C17.7408 7.46755 17.5125 7.81763 17.3645 8.20479C17.3444 8.25704 17.3371 8.31352 17.3433 8.3693C17.3495 8.42508 17.369 8.47846 17.4002 8.52478C17.4313 8.5711 17.4731 8.60895 17.5219 8.63503C17.5708 8.6611 17.6251 8.6746 17.6802 8.67435L22.0779 8.67435Z" fill="#005864"/>
<path d="M83.0804 4L77.4407 4C77.2588 4.00016 77.0798 4.04602 76.9194 4.13353C76.7591 4.22104 76.6223 4.3475 76.5212 4.50176L75.1883 6.54005C75.0673 6.72528 75.0027 6.94292 75.0027 7.16555C75.0027 7.38818 75.0673 7.60583 75.1883 7.79106L75.2378 7.86639C75.3387 8.02094 75.4754 8.14766 75.6359 8.2353C75.7963 8.32295 75.9755 8.36881 76.1574 8.36881C76.3394 8.36881 76.5186 8.32295 76.679 8.2353C76.8394 8.14766 76.9762 8.02094 77.0771 7.86639L78.1043 6.29482C78.142 6.23707 78.193 6.18967 78.2529 6.15682C78.3128 6.12397 78.3796 6.10668 78.4476 6.10648H80.2234C80.2981 6.10648 80.3713 6.12714 80.4354 6.16627C80.4994 6.2054 80.5519 6.26152 80.5871 6.32867C80.6224 6.39582 80.6392 6.47147 80.6356 6.54756C80.6321 6.62366 80.6084 6.69736 80.5671 6.7608L77.1937 11.9336C77.1561 11.9913 77.1051 12.0386 77.0452 12.0714C76.9853 12.1041 76.9184 12.1213 76.8505 12.1213C76.7825 12.1213 76.7156 12.1041 76.6557 12.0714C76.5958 12.0386 76.5448 11.9913 76.5072 11.9336L71.657 4.50251C71.5561 4.34792 71.4193 4.22117 71.2589 4.1335C71.0984 4.04584 70.9192 3.99998 70.7372 4L65.1071 4C64.2241 4 63.6978 5.00427 64.1876 5.75389L73.1737 19.4984C73.2722 19.649 73.4049 19.7732 73.5604 19.8605C73.7159 19.9478 73.8897 19.9955 74.0672 19.9997C74.2446 20.0039 74.4204 19.9644 74.5797 19.8845C74.739 19.8046 74.8772 19.6868 74.9824 19.5409L76.1466 17.7742C76.2606 17.5886 76.3213 17.374 76.3215 17.1549C76.3215 16.495 75.7848 15.9597 75.1226 15.9597C74.9958 15.9596 74.8698 15.9797 74.7491 16.0192C74.6323 16.0568 74.522 16.113 74.4224 16.1857C74.3735 16.2293 74.3222 16.27 74.2689 16.3077C74.2285 16.3313 74.1837 16.3459 74.1375 16.3507C74.0409 16.3591 73.9445 16.3324 73.8654 16.2754C73.82 16.244 73.7808 16.2041 73.7499 16.1578L67.62 6.76381C67.5787 6.70037 67.555 6.62667 67.5514 6.55058C67.5479 6.47448 67.5647 6.39883 67.5999 6.33168C67.6352 6.26454 67.6876 6.20841 67.7517 6.16928C67.8157 6.13016 67.889 6.10949 67.9636 6.10949L69.7118 6.10949C69.7798 6.10963 69.8467 6.12689 69.9065 6.15975C69.9664 6.1926 70.0174 6.24004 70.0551 6.29784L75.4681 14.5757L75.9299 15.282C76.0308 15.4365 76.1675 15.5631 76.3279 15.6507C76.4883 15.7383 76.6674 15.7841 76.8493 15.7841C77.0313 15.7841 77.2104 15.7383 77.3708 15.6507C77.5312 15.5631 77.6679 15.4365 77.7688 15.282L78.2306 14.5757L83.7673 6.10874L83.9998 5.75276C84.4897 5.00389 83.9629 4 83.0804 4Z" fill="#005864"/>
</svg>
