<svg width="30" height="425" viewBox="0 0 30 425" fill="none" xmlns="http://www.w3.org/2000/svg">
<rect width="30" height="425" fill="#E6E6E6"/>
<path d="M11.35 251.831L16.9056 249.377C16.9646 249.351 17.0147 249.309 17.0499 249.256C17.0851 249.203 17.1038 249.141 17.1038 249.078C17.1038 249.014 17.0851 248.953 17.0499 248.899C17.0147 248.846 16.9646 248.805 16.9056 248.779L11.35 246.324C11.2253 246.269 11.1194 246.18 11.0451 246.067C10.9708 245.954 10.9312 245.823 10.9312 245.689V244.261C10.9312 244.143 10.9617 244.027 11.0199 243.923C11.0781 243.82 11.1621 243.733 11.264 243.67C11.3659 243.607 11.4823 243.571 11.6024 243.565C11.7224 243.558 11.8422 243.582 11.9504 243.633L22.1013 248.451C22.2213 248.508 22.3225 248.598 22.3933 248.709C22.4642 248.819 22.5017 248.948 22.5017 249.079C22.5017 249.21 22.4642 249.338 22.3933 249.449C22.3225 249.56 22.2213 249.649 22.1013 249.706L11.9504 254.524C11.8422 254.576 11.7224 254.599 11.6024 254.593C11.4823 254.586 11.3659 254.55 11.264 254.487C11.1621 254.425 11.0781 254.337 11.0199 254.234C10.9617 254.131 10.9312 254.015 10.9312 253.897V252.467C10.9312 252.332 10.9708 252.201 11.0451 252.088C11.1194 251.976 11.2253 251.886 11.35 251.831Z" fill="#005864"/>
<path d="M13.6514 219.125C13.7404 219.262 13.7789 219.424 13.7605 219.584C13.742 219.745 13.6676 219.895 13.55 220.008C13.378 220.174 13.2418 220.373 13.1491 220.592C13.0564 220.811 13.0093 221.045 13.0104 221.282C13.0038 221.431 13.0273 221.58 13.0795 221.72C13.1317 221.86 13.2116 221.989 13.3147 222.098C13.4775 222.254 13.6957 222.342 13.9232 222.343C14.2274 222.343 14.4211 222.207 14.5874 221.963C14.698 221.799 14.7538 221.636 15.059 221.066L15.7487 219.705C16.0529 219.108 16.3572 218.535 16.8288 218.1C17.4667 217.474 18.1868 217.257 18.99 217.257C19.974 217.248 20.9245 217.608 21.6481 218.263C22.6461 219.159 22.9503 220.276 22.9503 221.473C22.9503 222.207 22.8398 223.132 22.2029 223.947C21.8117 224.44 21.3162 224.843 20.7506 225.129C20.6658 225.174 20.5729 225.2 20.4774 225.208C20.3818 225.216 20.2856 225.205 20.1947 225.175C20.1037 225.145 20.0198 225.098 19.948 225.035C19.8762 224.973 19.818 224.897 19.777 224.812L19.3267 223.88C19.249 223.718 19.2373 223.534 19.2939 223.365C19.3505 223.195 19.4711 223.053 19.6309 222.968C19.8128 222.877 19.9785 222.758 20.1218 222.615C20.2881 222.452 20.565 222.071 20.565 221.446C20.565 221.038 20.4271 220.602 20.1776 220.357C19.932 220.124 19.6066 219.988 19.2648 219.977C18.9461 219.975 18.6386 220.093 18.4058 220.307C18.3876 220.322 18.3693 220.338 18.3531 220.355C18.0356 220.676 17.846 221.052 17.6584 221.473L17.1868 222.452C16.9383 222.968 16.633 223.594 16.1898 224.029C15.6087 224.627 14.9728 224.845 14.2234 224.845C13.2998 224.849 12.4091 224.509 11.7305 223.894C11.1768 223.377 10.623 222.506 10.623 221.092C10.623 220.276 10.7894 219.623 11.2316 218.97C11.4463 218.643 11.7111 218.351 12.0165 218.104C12.0933 218.04 12.1828 217.994 12.2793 217.967C12.3757 217.94 12.4768 217.934 12.576 217.948C12.6751 217.962 12.7701 217.997 12.8546 218.05C12.939 218.103 13.0112 218.173 13.0662 218.255L13.6514 219.125Z" fill="#005864"/>
<path d="M11.7213 198.594H22.29C22.4783 198.594 22.6588 198.667 22.792 198.798C22.9251 198.929 22.9999 199.106 22.9999 199.291V200.533C22.9999 200.718 22.9251 200.895 22.792 201.026C22.6588 201.157 22.4783 201.23 22.29 201.23H13.1472C13.0404 201.23 12.935 201.206 12.8387 201.161C12.7425 201.115 12.658 201.049 12.5914 200.967L11.3237 199.403C11.2641 199.329 11.2268 199.241 11.2161 199.148C11.2054 199.054 11.2218 198.96 11.2633 198.875C11.3049 198.791 11.3699 198.72 11.451 198.67C11.532 198.62 11.6257 198.594 11.7213 198.594Z" fill="#005864"/>
<path d="M13.5499 207.474C13.639 207.61 13.6775 207.772 13.659 207.932C13.6405 208.093 13.5662 208.243 13.4485 208.356C13.2766 208.522 13.1403 208.721 13.0477 208.94C12.955 209.159 12.9079 209.394 12.909 209.631C12.9023 209.78 12.9258 209.928 12.978 210.068C13.0303 210.208 13.1102 210.337 13.2132 210.446C13.376 210.602 13.5942 210.69 13.8217 210.691C14.126 210.691 14.3197 210.555 14.486 210.311C14.5966 210.147 14.6523 209.984 14.9576 209.415L15.6472 208.053C15.9515 207.456 16.2557 206.883 16.7273 206.448C17.3652 205.822 18.0853 205.605 18.8885 205.605C19.8726 205.597 20.8231 205.956 21.5467 206.611C22.5446 207.507 22.8489 208.624 22.8489 209.821C22.8489 210.555 22.7383 211.48 22.1014 212.296C21.7103 212.788 21.2148 213.192 20.6491 213.478C20.5644 213.522 20.4715 213.548 20.3759 213.556C20.2804 213.564 20.1842 213.553 20.0932 213.523C20.0022 213.493 19.9183 213.446 19.8465 213.383C19.7748 213.321 19.7166 213.245 19.6755 213.16L19.2252 212.228C19.1476 212.067 19.1359 211.882 19.1925 211.713C19.2491 211.543 19.3697 211.401 19.5295 211.317C19.7113 211.225 19.8771 211.106 20.0203 210.963C20.1867 210.8 20.4635 210.419 20.4635 209.794C20.4635 209.386 20.3256 208.95 20.0761 208.705C19.8305 208.472 19.5052 208.336 19.1634 208.325C18.8446 208.323 18.5372 208.441 18.3044 208.655C18.2861 208.671 18.2679 208.687 18.2516 208.704C17.9342 209.024 17.7445 209.401 17.5569 209.821L17.0853 210.8C16.8369 211.317 16.5316 211.942 16.0884 212.377C15.5073 212.975 14.8714 213.193 14.1219 213.193C13.1984 213.197 12.3076 212.857 11.6291 212.242C11.0753 211.725 10.5216 210.855 10.5216 209.44C10.5216 208.624 10.6879 207.972 11.1301 207.318C11.3449 206.992 11.6096 206.699 11.9151 206.452C11.9919 206.389 12.0814 206.342 12.1778 206.315C12.2742 206.288 12.3754 206.282 12.4745 206.296C12.5737 206.311 12.6686 206.345 12.7531 206.398C12.8376 206.451 12.9097 206.521 12.9647 206.603L13.5499 207.474Z" fill="#005864"/>
<path d="M19.7597 229.746C19.7824 229.706 19.8131 229.671 19.85 229.643C19.8869 229.615 19.9292 229.595 19.9743 229.583C20.0195 229.572 20.0665 229.57 20.1126 229.576C20.1587 229.583 20.2029 229.6 20.2425 229.624C20.9715 230.072 21.594 230.668 22.068 231.373C22.6765 232.298 22.9544 233.522 22.9544 234.746C22.9544 236.268 22.567 237.519 21.4585 238.607C20.35 239.696 18.7446 240.293 16.9961 240.293C15.196 240.293 13.4516 239.668 12.2052 238.471C11.2356 237.519 10.6261 236.268 10.6261 234.636C10.6261 232.815 11.4293 231.648 12.1474 230.964C13.1472 229.962 14.5106 229.389 15.9394 229.371C15.9394 229.371 17.3592 229.271 17.3592 230.466L17.4089 237.201C17.4089 237.249 17.4196 237.296 17.44 237.339C17.4605 237.382 17.4903 237.421 17.5274 237.451C17.5645 237.482 17.6079 237.504 17.6547 237.517C17.7015 237.53 17.7505 237.532 17.7983 237.524C18.5204 237.401 19.2709 237.074 19.7628 236.591C20.3997 235.965 20.5112 235.204 20.5112 234.551C20.5112 233.816 20.3449 233.273 19.9291 232.729C19.6476 232.375 19.3075 232.071 18.923 231.828C18.8516 231.781 18.801 231.709 18.7812 231.627C18.7615 231.544 18.7741 231.458 18.8166 231.385L19.7597 229.746ZM15.196 232.516C15.196 232.462 15.1829 232.409 15.1578 232.36C15.1327 232.312 15.0962 232.271 15.0515 232.239C15.0068 232.208 14.955 232.188 14.9006 232.18C14.8462 232.172 14.7906 232.177 14.7386 232.194C14.3123 232.333 13.9272 232.572 13.6169 232.891C13.2853 233.245 12.9526 233.815 12.9526 234.684C12.9526 235.609 13.34 236.206 13.7001 236.56C13.9892 236.853 14.3392 237.081 14.7264 237.229C14.7786 237.249 14.8351 237.257 14.8909 237.25C14.9467 237.244 15.0001 237.225 15.0464 237.194C15.0927 237.162 15.1306 237.121 15.1566 237.072C15.1827 237.023 15.1962 236.969 15.196 236.914V232.516Z" fill="#005864"/>
<path d="M7 171.513V177.153C7.00016 177.335 7.04602 177.514 7.13353 177.674C7.22104 177.835 7.3475 177.971 7.50176 178.073L9.54005 179.405C9.72528 179.526 9.94292 179.591 10.1656 179.591C10.3882 179.591 10.6058 179.526 10.7911 179.405L10.8664 179.356C11.0209 179.255 11.1477 179.118 11.2353 178.958C11.3229 178.797 11.3688 178.618 11.3688 178.436C11.3688 178.254 11.3229 178.075 11.2353 177.915C11.1477 177.754 11.0209 177.618 10.8664 177.517L9.29482 176.489C9.23707 176.452 9.18967 176.401 9.15682 176.341C9.12397 176.281 9.10668 176.214 9.10648 176.146V174.37C9.10648 174.296 9.12714 174.222 9.16627 174.158C9.2054 174.094 9.26152 174.042 9.32867 174.007C9.39582 173.971 9.47147 173.955 9.54756 173.958C9.62366 173.962 9.69736 173.985 9.7608 174.027L14.9336 177.4C14.9913 177.438 15.0386 177.489 15.0714 177.549C15.1041 177.608 15.1213 177.675 15.1213 177.743C15.1213 177.811 15.1041 177.878 15.0714 177.938C15.0386 177.998 14.9913 178.049 14.9336 178.087L7.50251 182.937C7.34792 183.038 7.22117 183.174 7.1335 183.335C7.04584 183.495 6.99998 183.675 7 183.857V189.487C7 190.37 8.00427 190.896 8.75389 190.406L22.4984 181.42C22.649 181.322 22.7732 181.189 22.8605 181.033C22.9478 180.878 22.9955 180.704 22.9997 180.527C23.0039 180.349 22.9644 180.173 22.8845 180.014C22.8046 179.855 22.6868 179.717 22.5409 179.611L20.7742 178.447C20.5886 178.333 20.374 178.272 20.1549 178.272C19.495 178.272 18.9597 178.809 18.9597 179.471C18.9596 179.598 18.9797 179.724 19.0192 179.845C19.0568 179.961 19.113 180.072 19.1857 180.171C19.2293 180.22 19.27 180.272 19.3077 180.325C19.3313 180.365 19.3459 180.41 19.3507 180.456C19.3591 180.553 19.3324 180.649 19.2754 180.728C19.244 180.774 19.2041 180.813 19.1578 180.844L9.76381 186.974C9.70037 187.015 9.62667 187.039 9.55058 187.042C9.47448 187.046 9.39883 187.029 9.33168 186.994C9.26454 186.959 9.20841 186.906 9.16928 186.842C9.13016 186.778 9.10949 186.705 9.10949 186.63V184.882C9.10963 184.814 9.12689 184.747 9.15975 184.687C9.1926 184.627 9.24004 184.576 9.29784 184.539L17.5757 179.126L18.282 178.664C18.4365 178.563 18.5631 178.426 18.6507 178.266C18.7383 178.105 18.7841 177.926 18.7841 177.744C18.7841 177.562 18.7383 177.383 18.6507 177.223C18.5631 177.063 18.4365 176.926 18.282 176.825L17.5757 176.363L9.10874 170.826L8.75276 170.594C8.00389 170.104 7 170.631 7 171.513Z" fill="#005864"/>
</svg>
