<svg width="260" height="20" viewBox="0 0 260 20" fill="none" xmlns="http://www.w3.org/2000/svg">
<rect width="20" height="260" transform="matrix(0 1 -1 0 260 0)" fill="#E6E6E6"/>
<path d="M178.575 4.82828L181.03 10.3839C181.055 10.4429 181.097 10.493 181.15 10.5282C181.203 10.5634 181.265 10.5821 181.329 10.5821C181.392 10.5821 181.454 10.5634 181.507 10.5282C181.56 10.493 181.602 10.4429 181.627 10.3839L184.082 4.82828C184.137 4.70356 184.226 4.59769 184.339 4.52339C184.452 4.44909 184.583 4.40951 184.718 4.40942L186.146 4.40942C186.264 4.40943 186.38 4.43998 186.483 4.4982C186.586 4.55642 186.673 4.64041 186.736 4.74228C186.799 4.84415 186.835 4.96058 186.842 5.08064C186.848 5.20069 186.824 5.32044 186.773 5.42867L181.955 15.5795C181.898 15.6996 181.809 15.8008 181.698 15.8716C181.587 15.9424 181.459 15.98 181.328 15.98C181.197 15.98 181.068 15.9424 180.957 15.8716C180.846 15.8008 180.757 15.6996 180.7 15.5795L175.882 5.42867C175.831 5.32044 175.807 5.20069 175.814 5.08064C175.82 4.96058 175.856 4.84415 175.919 4.74228C175.982 4.64041 176.069 4.55642 176.172 4.4982C176.275 4.43998 176.392 4.40943 176.51 4.40942L177.94 4.40942C178.074 4.40951 178.205 4.44909 178.318 4.52339C178.431 4.59769 178.52 4.70356 178.575 4.82828Z" fill="#005864"/>
<path d="M211.281 7.12988C211.145 7.21892 210.983 7.25745 210.822 7.23897C210.661 7.2205 210.512 7.14615 210.399 7.02847C210.232 6.85656 210.034 6.72027 209.815 6.62762C209.596 6.53496 209.361 6.48781 209.124 6.48893C208.975 6.4823 208.826 6.50578 208.686 6.558C208.546 6.61022 208.418 6.69015 208.308 6.79318C208.152 6.95599 208.064 7.17417 208.063 7.40168C208.063 7.70593 208.2 7.89964 208.444 8.06596C208.607 8.17651 208.77 8.23229 209.34 8.53756L210.701 9.22719C211.299 9.53144 211.872 9.8357 212.307 10.3073C212.932 10.9452 213.149 11.6653 213.149 12.4685C213.158 13.4525 212.798 14.403 212.143 15.1266C211.247 16.1246 210.131 16.4288 208.934 16.4288C208.2 16.4288 207.275 16.3183 206.459 15.6814C205.966 15.2903 205.563 14.7947 205.277 14.2291C205.233 14.1444 205.206 14.0514 205.198 13.9559C205.191 13.8603 205.202 13.7642 205.232 13.6732C205.261 13.5822 205.309 13.4983 205.371 13.4265C205.434 13.3547 205.51 13.2965 205.595 13.2555L206.527 12.8052C206.688 12.7276 206.872 12.7158 207.042 12.7724C207.211 12.829 207.353 12.9496 207.438 13.1094C207.529 13.2913 207.649 13.457 207.792 13.6003C207.955 13.7666 208.335 14.0435 208.961 14.0435C209.369 14.0435 209.804 13.9056 210.049 13.6561C210.283 13.4105 210.418 13.0851 210.43 12.7433C210.432 12.4246 210.314 12.1172 210.1 11.8843C210.084 11.8661 210.068 11.8478 210.051 11.8316C209.73 11.5142 209.354 11.3245 208.934 11.1369L207.955 10.6653C207.438 10.4168 206.813 10.1116 206.377 9.66836C205.78 9.08724 205.562 8.45135 205.562 7.70188C205.558 6.77834 205.898 5.88758 206.513 5.20904C207.03 4.6553 207.9 4.10156 209.314 4.10156C210.131 4.10156 210.783 4.26789 211.436 4.71007C211.763 4.92484 212.055 5.1896 212.303 5.49504C212.366 5.57182 212.413 5.66136 212.439 5.75778C212.466 5.8542 212.473 5.95532 212.458 6.05447C212.444 6.15362 212.409 6.24857 212.356 6.33307C212.304 6.41756 212.234 6.48969 212.151 6.5447L211.281 7.12988Z" fill="#005864"/>
<path d="M231.813 5.1998V15.7685C231.813 15.9568 231.739 16.1373 231.608 16.2705C231.478 16.4036 231.3 16.4784 231.115 16.4784H229.874C229.689 16.4784 229.511 16.4036 229.381 16.2705C229.25 16.1373 229.177 15.9568 229.177 15.7685V6.62573C229.176 6.51892 229.2 6.41347 229.246 6.31724C229.291 6.22101 229.357 6.13649 229.439 6.06996L231.004 4.80224C231.077 4.74259 231.166 4.70527 231.259 4.69459C231.352 4.6839 231.447 4.70028 231.531 4.74183C231.616 4.78339 231.687 4.84844 231.737 4.92947C231.786 5.0105 231.813 5.10421 231.813 5.1998Z" fill="#005864"/>
<path d="M222.933 7.02832C222.797 7.11736 222.634 7.15588 222.474 7.13741C222.313 7.11893 222.163 7.04459 222.05 6.9269C221.884 6.755 221.685 6.61871 221.466 6.52606C221.248 6.4334 221.013 6.38625 220.776 6.38736C220.627 6.38074 220.478 6.40422 220.338 6.45644C220.198 6.50866 220.069 6.58859 219.96 6.69162C219.804 6.85442 219.716 7.07261 219.715 7.30012C219.715 7.60437 219.851 7.79808 220.095 7.9644C220.259 8.07495 220.422 8.13073 220.992 8.43599L222.353 9.12563C222.951 9.42988 223.523 9.73413 223.958 10.2057C224.584 10.8436 224.801 11.5637 224.801 12.3669C224.81 13.351 224.45 14.3015 223.795 15.0251C222.899 16.023 221.782 16.3273 220.585 16.3273C219.851 16.3273 218.926 16.2167 218.111 15.5798C217.618 15.1887 217.215 14.6932 216.929 14.1275C216.885 14.0428 216.858 13.9498 216.85 13.8543C216.842 13.7588 216.854 13.6626 216.883 13.5716C216.913 13.4806 216.96 13.3967 217.023 13.3249C217.085 13.2531 217.161 13.195 217.246 13.1539L218.178 12.7036C218.34 12.626 218.524 12.6143 218.694 12.6709C218.863 12.7275 219.005 12.8481 219.09 13.0079C219.181 13.1897 219.3 13.3555 219.443 13.4987C219.606 13.6651 219.987 13.9419 220.612 13.9419C221.021 13.9419 221.456 13.804 221.701 13.5545C221.934 13.3089 222.07 12.9836 222.081 12.6418C222.083 12.323 221.965 12.0156 221.752 11.7828C221.736 11.7645 221.72 11.7463 221.703 11.73C221.382 11.4126 221.006 11.2229 220.585 11.0353L219.606 10.5637C219.09 10.3153 218.464 10.01 218.029 9.5668C217.432 8.98567 217.213 8.34979 217.213 7.60031C217.209 6.67678 217.549 5.78602 218.164 5.10748C218.681 4.55374 219.552 4 220.966 4C221.782 4 222.435 4.16632 223.088 4.6085C223.415 4.82328 223.707 5.08804 223.954 5.39348C224.018 5.47025 224.064 5.5598 224.091 5.65622C224.118 5.75264 224.124 5.85375 224.11 5.95291C224.096 6.05206 224.061 6.14701 224.008 6.23151C223.955 6.316 223.885 6.38813 223.803 6.44314L222.933 7.02832Z" fill="#005864"/>
<path d="M200.66 13.2381C200.7 13.2608 200.735 13.2915 200.763 13.3284C200.791 13.3652 200.812 13.4076 200.823 13.4527C200.835 13.4979 200.837 13.5449 200.83 13.591C200.823 13.6371 200.807 13.6813 200.783 13.7209C200.335 14.4499 199.738 15.0724 199.034 15.5464C198.109 16.1549 196.885 16.4328 195.661 16.4328C194.138 16.4328 192.887 16.0454 191.799 14.9369C190.711 13.8284 190.113 12.2229 190.113 10.4745C190.113 8.67435 190.738 6.92998 191.935 5.68356C192.887 4.71401 194.138 4.10449 195.771 4.10449C197.592 4.10449 198.758 4.90772 199.442 5.62575C200.445 6.6256 201.017 7.98896 201.036 9.41774C201.036 9.41774 201.135 10.8376 199.94 10.8376L193.205 10.8873C193.158 10.8873 193.11 10.898 193.067 10.9184C193.024 10.9389 192.986 10.9687 192.955 11.0058C192.924 11.0428 192.902 11.0863 192.889 11.1331C192.877 11.1799 192.875 11.2289 192.883 11.2767C193.005 11.9988 193.333 12.7493 193.816 13.2412C194.441 13.8781 195.203 13.9896 195.855 13.9896C196.59 13.9896 197.134 13.8233 197.678 13.4075C198.031 13.126 198.336 12.7859 198.579 12.4014C198.626 12.33 198.698 12.2793 198.78 12.2596C198.862 12.2398 198.949 12.2525 199.022 12.295L200.66 13.2381ZM197.891 8.67435C197.945 8.67439 197.998 8.6613 198.046 8.63618C198.094 8.61105 198.136 8.57461 198.167 8.52989C198.198 8.48516 198.219 8.43344 198.227 8.37902C198.235 8.32459 198.23 8.26904 198.212 8.21696C198.073 7.79068 197.834 7.40556 197.515 7.09529C197.162 6.76366 196.591 6.431 195.723 6.431C194.798 6.431 194.2 6.81842 193.847 7.17845C193.554 7.46755 193.325 7.81763 193.177 8.20479C193.157 8.25704 193.15 8.31352 193.156 8.3693C193.162 8.42508 193.182 8.47846 193.213 8.52478C193.244 8.5711 193.286 8.60895 193.335 8.63503C193.384 8.6611 193.438 8.6746 193.493 8.67435L197.891 8.67435Z" fill="#005864"/>
<path d="M258.893 4L253.253 4C253.071 4.00016 252.892 4.04602 252.732 4.13353C252.572 4.22104 252.435 4.3475 252.334 4.50176L251.001 6.54005C250.88 6.72528 250.815 6.94292 250.815 7.16555C250.815 7.38818 250.88 7.60583 251.001 7.79106L251.05 7.86639C251.151 8.02094 251.288 8.14766 251.449 8.2353C251.609 8.32295 251.788 8.36881 251.97 8.36881C252.152 8.36881 252.331 8.32295 252.492 8.2353C252.652 8.14766 252.789 8.02094 252.89 7.86639L253.917 6.29482C253.955 6.23707 254.006 6.18967 254.066 6.15682C254.125 6.12397 254.192 6.10668 254.26 6.10648H256.036C256.111 6.10648 256.184 6.12714 256.248 6.16627C256.312 6.2054 256.365 6.26152 256.4 6.32867C256.435 6.39582 256.452 6.47147 256.448 6.54756C256.445 6.62366 256.421 6.69736 256.38 6.7608L253.006 11.9336C252.969 11.9913 252.918 12.0386 252.858 12.0714C252.798 12.1041 252.731 12.1213 252.663 12.1213C252.595 12.1213 252.528 12.1041 252.468 12.0714C252.408 12.0386 252.357 11.9913 252.32 11.9336L247.47 4.50251C247.369 4.34792 247.232 4.22117 247.071 4.1335C246.911 4.04584 246.732 3.99998 246.55 4L240.92 4C240.037 4 239.51 5.00427 240 5.75389L248.986 19.4984C249.085 19.649 249.217 19.7732 249.373 19.8605C249.529 19.9478 249.702 19.9955 249.88 19.9997C250.057 20.0039 250.233 19.9644 250.392 19.8845C250.552 19.8046 250.69 19.6868 250.795 19.5409L251.959 17.7742C252.073 17.5886 252.134 17.374 252.134 17.1549C252.134 16.495 251.597 15.9597 250.935 15.9597C250.808 15.9596 250.682 15.9797 250.562 16.0192C250.445 16.0568 250.335 16.113 250.235 16.1857C250.186 16.2293 250.135 16.27 250.081 16.3077C250.041 16.3313 249.996 16.3459 249.95 16.3507C249.854 16.3591 249.757 16.3324 249.678 16.2754C249.633 16.244 249.593 16.2041 249.563 16.1578L243.433 6.76381C243.391 6.70037 243.368 6.62667 243.364 6.55058C243.361 6.47448 243.377 6.39883 243.413 6.33168C243.448 6.26454 243.5 6.20841 243.564 6.16928C243.628 6.13016 243.702 6.10949 243.776 6.10949L245.524 6.10949C245.592 6.10963 245.659 6.12689 245.719 6.15975C245.779 6.1926 245.83 6.24004 245.868 6.29784L251.281 14.5757L251.743 15.282C251.843 15.4365 251.98 15.5631 252.141 15.6507C252.301 15.7383 252.48 15.7841 252.662 15.7841C252.844 15.7841 253.023 15.7383 253.183 15.6507C253.344 15.5631 253.481 15.4365 253.581 15.282L254.043 14.5757L259.58 6.10874L259.812 5.75276C260.302 5.00389 259.776 4 258.893 4Z" fill="#005864"/>
</svg>
