<svg version="1.1" id="Layer_1" xmlns="http://www.w3.org/2000/svg" xmlns:xlink="http://www.w3.org/1999/xlink" x="0px" y="0px"
	 width="100%" viewBox="0 0 64 64" enable-background="new 0 0 64 64" xml:space="preserve">
<path fill="#FAFEFF" opacity="1.000000" stroke="none" 
	d="
M42.000156,65.000000 
	C28.000101,65.000000 14.500102,65.000000 1.000078,65.000000 
	C1.000052,43.666702 1.000052,22.333408 1.000026,1.000084 
	C22.333292,1.000056 43.666584,1.000056 64.999908,1.000028 
	C64.999939,22.333290 64.999939,43.666580 64.999969,64.999939 
	C57.500072,65.000000 50.000141,65.000000 42.000156,65.000000 
M43.141346,60.933636 
	C44.645401,60.227325 46.199463,59.610340 47.645699,58.800743 
	C60.631577,51.531334 66.245216,35.029533 60.470314,21.198561 
	C54.660027,7.282826 38.914047,-0.324883 24.679180,3.905984 
	C8.258826,8.786417 -0.988098,25.179497 3.743560,41.020943 
	C8.792052,57.923145 25.146173,66.433556 43.141346,60.933636 
z"/>
<path fill="#3FB6FB" opacity="1.000000" stroke="none" 
	d="
M42.756866,61.028191 
	C25.146173,66.433556 8.792052,57.923145 3.743560,41.020943 
	C-0.988098,25.179497 8.258826,8.786417 24.679180,3.905984 
	C38.914047,-0.324883 54.660027,7.282826 60.470314,21.198561 
	C66.245216,35.029533 60.631577,51.531334 47.645699,58.800743 
	C46.199463,59.610340 44.645401,60.227325 42.756866,61.028191 
M44.024235,20.367228 
	C37.611465,17.344238 35.274712,18.546953 30.702236,27.973316 
	C26.261747,25.791471 21.823280,23.610619 17.047054,21.263805 
	C16.863920,29.214697 17.278353,36.653072 24.655998,41.766281 
	C22.913204,42.792477 21.417433,43.673218 18.781969,45.225037 
	C21.231556,46.082569 22.617697,47.004131 23.987139,46.979950 
	C38.209991,46.728825 47.059372,38.405384 47.684319,24.513577 
	C47.738647,23.305944 45.754501,22.006605 44.024235,20.367228 
z"/>
<path fill="#F5FDFF" opacity="1.000000" stroke="none" 
	d="
M44.370731,20.558546 
	C45.754501,22.006605 47.738647,23.305944 47.684319,24.513577 
	C47.059372,38.405384 38.209991,46.728825 23.987139,46.979950 
	C22.617697,47.004131 21.231556,46.082569 18.781969,45.225037 
	C21.417433,43.673218 22.913204,42.792477 24.655998,41.766281 
	C17.278353,36.653072 16.863920,29.214697 17.047054,21.263805 
	C21.823280,23.610619 26.261747,25.791471 30.702236,27.973316 
	C35.274712,18.546953 37.611465,17.344238 44.370731,20.558546 
z"/>
</svg>