<svg xmlns="http://www.w3.org/2000/svg" width="366.008" height="193.612" viewBox="0 0 366.008 193.612"><defs><style>.a{fill:#fce0cd;}.b{fill:#fff;}.c{fill:#f9cbac;}.d{fill:#d9d9d9;}.e{fill:#89705d;}.f{fill:#645d5c;}</style></defs><path class="a" d="M150.951,36.26c-1.678.726-3.338,1.4-4.983,2.007l-.077.009c-3.924.49-9.47,1.8-13.488,2.7-5.389,1.2-10.27,3.818-14.278,4.759a48.274,48.274,0,0,1-9.028.909c-4.889-.01-16.453-1.872-22.083-2.909l-.886-.163c-2.309,16.516-12.751,66.086-18.391,84,2.111.167,5.277.445,9.666.945a41.282,41.282,0,0,1,8.04,1.92q.477.159.943.342s28.284,13.09,37.173,19.15c9.778,6.667,52.223,32.667,52.223,32.667a132.631,132.631,0,0,0,16.29,7.4,24.269,24.269,0,0,0,13.728.523c4.176-1.273,6.23-4.34,6.426-7.477l-.1-1.61c3.818,1.614,12.448,3.119,18.4-1.872,2.7-2.263,4.3-7.407,3.112-10.667l-.251-1.046c5.494,3.055,15.267,3.195,20.991-3.694,3.227-3.884,2.391-11.484-2.492-15.94l.566.384c8.252,2.683,15.852-1.111,18.371-5.333,2.4-4.021,3.445-10.669-1.477-15.909,4.663-3.024,10.482-6.008,15.382-9.024a114.728,114.728,0,0,1,12.188-6.713c-5.781-20.351-14.811-62.951-17.141-78.824-3.508.827-7.438,1.617-11.977,2.337-6.12,1.11-60.09-9.96-75.64-11.63C177.279,22.556,163.642,30.77,150.951,36.26Z"/><path class="a" d="M105.625,149.3a48.974,48.974,0,0,1,8.666-13.458,24.214,24.214,0,0,1,6.692-5.747,13.349,13.349,0,0,1,14.031,1.373c3.9,3.077,5.417,8.906,4.227,13.7s-10.285,18.406-15.79,21.82a12.422,12.422,0,0,1-10.547.85c-3.871-1.626-5.839-3.8-7.584-7.622C103.982,157.287,104.175,152.691,105.625,149.3Z"/><path class="a" d="M131.29,162.7a47.446,47.446,0,0,1,7.293-13.684,23.444,23.444,0,0,1,6-6.082,12.931,12.931,0,0,1,13.654.206c4.007,2.66,5.94,8.166,5.173,12.886s-8.461,18.589-13.5,22.324a12.033,12.033,0,0,1-10.114,1.662c-3.866-1.261-5.94-3.206-7.929-6.754C130.341,170.536,130.16,166.084,131.29,162.7Z"/><path class="a" d="M153.413,180.3c.774-4.29,3.961-11.761,7.392-14.79a10.567,10.567,0,0,1,11.238-1.452c3.606,1.709,5.4,6.757,5.333,10.724s-3.117,12.5-6.815,16.16a9.982,9.982,0,0,1-8.108,2.566,10.6,10.6,0,0,1-7.313-4.6A11.912,11.912,0,0,1,153.413,180.3Z"/><path class="a" d="M81.1,144.376c-1.232-3.191-.216-8.767,1.817-11.281,3.282-4.058,10.525-3.076,14.434-.621,2.881,1.81,6.7,5.868,7.553,7.859,2.584,5.41.026,10.155-1.887,11.637-2.245,1.739-7.745,2.312-10.549,1.867A15.386,15.386,0,0,1,81.1,144.376Z"/><path class="b" d="M285.734,26.032c3.093-.982,6.592-2.03,8.968-2.714,0,0,.108-.031.31-.092,7.619,31,14,70.878,20.465,94.42-.286.082-.435.127-.435.127-4.037,1.22-10.274,2.158-14.953,3.388-5.235-11.376-20.06-81.086-20.849-92.829A61.021,61.021,0,0,1,285.734,26.032Z"/><path class="b" d="M50.744,128.257c6.394-23.626,12.711-62.946,20.242-93.6.2.036.319.053.319.053,4.71,1.356,13.538,4.157,15.251,5.091-.789,11.744-15.4,81.376-20.638,92.752-4.678-1.231-10.915-2.169-14.952-3.388,0,0-.15-.046-.435-.13Q50.637,128.651,50.744,128.257Z"/><path class="c" d="M185.992,64.319c-2.939-.591-6.078-.1-9,.327a57.457,57.457,0,0,0-11.037,2.663,16.442,16.442,0,0,0-5.107,2.5c-1.62,1.37-2.425,3.655-3.355,5.512-1.836,3.667-3.619,7.377-5.814,10.849a35.31,35.31,0,0,1-7.648,8.713,11.8,11.8,0,0,1-4.492,2.563,18.866,18.866,0,0,1-5.512.539c-2.97-.125-7.072-2.229-7.209-5.9-.093-2.494.236-5.063.305-7.562.06-2.192.095-4.385.138-6.578.088-4.5.245-8.991.77-13.462.583-4.963,1.143-10.706,4.088-14.894a2.421,2.421,0,0,0-.861-3.284,2.449,2.449,0,0,0-3.283.861c-2.909,4.136-3.66,9.448-4.355,14.339a117.528,117.528,0,0,0-1.078,13.036c-.138,4.628-.16,9.258-.353,13.885-.109,2.587-.384,4.97.706,7.4a11.954,11.954,0,0,0,4.574,5.054c3.652,2.309,8.26,2.234,12.361,1.418,4.2-.836,7.663-3.745,10.589-6.75a47.234,47.234,0,0,0,7.356-10.276c1.024-1.861,1.979-3.758,2.928-5.657q.728-1.457,1.457-2.911a16.426,16.426,0,0,1,1.578-3.029,5.6,5.6,0,0,1,2.077-1.189c.847-.362,1.857-.71,2.787-1.008a58.491,58.491,0,0,1,6.4-1.632,51.375,51.375,0,0,1,5.9-.863c.827-.068,1.657-.114,2.487-.109.305,0,.609.016.914.03.148.007.3.024.445.038-.312-.031-.383-.06-.033.01a2.459,2.459,0,0,0,2.952-1.676,2.423,2.423,0,0,0-1.676-2.952Z"/><path class="c" d="M253.66,146.517c-9.782-6.625-19.466-13.4-29.111-20.222a2.42,2.42,0,0,0-3.284.861,2.45,2.45,0,0,0,.861,3.283c9.645,6.822,19.33,13.6,29.111,20.222,2.564,1.737,4.969-2.42,2.423-4.144Z"/><path class="c" d="M184.713,68.944c.1.038.206.08.309.118.4.144-.351-.162-.206-.09.241.12.492.221.735.339.506.247,1,.516,1.491.794,1.307.743,2.573,1.558,3.827,2.388,4,2.65,7.906,5.46,11.824,8.236,12.8,9.071,25.756,17.93,38.373,27.258,7.795,5.762,15.47,11.685,22.941,17.862a2.467,2.467,0,0,0,3.394,0,2.419,2.419,0,0,0,0-3.394c-13.211-10.923-27.033-21.09-41.051-30.946-10.673-7.5-21.238-15.207-32.061-22.5a40.024,40.024,0,0,0-8.3-4.7,2.421,2.421,0,0,0-2.952,1.676,2.45,2.45,0,0,0,1.676,2.952Z"/><path class="c" d="M204.57,152.291c8.913,5.958,17.993,11.7,27.111,17.333,2.635,1.629,5.049-2.521,2.423-4.144-9.119-5.636-18.2-11.375-27.111-17.334-2.575-1.721-4.981,2.435-2.423,4.145Z"/><path class="c" d="M189.015,169.624c6.765,4.462,13.531,8.948,20.475,13.128,2.654,1.6,5.07-2.552,2.423-4.145-6.944-4.18-13.71-8.666-20.476-13.127a2.4,2.4,0,1,0-2.422,4.144Z"/><path class="d" d="M70.667,37.025q4.317,1.247,8.587,2.651c1.329.435,2.656.878,3.972,1.352.521.187,1.038.383,1.555.583.612.237-.418-.2.092.036.158.075.316.146.471.228L84.156,39.8c-.05.715-.128,1.428-.214,2.139-.025.208-.053.416-.079.624-.083.668.077-.526-.022.166-.077.541-.153,1.083-.235,1.624-.38,2.532-.811,5.056-1.258,7.576-1.224,6.9-2.58,13.768-3.987,20.628C75.3,87.5,72.049,102.421,68.178,117.172c-.779,2.968-1.586,5.93-2.486,8.864-.339,1.108-.692,2.212-1.076,3.306-.163.461-.33.921-.508,1.376-.078.2-.163.393-.239.592.2-.528.14-.324-.023.032l2.71-1.1c-4.946-1.282-10.049-1.935-14.952-3.387-2.968-.88-4.236,3.751-1.276,4.628,4.9,1.453,10.006,2.106,14.952,3.388a2.431,2.431,0,0,0,2.711-1.1,83.383,83.383,0,0,0,4.187-12.957c1.858-6.877,3.515-13.807,5.113-20.748,3.43-14.9,6.606-29.867,9.336-44.908A141.446,141.446,0,0,0,88.956,39.8a2.352,2.352,0,0,0-1.189-2.072,45,45,0,0,0-6.914-2.577Q76.424,33.7,71.943,32.4c-2.973-.859-4.242,3.772-1.276,4.629Z"/><path class="d" d="M294.064,21q-4.538,1.309-9.042,2.737a44.907,44.907,0,0,0-6.993,2.518,2.35,2.35,0,0,0-1.189,2.073A123.7,123.7,0,0,0,278.8,41.493c1.244,6.951,2.627,13.876,4.061,20.79,3.127,15.078,6.439,30.145,10.389,45.031,1.339,5.047,2.593,10.289,4.771,15.058a2.42,2.42,0,0,0,2.71,1.1c4.947-1.282,10.05-1.935,14.953-3.388,2.955-.875,1.7-5.509-1.276-4.628-4.9,1.452-10.006,2.1-14.953,3.387l2.711,1.1a2.11,2.11,0,0,0-.188-.422c.431.544.129.316.007,0-.156-.4-.311-.8-.458-1.21-.343-.951-.659-1.912-.964-2.876-.782-2.476-1.487-4.977-2.168-7.483-1.844-6.792-3.5-13.636-5.092-20.491-3.457-14.851-6.661-29.777-9.424-44.774-.553-3-1.087-6.012-1.559-9.03q-.144-.924-.279-1.85c-.037-.257-.071-.515-.108-.773-.067-.461.062.524-.028-.212-.1-.832-.2-1.664-.261-2.5L280.452,30.4a1.968,1.968,0,0,1,.441-.207c-.622.131-.115.049.058-.014.5-.18.992-.367,1.492-.542,1.383-.481,2.777-.931,4.173-1.372q4.344-1.375,8.724-2.637c2.963-.854,1.7-5.488-1.276-4.628Z"/><path class="c" d="M107.7,150.516a47.624,47.624,0,0,1,7.426-11.982c2.721-3.19,5.823-6.729,10.217-7.332,3.732-.512,7.927.933,10.025,4.173a11.718,11.718,0,0,1,1.334,9.912,29.771,29.771,0,0,1-2.692,5.3,79.082,79.082,0,0,1-4.653,6.908,2.416,2.416,0,0,0,.861,3.284,2.458,2.458,0,0,0,3.284-.861c2.985-3.989,5.942-8.3,7.7-13A16.408,16.408,0,0,0,139.96,133.7a14.854,14.854,0,0,0-12.145-7.349c-5.5-.384-10.109,2.383-13.787,6.235a53.261,53.261,0,0,0-10.476,15.506,2.48,2.48,0,0,0,.861,3.284,2.419,2.419,0,0,0,3.284-.861Z"/><path class="c" d="M140.655,150.226c2.412-3.18,5.221-6.263,9.424-6.69a9.709,9.709,0,0,1,9.348,4.239,11.224,11.224,0,0,1,1.236,9.305,52.5,52.5,0,0,1-5.748,11.367c-1.642,2.627,2.509,5.039,4.145,2.423,3.886-6.214,8.347-13.557,6.368-21.152a14.725,14.725,0,0,0-6.306-8.861,15.449,15.449,0,0,0-11.787-1.674c-4.782,1.231-7.958,4.841-10.825,8.621a2.414,2.414,0,0,0,.861,3.283,2.459,2.459,0,0,0,3.284-.861Z"/><path class="c" d="M162.5,167.2c.222-.181.249-.209.082-.086.129-.1.262-.191.4-.281.235-.158.478-.3.727-.44a8.046,8.046,0,0,1,.763-.375c-.344.142.488-.155.569-.179a7.007,7.007,0,0,1,2.988-.366,4.22,4.22,0,0,1,1.3.176c.317.073.632.16.941.263.072.024.7.264.338.11a6.416,6.416,0,0,1,1.3.747c-.415-.3.251.242.321.31.18.175.346.363.514.549.072.082.141.166.209.251-.153-.2-.148-.183.017.042.159.251.328.493.477.751.113.195.221.393.322.594.039.076.4.887.228.463a17.3,17.3,0,0,1,.86,3.076q.066.432.012.028c.014.11.026.22.037.33.025.254.045.508.057.763a11.787,11.787,0,0,1-.023,1.515c-.014.161-.031.321-.051.481.027-.217.018-.171-.028.136-.053.276-.1.553-.158.828-.171.813-.388,1.614-.624,2.409a2.4,2.4,0,1,0,4.629,1.276,19.672,19.672,0,0,0,1.018-7.189,17.749,17.749,0,0,0-1.762-6.437,11.063,11.063,0,0,0-4.338-4.774,12.6,12.6,0,0,0-6.824-1.484,12.956,12.956,0,0,0-7.695,3.119,2.421,2.421,0,0,0,0,3.394,2.449,2.449,0,0,0,3.394,0Z"/><path class="c" d="M88.255,132.82a13.157,13.157,0,0,1,3.2.043,16.338,16.338,0,0,1,3.036.823,13.483,13.483,0,0,1,4.5,3.152c2.776,2.62,4.968,5.2,4.538,9.328a2.416,2.416,0,0,0,2.4,2.4,2.454,2.454,0,0,0,2.4-2.4,12.846,12.846,0,0,0-1.71-7.729,24.148,24.148,0,0,0-4.234-4.993,20.048,20.048,0,0,0-5.724-4.012,17.075,17.075,0,0,0-8.4-1.412,2.468,2.468,0,0,0-2.4,2.4,2.417,2.417,0,0,0,2.4,2.4Z"/><path class="c" d="M224.549,126.3l-.073-.055.485.375a8.638,8.638,0,0,1-1.5-1.523l.375.486a15.179,15.179,0,0,1-1.9-3.348l.242.573a17.441,17.441,0,0,1-.6-1.667,2.505,2.505,0,0,0-1.1-1.434,2.4,2.4,0,0,0-3.525,2.71,20.354,20.354,0,0,0,1.606,3.826,16.222,16.222,0,0,0,1.542,2.285,10.626,10.626,0,0,0,2.029,1.916,2.4,2.4,0,0,0,1.849.242,2.4,2.4,0,0,0,1.677-2.952l-.242-.573a2.416,2.416,0,0,0-.861-.861Z"/><path class="e" d="M.751,128.071c14.09,3.521,36.882,9.368,45.544,11.409a.99.99,0,0,0,1.162-.62c7.8-21.213,15.168-71.393,24.378-107.6a.984.984,0,0,0-.677-1.2C60.3,26.854,24.664,17.536,2.215,11.428a1,1,0,0,0-1.255.959L0,127.1A.99.99,0,0,0,.751,128.071Z"/><path class="f" d="M365.257,116.679c-14.09,3.52-36.883,9.367-45.545,11.408a.99.99,0,0,1-1.162-.62c-7.8-21.213-15.168-71.392-24.377-107.6a.984.984,0,0,1,.677-1.2C305.712,15.462,341.344,6.143,363.793.036a.994.994,0,0,1,1.254.958l.961,114.708A.993.993,0,0,1,365.257,116.679Z"/></svg>