<svg version="1.1" id="Layer_1" xmlns="http://www.w3.org/2000/svg" xmlns:xlink="http://www.w3.org/1999/xlink" x="0px" y="0px"
	 width="100%" viewBox="0 0 64 64" enable-background="new 0 0 64 64" xml:space="preserve">
<path fill="#FFFFFF" opacity="1.000000" stroke="none" 
	d="
M65.000000,50.000000 
	C65.000000,54.976185 65.000000,59.952374 64.999969,64.933937 
	C43.666603,64.939316 22.333260,64.939316 1.000000,64.939316 
	C1.000000,60.234196 1.000000,55.589764 1.417512,50.516701 
	C5.945276,50.391579 10.059792,50.647312 14.164421,51.013786 
	C17.416487,51.304142 20.656425,51.730293 23.930122,52.318306 
	C23.958496,52.540462 23.934267,52.988201 23.657515,53.188698 
	C22.961462,54.915642 22.542164,56.442089 22.120867,58.369217 
	C22.735905,59.455975 23.334112,60.717499 23.972914,60.738403 
	C29.847816,60.930634 35.731747,60.980789 41.606094,60.819386 
	C42.114250,60.805424 42.572632,58.980034 43.034912,57.571766 
	C42.928619,55.738426 42.841549,54.329395 42.822212,52.604912 
	C42.933804,51.861603 42.977661,51.433746 43.488609,51.003399 
	C50.970470,50.667271 57.985233,50.333633 65.000000,50.000000 
z"/>
<path fill="#464655" opacity="1.000000" stroke="none" 
	d="
M65.000000,6.000000 
	C65.000000,18.020895 65.000000,30.041788 64.535538,42.600723 
	C54.415157,43.192261 44.759243,43.245758 34.678360,43.189144 
	C32.801025,43.152439 31.348665,43.225845 29.436981,43.252403 
	C19.651772,43.137035 10.325886,43.068520 1.000000,43.000000 
	C1.000000,30.979105 1.000000,18.958210 1.329873,6.465731 
	C2.448850,5.718309 3.237955,5.442471 4.345649,5.427813 
	C23.813229,5.777893 42.962215,5.866794 62.471916,5.975082 
	C63.555084,5.996313 64.277542,5.998157 65.000000,6.000000 
M42.119392,9.047380 
	C39.072151,9.097033 36.024910,9.146685 32.050297,9.078089 
	C24.245583,9.065724 16.440727,9.023703 8.636251,9.061044 
	C6.586421,9.070850 3.986735,8.494086 4.039002,12.798778 
	C4.079449,13.869920 4.119895,14.941063 4.019844,16.938538 
	C4.019844,24.528639 4.019844,32.118740 4.019844,39.753578 
	C23.257263,39.753578 42.038143,39.753578 60.839073,39.753578 
	C60.839073,31.584881 60.839073,23.798538 60.961941,15.264943 
	C60.919258,14.510301 60.876579,13.755658 60.956608,12.184737 
	C59.641941,11.137082 58.385033,9.287779 57.002064,9.188135 
	C52.366306,8.854126 47.685539,9.144785 42.119392,9.047380 
z"/>
<path fill="#BEC8DC" opacity="1.000000" stroke="none" 
	d="
M35.103333,43.299255 
	C44.759243,43.245758 54.415157,43.192261 64.535538,43.069382 
	C65.000000,45.041668 65.000000,47.083332 65.000000,49.562500 
	C57.985233,50.333633 50.970470,50.667271 43.101749,50.839073 
	C36.722908,50.479160 31.198526,50.219170 25.672388,50.173954 
	C25.087456,50.169170 24.492208,51.425098 23.901749,52.096149 
	C20.656425,51.730293 17.416487,51.304142 14.164421,51.013786 
	C10.059792,50.647312 5.945276,50.391579 1.417512,50.044037 
	C1.000000,47.958332 1.000000,45.916668 1.000000,43.437500 
	C10.325886,43.068520 19.651772,43.137035 29.507051,43.581024 
	C32.172905,47.187283 33.814507,46.603104 35.103333,43.299255 
z"/>
<path fill="#FFFFFF" opacity="1.000000" stroke="none" 
	d="
M4.027059,5.166634 
	C3.237955,5.442471 2.448850,5.718309 1.329873,5.997073 
	C1.000000,4.344669 1.000000,2.689339 1.000000,1.017004 
	C22.333330,1.017004 43.666664,1.017004 65.000000,1.022144 
	C65.000000,2.351548 65.000000,3.675812 65.000000,5.500038 
	C64.277542,5.998157 63.555084,5.996313 62.236980,5.603319 
	C42.436577,5.196990 23.231817,5.181812 4.027059,5.166634 
z"/>
<path fill="#B0BBD0" opacity="1.000000" stroke="none" 
	d="
M42.754478,52.920364 
	C42.841549,54.329395 42.928619,55.738426 42.561039,57.572594 
	C35.445210,57.988003 28.784039,57.978271 22.122866,57.968536 
	C22.542164,56.442089 22.961462,54.915642 24.131508,53.192951 
	C30.839663,52.971260 36.797070,52.945812 42.754478,52.920364 
z"/>
<path fill="#BEC6DD" opacity="1.000000" stroke="none" 
	d="
M22.120867,58.369217 
	C28.784039,57.978271 35.445210,57.988003 42.580261,57.996910 
	C42.572632,58.980034 42.114250,60.805424 41.606094,60.819386 
	C35.731747,60.980789 29.847816,60.930634 23.972914,60.738403 
	C23.334112,60.717499 22.735905,59.455975 22.120867,58.369217 
z"/>
<path fill="#96A5B9" opacity="1.000000" stroke="none" 
	d="
M42.822212,52.604912 
	C36.797070,52.945812 30.839663,52.971260 24.408260,52.992455 
	C23.934267,52.988201 23.958496,52.540462 23.930122,52.318306 
	C24.492208,51.425098 25.087456,50.169170 25.672388,50.173954 
	C31.198526,50.219170 36.722908,50.479160 42.634659,50.841564 
	C42.977661,51.433746 42.933804,51.861603 42.822212,52.604912 
z"/>
<path fill="#FFFFFF" opacity="1.000000" stroke="none" 
	d="
M60.839073,16.012196 
	C60.839073,23.798538 60.839073,31.584881 60.839073,39.753578 
	C42.038143,39.753578 23.257263,39.753578 4.019844,39.753578 
	C4.019844,32.118740 4.019844,24.528639 4.546978,16.471317 
	C23.662432,16.006796 42.250751,16.009497 60.839073,16.012196 
M33.640411,20.356979 
	C31.070549,20.675200 27.861254,17.996141 25.442043,22.532026 
	C25.442043,27.242296 25.442043,31.952564 25.442043,37.400616 
	C28.679102,36.873001 31.354536,36.436928 34.763168,36.000240 
	C35.496876,36.000492 36.230587,36.000744 37.535851,36.590893 
	C40.213959,36.710567 42.892071,36.830242 45.926464,36.965836 
	C45.926464,31.398064 45.926464,26.659035 45.921272,21.166843 
	C43.204250,17.465252 40.392120,18.307045 36.865891,20.996981 
	C35.965107,20.996477 35.064327,20.995974 33.640411,20.356979 
M49.535282,23.460619 
	C49.356853,25.588594 49.041245,27.715508 49.024750,29.844738 
	C48.966450,37.369011 49.872627,38.032330 57.932407,36.178120 
	C57.932407,31.518484 57.932407,26.735485 57.903900,21.194792 
	C55.988766,20.500916 54.103382,19.511196 52.138340,19.313564 
	C51.623505,19.261786 50.861382,21.668804 49.535282,23.460619 
M21.914957,21.126888 
	C19.915678,19.166479 10.004362,17.886909 8.212183,19.630360 
	C7.632805,20.193983 8.084367,21.817362 7.441779,23.519667 
	C5.581984,36.353218 6.726232,37.816158 17.980713,36.995686 
	C18.144764,36.983727 18.381689,37.057034 18.463789,36.972801 
	C19.651340,35.754360 21.664528,34.617661 21.827736,33.262413 
	C22.277082,29.531130 21.949371,25.706270 21.914957,21.126888 
z"/>
<path fill="#FF646A" opacity="1.000000" stroke="none" 
	d="
M60.900505,15.638569 
	C42.250751,16.009497 23.662432,16.006796 4.617227,16.008150 
	C4.119895,14.941063 4.079449,13.869920 4.468091,12.399930 
	C5.630485,12.010745 6.363789,12.020409 7.323098,12.352901 
	C9.999473,12.773753 12.449841,12.871777 15.356300,12.978978 
	C21.542866,12.658276 27.273340,12.328396 33.443737,11.999070 
	C36.922016,11.665327 39.960369,11.331029 43.181602,11.329931 
	C44.364609,12.106298 45.354637,12.903539 46.366573,12.932387 
	C51.185749,13.069777 56.010883,12.998221 60.833897,13.001016 
	C60.876579,13.755658 60.919258,14.510301 60.900505,15.638569 
z"/>
<path fill="#FF6469" opacity="1.000000" stroke="none" 
	d="
M7.097093,12.030071 
	C6.363789,12.020409 5.630485,12.010745 4.530800,12.001051 
	C3.986735,8.494086 6.586421,9.070850 8.636251,9.061044 
	C16.440727,9.023703 24.245583,9.065724 32.520096,9.487049 
	C32.994537,10.596845 32.999176,11.297680 33.003815,11.998515 
	C27.273340,12.328396 21.542866,12.658276 15.131466,12.655876 
	C11.999392,12.225755 9.548242,12.127913 7.097093,12.030071 
z"/>
<path fill="#FF6469" opacity="1.000000" stroke="none" 
	d="
M60.895252,12.592876 
	C56.010883,12.998221 51.185749,13.069777 46.366573,12.932387 
	C45.354637,12.903539 44.364609,12.106298 43.183620,11.029764 
	C43.009174,9.996362 43.015591,9.596327 43.022007,9.196291 
	C47.685539,9.144785 52.366306,8.854126 57.002064,9.188135 
	C58.385033,9.287779 59.641941,11.137082 60.895252,12.592876 
z"/>
<path fill="#404060" opacity="1.000000" stroke="none" 
	d="
M4.345649,5.427813 
	C23.231817,5.181812 42.436577,5.196990 61.876270,5.583932 
	C42.962215,5.866794 23.813229,5.777893 4.345649,5.427813 
z"/>
<path fill="#EE6267" opacity="1.000000" stroke="none" 
	d="
M42.570702,9.121836 
	C43.015591,9.596327 43.009174,9.996362 43.000740,10.696564 
	C39.960369,11.331029 36.922016,11.665327 33.443737,11.999070 
	C32.999176,11.297680 32.994537,10.596845 32.983784,9.546173 
	C36.024910,9.146685 39.072151,9.097033 42.570702,9.121836 
z"/>
<path fill="#9BA2B5" opacity="1.000000" stroke="none" 
	d="
M34.678360,43.189144 
	C33.814507,46.603104 32.172905,47.187283 29.966377,43.627876 
	C31.348665,43.225845 32.801025,43.152439 34.678360,43.189144 
z"/>
<path fill="#DEE3ED" opacity="1.000000" stroke="none" 
	d="
M21.929066,21.918430 
	C21.949371,25.706270 22.277082,29.531130 21.827736,33.262413 
	C21.664528,34.617661 19.651340,35.754360 18.463789,36.972801 
	C18.381689,37.057034 18.144764,36.983727 17.980713,36.995686 
	C6.726232,37.816158 5.581984,36.353218 8.209068,23.255802 
	C13.293926,22.634104 17.611496,22.276266 21.929066,21.918430 
z"/>
<path fill="#DEE3ED" opacity="1.000000" stroke="none" 
	d="
M34.029972,36.000854 
	C31.354536,36.436928 28.679102,36.873001 25.442043,37.400616 
	C25.442043,31.952564 25.442043,27.242296 26.190823,22.302910 
	C29.268293,22.014864 31.596985,21.955931 33.949280,22.367558 
	C33.991913,27.225698 34.010941,31.613276 34.029972,36.000854 
z"/>
<path fill="#DEE3ED" opacity="1.000000" stroke="none" 
	d="
M45.926464,21.920004 
	C45.926464,26.659035 45.926464,31.398064 45.926464,36.965836 
	C42.892071,36.830242 40.213959,36.710567 37.263557,35.833443 
	C37.390614,31.023609 37.789959,26.971231 38.591530,22.917408 
	C41.304657,22.583977 43.615559,22.251989 45.926464,21.920004 
z"/>
<path fill="#DEE3ED" opacity="1.000000" stroke="none" 
	d="
M57.932407,21.952484 
	C57.932407,26.735485 57.932407,31.518484 57.932407,36.178120 
	C49.872627,38.032330 48.966450,37.369011 49.024750,29.844738 
	C49.041245,27.715508 49.356853,25.588594 50.269829,23.204075 
	C53.313721,22.615850 55.623062,22.284166 57.932407,21.952484 
z"/>
<path fill="#FFDC6B" opacity="1.000000" stroke="none" 
	d="
M21.922010,21.522659 
	C17.611496,22.276266 13.293926,22.634104 8.520348,22.973953 
	C8.084367,21.817362 7.632805,20.193983 8.212183,19.630360 
	C10.004362,17.886909 19.915678,19.166479 21.922010,21.522659 
z"/>
<path fill="#FEFEFE" opacity="1.000000" stroke="none" 
	d="
M38.189301,22.918852 
	C37.789959,26.971231 37.390614,31.023609 36.977783,35.538490 
	C36.230587,36.000744 35.496876,36.000492 34.396568,36.000549 
	C34.010941,31.613276 33.991913,27.225698 33.999100,22.139683 
	C34.025314,21.441248 34.163544,20.995470 34.163544,20.995470 
	C35.064327,20.995974 35.965107,20.996477 37.298477,21.320877 
	C37.883808,22.069466 38.036552,22.494158 38.189301,22.918852 
z"/>
<path fill="#A1DCF0" opacity="1.000000" stroke="none" 
	d="
M57.918152,21.573639 
	C55.623062,22.284166 53.313721,22.615850 50.608604,22.947079 
	C50.861382,21.668804 51.623505,19.261786 52.138340,19.313564 
	C54.103382,19.511196 55.988766,20.500916 57.918152,21.573639 
z"/>
<path fill="#FF979C" opacity="1.000000" stroke="none" 
	d="
M38.591526,22.917408 
	C38.036552,22.494158 37.883808,22.069466 37.636238,21.318096 
	C40.392120,18.307045 43.204250,17.465252 45.923866,21.543423 
	C43.615559,22.251989 41.304657,22.583977 38.591526,22.917408 
z"/>
<path fill="#B4E173" opacity="1.000000" stroke="none" 
	d="
M33.901978,20.676224 
	C34.163544,20.995470 34.025314,21.441248 33.975494,21.669123 
	C31.596985,21.955931 29.268293,22.014864 26.505615,22.022739 
	C27.861254,17.996141 31.070549,20.675200 33.901978,20.676224 
z"/>
<path fill="#FFDC69" opacity="1.000000" stroke="none" 
	d="
M7.323098,12.352901 
	C9.548242,12.127913 11.999392,12.225755 14.675375,12.646698 
	C12.449841,12.871777 9.999473,12.773753 7.323098,12.352901 
z"/>
</svg>