<svg version="1.1" id="Layer_1" xmlns="http://www.w3.org/2000/svg" xmlns:xlink="http://www.w3.org/1999/xlink" x="0px" y="0px"
	 width="100%" viewBox="0 0 64 64" enable-background="new 0 0 64 64" xml:space="preserve">
<path fill="#FFFFFF" opacity="1.000000" stroke="none" 
	d="
M65.000000,16.000000 
	C65.000000,32.285873 65.000000,48.571747 65.000000,64.928810 
	C43.776306,64.928810 22.552326,64.928810 1.000000,64.928810 
	C1.000000,52.647713 1.000000,40.292515 1.335232,27.584881 
	C5.307376,29.125559 8.859076,31.211718 12.602282,32.864029 
	C17.533785,35.040878 20.057356,38.336857 20.144266,43.974964 
	C20.200453,47.619980 21.606422,51.244194 22.586748,55.690609 
	C26.542971,53.210529 30.318245,51.309555 33.500927,48.688900 
	C35.710327,46.869648 37.183067,47.345970 39.078915,48.619984 
	C42.432339,50.873501 45.813671,53.085487 49.436428,55.482307 
	C50.152145,54.103653 50.673412,53.295998 51.011913,52.417889 
	C55.689304,40.284260 60.341576,28.140944 65.000000,16.000000 
z"/>
<path fill="#FFFFFF" opacity="1.000000" stroke="none" 
	d="
M1.000000,24.000000 
	C1.000000,16.370922 1.000000,8.741844 1.000000,1.056383 
	C22.333275,1.056383 43.666615,1.056383 64.999977,1.063690 
	C65.000000,4.056288 65.000000,7.041579 64.587540,10.508456 
	C43.116714,15.326694 22.058357,19.663347 1.000000,24.000000 
z"/>
<path fill="#4991FF" opacity="1.000000" stroke="none" 
	d="
M1.000000,24.375000 
	C22.058357,19.663347 43.116714,15.326694 64.587540,10.995021 
	C65.000000,12.388889 65.000000,13.777778 65.000000,15.583334 
	C60.341576,28.140944 55.689304,40.284260 51.011913,52.417889 
	C50.673412,53.295998 50.152145,54.103653 49.436428,55.482307 
	C45.813671,53.085487 42.432339,50.873501 39.078915,48.619984 
	C37.183067,47.345970 35.710327,46.869648 33.500927,48.688900 
	C30.318245,51.309555 26.542971,53.210529 22.586748,55.690609 
	C21.606422,51.244194 20.200453,47.619980 20.144266,43.974964 
	C20.057356,38.336857 17.533785,35.040878 12.602282,32.864029 
	C8.859076,31.211718 5.307376,29.125559 1.335232,27.116222 
	C1.000000,26.250000 1.000000,25.500000 1.000000,24.375000 
M9.620342,28.189735 
	C11.803311,29.366911 13.885485,30.837370 16.199680,31.632725 
	C18.217752,32.326305 20.925751,33.164185 22.590265,32.376801 
	C31.689922,28.072317 40.561630,23.285946 49.511684,18.665203 
	C47.934956,17.801237 46.384403,17.522621 44.974651,17.850113 
	C39.277012,19.173706 33.622753,20.684050 27.090733,22.007303 
	C20.224554,23.150307 13.358375,24.293310 6.492196,25.436312 
	C6.497902,25.838005 6.503609,26.239698 6.509316,26.641392 
	C7.358736,27.011803 8.208155,27.382214 9.620342,28.189735 
M53.475197,21.976040 
	C45.729637,27.673086 37.984077,33.370132 29.879339,39.331364 
	C36.134487,43.459457 41.901585,47.265457 48.210377,51.428951 
	C52.377850,40.076538 56.277046,29.454929 60.176243,18.833323 
	C59.814175,18.550018 59.452110,18.266716 59.090042,17.983414 
	C57.404865,19.165129 55.719685,20.346844 53.475197,21.976040 
M25.825705,41.327187 
	C27.364155,39.482628 28.661129,37.341377 30.489614,35.853172 
	C34.742970,32.391357 39.252499,29.244295 43.658222,25.969688 
	C39.057941,26.964066 35.101139,28.951012 31.147440,30.944109 
	C22.077091,35.516552 22.074875,35.518066 23.115982,45.471252 
	C23.135725,45.660015 23.475391,45.815308 23.916559,46.211315 
	C24.499582,44.713303 25.024675,43.364136 25.825705,41.327187 
M32.233566,45.795654 
	C31.291327,44.441322 30.349089,43.086990 28.816988,40.884815 
	C27.599382,44.656956 26.873262,46.906479 25.858435,50.050415 
	C28.375725,48.364250 30.014538,47.266521 32.233566,45.795654 
z"/>
<path fill="#D9E1F3" opacity="1.000000" stroke="none" 
	d="
M53.754852,21.752300 
	C55.719685,20.346844 57.404865,19.165129 59.090042,17.983414 
	C59.452110,18.266716 59.814175,18.550018 60.176243,18.833323 
	C56.277046,29.454929 52.377850,40.076538 48.210377,51.428951 
	C41.901585,47.265457 36.134487,43.459457 29.879339,39.331364 
	C37.984077,33.370132 45.729637,27.673086 53.754852,21.752300 
z"/>
<path fill="#E0E5F3" opacity="1.000000" stroke="none" 
	d="
M27.952478,22.125456 
	C33.622753,20.684050 39.277012,19.173706 44.974651,17.850113 
	C46.384403,17.522621 47.934956,17.801237 49.511684,18.665203 
	C40.561630,23.285946 31.689922,28.072317 22.590265,32.376801 
	C20.925751,33.164185 18.217752,32.326305 16.199680,31.632725 
	C13.885485,30.837370 11.803311,29.366911 9.593296,27.726257 
	C10.970930,26.839115 12.367789,26.387112 13.781718,25.996973 
	C18.502010,24.694525 23.228415,23.414234 27.952478,22.125456 
z"/>
<path fill="#9EBFF7" opacity="1.000000" stroke="none" 
	d="
M25.687737,41.671078 
	C25.024675,43.364136 24.499582,44.713303 23.916559,46.211315 
	C23.475391,45.815308 23.135725,45.660015 23.115982,45.471252 
	C22.074875,35.518066 22.077091,35.516552 31.147440,30.944109 
	C35.101139,28.951012 39.057941,26.964066 43.658222,25.969688 
	C39.252499,29.244295 34.742970,32.391357 30.489614,35.853172 
	C28.661129,37.341377 27.364155,39.482628 25.687737,41.671078 
z"/>
<path fill="#EDF3FD" opacity="1.000000" stroke="none" 
	d="
M27.521606,22.066380 
	C23.228415,23.414234 18.502010,24.694525 13.781718,25.996973 
	C12.367789,26.387112 10.970930,26.839115 9.311913,27.507702 
	C8.208155,27.382214 7.358736,27.011803 6.509316,26.641392 
	C6.503609,26.239698 6.497902,25.838005 6.492196,25.436312 
	C13.358375,24.293310 20.224554,23.150307 27.521606,22.066380 
z"/>
<path fill="#9EBFF7" opacity="1.000000" stroke="none" 
	d="
M31.943459,45.982224 
	C30.014538,47.266521 28.375725,48.364250 25.858435,50.050415 
	C26.873262,46.906479 27.599382,44.656956 28.816988,40.884815 
	C30.349089,43.086990 31.291327,44.441322 31.943459,45.982224 
z"/>
</svg>