<svg version="1.1" id="Layer_1" xmlns="http://www.w3.org/2000/svg" xmlns:xlink="http://www.w3.org/1999/xlink" x="0px" y="0px"
	 width="100%" viewBox="0 0 1458 1458" enable-background="new 0 0 1458 1458" xml:space="preserve">
<path fill="#FFFFFF" opacity="1.000000" stroke="none" 
	d="
M821.000000,1459.000000 
	C547.333374,1459.000000 274.166779,1459.000000 1.000110,1459.000000 
	C1.000073,973.000122 1.000073,487.000275 1.000037,1.000306 
	C486.999786,1.000204 972.999573,1.000204 1458.999512,1.000102 
	C1458.999756,486.999664 1458.999756,972.999329 1458.999878,1458.999512 
	C1246.500000,1459.000000 1034.000000,1459.000000 821.000000,1459.000000 
M769.742432,67.998520 
	C762.647034,67.665649 755.549133,67.007126 748.456787,67.062439 
	C729.025330,67.213959 709.577881,67.258797 690.172119,68.131126 
	C675.421509,68.794212 660.690979,70.368721 646.014038,72.075150 
	C631.905029,73.715546 617.648560,75.069710 603.860657,78.282257 
	C576.997375,84.541313 550.057312,90.892921 523.824341,99.310516 
	C500.067230,106.933632 477.013245,116.896561 454.004059,126.663666 
	C425.743988,138.659714 399.037781,153.734665 373.224701,170.325256 
	C351.238281,184.456390 329.756134,199.312210 309.978119,216.491562 
	C297.936981,226.950607 285.380096,236.861649 273.849121,247.852173 
	C253.250122,267.485687 233.410736,287.902252 216.004288,310.510590 
	C205.545258,324.095276 194.635162,337.389191 185.032791,351.562469 
	C173.355362,368.798523 162.655594,386.710297 151.867493,404.532288 
	C136.973312,429.137573 124.859306,455.196075 114.271538,481.849701 
	C106.075630,502.482056 99.152069,523.675049 92.742271,544.944153 
	C87.642105,561.867615 83.650162,579.176392 80.131096,596.510010 
	C76.759308,613.118225 74.245163,629.928833 72.064453,646.742615 
	C69.913048,663.330444 67.644577,680.009277 67.238533,696.692261 
	C66.644493,721.099304 67.402626,745.553284 68.111320,769.972046 
	C68.458916,781.948914 69.638329,793.934082 71.074768,805.839111 
	C73.089882,822.540161 74.615944,839.412537 78.292923,855.775269 
	C84.303520,882.522827 90.776260,909.271423 99.119263,935.359131 
	C106.769402,959.280518 116.636803,982.546387 126.459137,1005.705811 
	C138.380508,1033.814575 153.011078,1060.659546 169.896835,1086.044678 
	C184.430084,1107.893188 200.383591,1128.832275 216.374893,1149.662354 
	C225.970856,1162.161865 236.366028,1174.137085 247.247330,1185.541260 
	C267.121246,1206.370361 287.729401,1226.491943 310.612457,1244.093628 
	C324.202118,1254.546753 337.428192,1265.573730 351.688080,1275.030151 
	C371.751892,1288.335449 392.107178,1301.383057 413.290070,1312.769287 
	C435.917755,1324.932129 459.248505,1336.022827 483.021973,1345.749023 
	C505.053680,1354.762817 527.891235,1361.970215 550.720276,1368.818604 
	C568.428223,1374.131104 586.550720,1378.277222 604.709534,1381.807251 
	C621.203552,1385.013672 637.964722,1386.940430 654.664917,1388.962524 
	C668.675964,1390.659180 682.754761,1392.578857 696.828735,1392.800415 
	C721.247070,1393.184814 745.698975,1392.727783 770.109192,1391.852905 
	C784.692078,1391.330322 799.255737,1389.625854 813.766846,1387.929810 
	C827.874878,1386.280884 842.030701,1384.593262 855.942688,1381.809082 
	C883.975037,1376.199341 911.799805,1369.521118 938.784485,1359.968872 
	C957.753784,1353.254028 976.827515,1346.551025 995.075134,1338.149536 
	C1019.772400,1326.778442 1044.375977,1314.899414 1067.804321,1301.165039 
	C1089.816650,1288.260742 1110.774048,1273.361816 1131.221680,1258.041016 
	C1149.839600,1244.091187 1168.052490,1229.334229 1184.799561,1213.223755 
	C1204.209595,1194.551514 1222.318237,1174.444458 1240.051147,1154.138672 
	C1252.500854,1139.882568 1263.972412,1124.668945 1274.832886,1109.149536 
	C1297.766968,1076.377686 1317.851929,1041.855713 1333.837036,1005.148376 
	C1342.909058,984.316223 1351.702881,963.256470 1358.798340,941.698914 
	C1366.346558,918.765686 1372.443848,895.285217 1377.860840,871.741333 
	C1382.529541,851.449341 1385.860352,830.805420 1388.821655,810.179138 
	C1391.013550,794.912415 1392.695557,779.429688 1392.777832,764.033508 
	C1392.934814,734.675537 1394.552734,705.251770 1391.022583,675.950806 
	C1388.946411,658.719055 1387.558472,641.384033 1384.859863,624.253174 
	C1382.051392,606.425415 1378.777588,588.600403 1374.355835,571.115967 
	C1369.348755,551.316589 1363.582886,531.634460 1356.783447,512.382874 
	C1349.327393,491.272339 1341.093994,470.355652 1331.793091,449.996887 
	C1318.983643,421.957764 1304.418945,394.732025 1286.954224,369.252258 
	C1274.053467,350.430847 1260.830200,331.794159 1246.924927,313.710205 
	C1237.708130,301.723907 1227.389160,290.518097 1216.922607,279.576111 
	C1202.368408,264.360901 1187.824219,249.037262 1172.145630,235.024307 
	C1156.303711,220.865250 1139.260132,208.019791 1122.425049,195.010086 
	C1097.222412,175.534088 1070.070190,159.004837 1041.983521,144.103775 
	C1018.098083,131.431671 993.574463,120.088638 968.219666,110.502274 
	C944.038452,101.359673 919.537292,93.358971 894.497803,87.015152 
	C867.782654,80.246803 840.844727,74.588470 813.354614,71.967674 
	C799.136963,70.612221 784.913269,69.320328 769.742432,67.998520 
z"/>
<path fill="#009FE8" opacity="1.000000" stroke="none" 
	d="
M770.217346,67.999115 
	C784.913269,69.320328 799.136963,70.612221 813.354614,71.967674 
	C840.844727,74.588470 867.782654,80.246803 894.497803,87.015152 
	C919.537292,93.358971 944.038452,101.359673 968.219666,110.502274 
	C993.574463,120.088638 1018.098083,131.431671 1041.983521,144.103775 
	C1070.070190,159.004837 1097.222412,175.534088 1122.425049,195.010086 
	C1139.260132,208.019791 1156.303711,220.865250 1172.145630,235.024307 
	C1187.824219,249.037262 1202.368408,264.360901 1216.922607,279.576111 
	C1227.389160,290.518097 1237.708130,301.723907 1246.924927,313.710205 
	C1260.830200,331.794159 1274.053467,350.430847 1286.954224,369.252258 
	C1304.418945,394.732025 1318.983643,421.957764 1331.793091,449.996887 
	C1341.093994,470.355652 1349.327393,491.272339 1356.783447,512.382874 
	C1363.582886,531.634460 1369.348755,551.316589 1374.355835,571.115967 
	C1378.777588,588.600403 1382.051392,606.425415 1384.859863,624.253174 
	C1387.558472,641.384033 1388.946411,658.719055 1391.022583,675.950806 
	C1394.552734,705.251770 1392.934814,734.675537 1392.777832,764.033508 
	C1392.695557,779.429688 1391.013550,794.912415 1388.821655,810.179138 
	C1385.860352,830.805420 1382.529541,851.449341 1377.860840,871.741333 
	C1372.443848,895.285217 1366.346558,918.765686 1358.798340,941.698914 
	C1351.702881,963.256470 1342.909058,984.316223 1333.837036,1005.148376 
	C1317.851929,1041.855713 1297.766968,1076.377686 1274.832886,1109.149536 
	C1263.972412,1124.668945 1252.500854,1139.882568 1240.051147,1154.138672 
	C1222.318237,1174.444458 1204.209595,1194.551514 1184.799561,1213.223755 
	C1168.052490,1229.334229 1149.839600,1244.091187 1131.221680,1258.041016 
	C1110.774048,1273.361816 1089.816650,1288.260742 1067.804321,1301.165039 
	C1044.375977,1314.899414 1019.772400,1326.778442 995.075134,1338.149536 
	C976.827515,1346.551025 957.753784,1353.254028 938.784485,1359.968872 
	C911.799805,1369.521118 883.975037,1376.199341 855.942688,1381.809082 
	C842.030701,1384.593262 827.874878,1386.280884 813.766846,1387.929810 
	C799.255737,1389.625854 784.692078,1391.330322 770.109192,1391.852905 
	C745.698975,1392.727783 721.247070,1393.184814 696.828735,1392.800415 
	C682.754761,1392.578857 668.675964,1390.659180 654.664917,1388.962524 
	C637.964722,1386.940430 621.203552,1385.013672 604.709534,1381.807251 
	C586.550720,1378.277222 568.428223,1374.131104 550.720276,1368.818604 
	C527.891235,1361.970215 505.053680,1354.762817 483.021973,1345.749023 
	C459.248505,1336.022827 435.917755,1324.932129 413.290070,1312.769287 
	C392.107178,1301.383057 371.751892,1288.335449 351.688080,1275.030151 
	C337.428192,1265.573730 324.202118,1254.546753 310.612457,1244.093628 
	C287.729401,1226.491943 267.121246,1206.370361 247.247330,1185.541260 
	C236.366028,1174.137085 225.970856,1162.161865 216.374893,1149.662354 
	C200.383591,1128.832275 184.430084,1107.893188 169.896835,1086.044678 
	C153.011078,1060.659546 138.380508,1033.814575 126.459137,1005.705811 
	C116.636803,982.546387 106.769402,959.280518 99.119263,935.359131 
	C90.776260,909.271423 84.303520,882.522827 78.292923,855.775269 
	C74.615944,839.412537 73.089882,822.540161 71.074768,805.839111 
	C69.638329,793.934082 68.458916,781.948914 68.111320,769.972046 
	C67.402626,745.553284 66.644493,721.099304 67.238533,696.692261 
	C67.644577,680.009277 69.913048,663.330444 72.064453,646.742615 
	C74.245163,629.928833 76.759308,613.118225 80.131096,596.510010 
	C83.650162,579.176392 87.642105,561.867615 92.742271,544.944153 
	C99.152069,523.675049 106.075630,502.482056 114.271538,481.849701 
	C124.859306,455.196075 136.973312,429.137573 151.867493,404.532288 
	C162.655594,386.710297 173.355362,368.798523 185.032791,351.562469 
	C194.635162,337.389191 205.545258,324.095276 216.004288,310.510590 
	C233.410736,287.902252 253.250122,267.485687 273.849121,247.852173 
	C285.380096,236.861649 297.936981,226.950607 309.978119,216.491562 
	C329.756134,199.312210 351.238281,184.456390 373.224701,170.325256 
	C399.037781,153.734665 425.743988,138.659714 454.004059,126.663666 
	C477.013245,116.896561 500.067230,106.933632 523.824341,99.310516 
	C550.057312,90.892921 576.997375,84.541313 603.860657,78.282257 
	C617.648560,75.069710 631.905029,73.715546 646.014038,72.075150 
	C660.690979,70.368721 675.421509,68.794212 690.172119,68.131126 
	C709.577881,67.258797 729.025330,67.213959 748.456787,67.062439 
	C755.549133,67.007126 762.647034,67.665649 770.217346,67.999115 
M1119.672607,469.978149 
	C1119.421753,469.744385 1119.171021,469.510651 1117.998169,469.181183 
	C860.023743,469.173798 602.049316,469.166290 344.074890,469.163879 
	C343.076721,469.163849 342.078522,469.237610 340.567596,469.152740 
	C340.635651,469.523315 340.703705,469.893890 341.075226,470.857117 
	C357.022827,486.153046 372.980225,501.438751 388.916168,516.746826 
	C431.508514,557.661133 474.086090,598.590759 516.680481,639.502930 
	C541.399048,663.245178 566.149048,686.954712 590.866516,710.698059 
	C627.112000,745.515137 663.339233,780.351013 699.578003,815.174988 
	C709.619812,824.824768 719.674927,834.460754 729.878235,844.251160 
	C731.159607,843.148376 732.190063,842.343323 733.128418,841.442261 
	C763.615356,812.166382 794.100403,782.888611 824.570496,753.595215 
	C848.304871,730.777405 871.996582,707.915222 895.747131,685.114319 
	C939.207275,643.391846 982.718506,601.722473 1026.163208,559.983887 
	C1042.008057,544.761230 1057.691650,529.370850 1073.507935,514.118164 
	C1088.707764,499.459808 1103.984131,484.880707 1119.672607,469.978149 
M1146.796997,473.488525 
	C1146.199341,473.659912 1145.601685,473.831329 1144.440918,474.353851 
	C1117.580322,500.174927 1090.734131,526.011230 1063.855225,551.813171 
	C1032.051270,582.342957 1000.202148,612.825867 968.403748,643.361389 
	C941.395386,669.297180 914.442261,695.290405 887.444824,721.237488 
	C854.684631,752.723206 821.901917,784.185425 789.132019,815.660950 
	C772.106079,832.014465 755.103943,848.392761 738.053406,864.720581 
	C733.149353,869.416870 726.943420,869.510132 722.220215,864.983032 
	C694.228088,838.152649 666.253662,811.303833 638.290955,784.442810 
	C614.289185,761.386353 590.328308,738.287231 566.317810,715.239807 
	C540.390869,690.352722 514.409973,665.521729 488.486328,640.631226 
	C472.405670,625.191467 456.419250,609.653564 440.334045,594.218567 
	C414.540161,569.467346 388.688141,544.776733 362.882751,520.037598 
	C346.899292,504.714600 330.956665,489.349030 314.753113,473.444580 
	C314.261292,473.660736 313.769440,473.876892 313.181488,475.013275 
	C313.181488,655.435852 313.181488,835.858459 313.181488,1016.410156 
	C591.330078,1016.410156 868.971802,1016.410156 1146.841187,1016.410156 
	C1146.841187,1014.153748 1146.841187,1012.327637 1146.841187,1010.501526 
	C1146.841187,833.529602 1146.841675,656.557617 1146.836548,479.585693 
	C1146.836426,477.754395 1146.762085,475.923065 1146.796997,473.488525 
z"/>
<path fill="#FFFFFF" opacity="1.000000" stroke="none" 
	d="
M314.995728,474.002563 
	C330.956665,489.349030 346.899292,504.714600 362.882751,520.037598 
	C388.688141,544.776733 414.540161,569.467346 440.334045,594.218567 
	C456.419250,609.653564 472.405670,625.191467 488.486328,640.631226 
	C514.409973,665.521729 540.390869,690.352722 566.317810,715.239807 
	C590.328308,738.287231 614.289185,761.386353 638.290955,784.442810 
	C666.253662,811.303833 694.228088,838.152649 722.220215,864.983032 
	C726.943420,869.510132 733.149353,869.416870 738.053406,864.720581 
	C755.103943,848.392761 772.106079,832.014465 789.132019,815.660950 
	C821.901917,784.185425 854.684631,752.723206 887.444824,721.237488 
	C914.442261,695.290405 941.395386,669.297180 968.403748,643.361389 
	C1000.202148,612.825867 1032.051270,582.342957 1063.855225,551.813171 
	C1090.734131,526.011230 1117.580322,500.174927 1145.008667,474.198242 
	C1145.958374,474.058990 1146.340454,474.075378 1146.722412,474.091766 
	C1146.762085,475.923065 1146.836426,477.754395 1146.836548,479.585693 
	C1146.841675,656.557617 1146.841187,833.529602 1146.841187,1010.501526 
	C1146.841187,1012.327637 1146.841187,1014.153748 1146.841187,1016.410156 
	C868.971802,1016.410156 591.330078,1016.410156 313.181488,1016.410156 
	C313.181488,835.858459 313.181488,655.435852 313.516296,474.548828 
	C314.232666,474.057129 314.614197,474.029846 314.995728,474.002563 
z"/>
<path fill="#FFFFFF" opacity="1.000000" stroke="none" 
	d="
M341.080353,469.276917 
	C342.078522,469.237610 343.076721,469.163849 344.074890,469.163879 
	C602.049316,469.166290 860.023743,469.173798 1118.500854,469.487305 
	C1119.077881,469.951172 1119.152344,470.108978 1119.226807,470.266815 
	C1103.984131,484.880707 1088.707764,499.459808 1073.507935,514.118164 
	C1057.691650,529.370850 1042.008057,544.761230 1026.163208,559.983887 
	C982.718506,601.722473 939.207275,643.391846 895.747131,685.114319 
	C871.996582,707.915222 848.304871,730.777405 824.570496,753.595215 
	C794.100403,782.888611 763.615356,812.166382 733.128418,841.442261 
	C732.190063,842.343323 731.159607,843.148376 729.878235,844.251160 
	C719.674927,834.460754 709.619812,824.824768 699.578003,815.174988 
	C663.339233,780.351013 627.112000,745.515137 590.866516,710.698059 
	C566.149048,686.954712 541.399048,663.245178 516.680481,639.502930 
	C474.086090,598.590759 431.508514,557.661133 388.916168,516.746826 
	C372.980225,501.438751 357.022827,486.153046 341.036987,470.324829 
	C341.025940,469.620667 341.053162,469.448792 341.080353,469.276917 
z"/>
<path fill="#BFE7F9" opacity="1.000000" stroke="none" 
	d="
M314.874420,473.723572 
	C314.614197,474.029846 314.232666,474.057129 313.564362,474.088745 
	C313.769440,473.876892 314.261292,473.660736 314.874420,473.723572 
z"/>
<path fill="#BFE7F9" opacity="1.000000" stroke="none" 
	d="
M1146.759766,473.790161 
	C1146.340454,474.075378 1145.958374,474.058990 1145.290283,474.022675 
	C1145.601685,473.831329 1146.199341,473.659912 1146.759766,473.790161 
z"/>
<path fill="#BFE7F9" opacity="1.000000" stroke="none" 
	d="
M340.823975,469.214844 
	C341.053162,469.448792 341.025940,469.620667 340.885254,470.028503 
	C340.703705,469.893890 340.635651,469.523315 340.823975,469.214844 
z"/>
<path fill="#BFE7F9" opacity="1.000000" stroke="none" 
	d="
M1119.449707,470.122498 
	C1119.152344,470.108978 1119.077881,469.951172 1118.961914,469.535156 
	C1119.171021,469.510651 1119.421753,469.744385 1119.449707,470.122498 
z"/>
</svg>