<svg xmlns="http://www.w3.org/2000/svg" width="227.963" height="369.084" viewBox="0 0 227.963 369.084"><defs><style>.a{fill:#fce0cd;}.b{fill:#7a7473;}.c{fill:#efc0a0;}.d{fill:#645d5c;}.e{fill:#fff;}.f{fill:#b3b3b3;}.g{fill:#a0a0a0;}.h{fill:#d9d9d9;}.i{fill:#f4b3b3;}.j{fill:#e59898;}</style></defs><path class="a" d="M162.754,82.232a7.547,7.547,0,0,1,6.039-1.766,7.125,7.125,0,0,1,5.124,3.406,10.065,10.065,0,0,1,1.055,4.054,30.189,30.189,0,0,1-3.079,16,19.185,19.185,0,0,1-4.962,6.513,12.711,12.711,0,0,1-5.917,2.667l-1.013.157c-.485,1.817-1.031,3.348-1.3,4.161-1.82,4.939-12.474,22.718-25.572,27.654a67.458,67.458,0,0,0,1.067,11.64c.6,3.438.413,6.512,5.194,8.238.317.114,13.875,6.565,14.359,6.764,0,0-2.4,35.868-42.1,35.868s-44.357-35.131-44.357-35.131c.92-.314,16.041-7.387,16.358-7.5,4.78-1.726,4.592-4.8,5.194-8.238a66.755,66.755,0,0,0,1.062-12.2A43.977,43.977,0,0,1,74.919,132.51a51.331,51.331,0,0,1-9.786-19.1l-1.929-.3a12.711,12.711,0,0,1-5.917-2.667,19.2,19.2,0,0,1-4.963-6.513,30.188,30.188,0,0,1-3.078-16A10.065,10.065,0,0,1,50.3,83.872a7.125,7.125,0,0,1,5.124-3.406,7.548,7.548,0,0,1,6.039,1.766s1-42.936,49.592-42.936S162.754,82.232,162.754,82.232Z"/><path class="b" d="M54.068,39.576C61.348,16.469,84.781,0,111.761,0c30.906,0,51.531,17.073,58.469,44.254,1.914,7.5,3.747,24.929.126,36.629a7.2,7.2,0,0,0-1.563-.417,7.647,7.647,0,0,0-4.835.906,74.4,74.4,0,0,1-17.976-14.928c-6.185-6.851-11.445-15.666-14.222-20.555-8.667,7.333-14.873,10.778-29.144,18.435-17.412,9.343-38.96,16.2-41.634,16.454l-1.634.158a7.618,7.618,0,0,0-3.923-.47c-.065.009-.129.02-.193.031l-2.4-8.312c-2.4-5.443-1.9-18.553-.1-27.453A50.207,50.207,0,0,1,54.068,39.576Z"/><path class="c" d="M102.953,122.867a20.1,20.1,0,0,0,9.681,2.239c3.463-.023,6.969-.7,9.744-2.863a2.413,2.413,0,0,0,0-3.394,2.461,2.461,0,0,0-3.394,0c.72-.561.132-.112-.053.007s-.4.241-.6.349c-.159.083-.886.378-.253.141-.276.1-.55.211-.831.3a14.363,14.363,0,0,1-2.327.531c.337-.049-.141.012-.256.024-.229.023-.457.042-.686.056-.551.036-1.1.05-1.654.047-.494,0-.988-.02-1.481-.054-.226-.015-.452-.033-.678-.056,0,0-.8-.108-.363-.04a16.306,16.306,0,0,1-2.173-.483c-.305-.091-.6-.2-.9-.3-.1-.033-.192-.085-.291-.113.6.172.217.1.047.017-.372-.176-.74-.359-1.1-.552a2.453,2.453,0,0,0-3.284.861,2.427,2.427,0,0,0,.861,3.284Z"/><path class="c" d="M111.475,99.982a45.651,45.651,0,0,1,1.076,4.925l-.085-.638a3.035,3.035,0,0,1,.018.68l.086-.638a1.609,1.609,0,0,1-.075.306l.242-.573a1.2,1.2,0,0,1-.108.2l.375-.485a1,1,0,0,1-.161.158l.486-.375a3.154,3.154,0,0,1-.39.206l.573-.242a2.783,2.783,0,0,1-.657.192l.638-.085a2.653,2.653,0,0,1-.617,0l.638.086c-.233-.032-.461-.089-.694-.12a2.653,2.653,0,0,0-1.85.242,2.4,2.4,0,0,0-.861,3.283,2.3,2.3,0,0,0,1.435,1.1c.518.07,1.022.2,1.549.226a4.932,4.932,0,0,0,2.269-.538,3.246,3.246,0,0,0,1.808-2.144,5.418,5.418,0,0,0-.024-2.323c-.268-1.587-.635-3.16-1.043-4.716a2.4,2.4,0,0,0-4.628,1.276Z"/><path class="d" d="M85.31,86.067c-.822,2.673-.286,8.821,4.778,9.345,6.693-.04,7.049-7.474,4.8-10.97C93.039,81.58,87.615,80.39,85.31,86.067Z"/><path class="d" d="M138.907,86.067c.823,2.673.287,8.822-4.777,9.345-6.693-.041-7.049-7.475-4.8-10.97C131.178,81.58,136.6,80.39,138.907,86.067Z"/><path class="b" d="M51.4,116.5c1.6-2.766,4.037-5.042,7.612-4.886a12.185,12.185,0,0,0,4.189,1.493l1.929.3a51.343,51.343,0,0,0,9.786,19.1,43.824,43.824,0,0,0,15.19,12.107c-6.055,7.4-20.592,10.347-30.024,4.735-8.236-4.9-12.5-15.462-11.243-25.144A22.265,22.265,0,0,1,51.4,116.5Z"/><path class="e" d="M113.291,160.809l-31.441.4c1.706,5.741,3.71,14.685,8.264,27.732,7.335,21.015,17.387,44.467,22.8,56.15l.372.805a593.858,593.858,0,0,0,20.894-58.366,203,203,0,0,0,6.144-27.062Z"/><path class="f" d="M225.4,278.224c-2.273-9.844-10.237-33.547-13.508-45-3.9-13.652-11.04-39.662-18.614-45.182-2.153-1.718-4.573-2.582-6.992-3.9A391.79,391.79,0,0,0,147.6,165.2c-3.173-2.653-6.032-4.591-7.279-4.735a203,203,0,0,1-6.144,27.062,593.224,593.224,0,0,1-20.895,58.363l-.371-.8c-5.41-11.683-15.462-35.135-22.8-56.15-4.554-13.047-6.558-21.991-8.264-27.733-1.619.079-6.232,3.717-10.621,8-10.4,4.714-19.426,9.477-29.474,14.942-2.067,1.124-4.428,2.135-6.414,3.477-7.811,4.436-15.251,31.558-19.264,45.6-3.271,11.449-11.235,35.152-13.509,45C-.1,289.772-2.618,297.586,5.6,306.716c3.913,4.347,9.33,7.719,14.012,10.294,3.514,1.933,10.525,5.706,18.055,9.621,3.1,1.613,6.292,3.25,9.362,4.793-1.808,13.4-3.63,26.429-4.4,33.362,15.163,1.969,35.439,2.971,49.448,1.719a13.974,13.974,0,0,0,5.634-1.353,9.551,9.551,0,0,0,4.266-4.524c4.558-11.209,9.728-26.813,12.386-36.218l.308-.79c1.56,11.274,3.285,21.983,5.049,29.934.944,4.254,1.827,10.132,4.272,12.463,4.089,2.454,13.017,3.071,18.605,3.067,14.467-.011,31.717-1.84,42.75-4.632-.787-7.018-2.583-19.863-4.361-33.055,10.509-5.283,22.409-11.662,27.362-14.387,4.682-2.575,10.1-5.947,14.011-10.294C230.581,297.586,228.062,289.772,225.4,278.224ZM51.615,290.918c-4.739-2.777-9.078-5.472-11.886-7.315l.052-.377c.44-3.166,2.758-9.013,5.754-15.526.678-1.475,1.392-2.984,2.126-4.5,1.316,8.445,2.632,17,3.875,25.4A15.19,15.19,0,0,1,51.615,290.918Zm124.792-.026a14.871,14.871,0,0,1,.078-2.3c1.238-8.37,2.549-16.889,3.86-25.3.773,1.6,1.521,3.186,2.23,4.733,2.925,6.382,5.175,12.089,5.607,15.2,0,0,.019.134.053.377C185.438,285.438,181.123,288.12,176.407,290.892Z"/><path class="g" d="M49.477,259.365c-2.454-15.708-4.982-31.407-7.239-47.145q-.771-5.369-1.472-10.746a2.478,2.478,0,0,0-2.4-2.4,2.413,2.413,0,0,0-2.4,2.4c1.919,14.9,4.275,29.745,6.6,44.587q1.142,7.29,2.284,14.58a2.416,2.416,0,0,0,2.952,1.676,2.458,2.458,0,0,0,1.676-2.952Z"/><path class="e" d="M170.182,228.733h-22.01a1.5,1.5,0,0,0-1.5,1.5c.008,1.688.024,4.016.031,5.794a1.494,1.494,0,0,0,1.492,1.491c5.143.006,17.233.032,22,.038a1.493,1.493,0,0,0,1.5-1.5c0-1.967-.012-4.323-.011-5.827A1.5,1.5,0,0,0,170.182,228.733Z"/><path class="g" d="M183.262,260.066c2.468-15.785,5.009-31.561,7.265-47.377q.8-5.6,1.528-11.215a2.412,2.412,0,0,0-2.4-2.4,2.46,2.46,0,0,0-2.4,2.4c-1.851,14.374-4.139,28.693-6.38,43.01q-1.121,7.152-2.241,14.306a2.475,2.475,0,0,0,1.676,2.952,2.418,2.418,0,0,0,2.952-1.676Z"/><path class="h" d="M87.2,185.356a86.066,86.066,0,0,0,18.042,1.093,2.455,2.455,0,0,0,2.4-2.4,2.421,2.421,0,0,0-2.4-2.4,80.182,80.182,0,0,1-16.766-.921,2.479,2.479,0,0,0-2.952,1.676,2.417,2.417,0,0,0,1.676,2.952Z"/><path class="g" d="M154.118,171.286c-5.038-5.254-11.7-10.578-13.8-10.819a203,203,0,0,1-6.144,27.062c-6.637,22.278-16.181,48.038-22.583,62.192-3.02,6.541-3.7,8.722-3.565,13.22.025.847.243,3.627.62,7.763,8.8-10.716,19.614-23.887,19.614-23.887,12.559-20.628,29.474-48.392,29.41-48.817-.1-.646-5.766-7.5-7.14-9.512,2.969-2.662,9.528-9.1,9.385-9.474C159.151,177.024,156.878,174.165,154.118,171.286Z"/><path class="g" d="M62.378,179.965c2.893-5.965,16.438-18.61,19.472-18.757,1.706,5.741,3.71,14.685,8.264,27.732,7.335,21.015,17.387,44.467,22.8,56.15l.37.8q-.871,2.033-1.687,3.831c-1.014,2.2-1.764,3.9-2.307,5.366l-6.165-8.229c.4.494-38.644-48.285-38.768-48.858-.139-.638,5.5-7.092,7.139-8.99-2.968-2.663-9.527-8.06-9.384-8.431Q62.221,180.285,62.378,179.965Z"/><path class="g" d="M117.224,266.217c0-2.48,1.363-5.057,5.177-5.057,3.56.111,5,2.641,5,5.469a4.9,4.9,0,0,1-5.27,4.961C118.3,271.59,117.224,268.373,117.224,266.217Z"/><path class="i" d="M130.981,165.921a29.375,29.375,0,0,1-10.64,3.78c-10.24,1.66-22.808,1.073-27.8.818-6.663-.341-9.375-3.786-8.83-7.466,1.347-4.3,2.88-7.678,4.212-11.557a2.944,2.944,0,0,1,3.022-2.119,143.974,143.974,0,0,0,28.562.581c4.821-.434,9.809-2.634,13.834-2.019,2.623.4,2.735,3.248,3.662,7.754C137.795,159.567,135.307,163.244,130.981,165.921Z"/><path class="i" d="M131.018,156.425c-.809.347-1.363.753-1.516,1.339l-1.26.056c-3.911.072-12.842,1.058-16.4,3.3-4.791,3.014-3.227,6.326-1.181,11.751,1.049,2.782,1.959,5.795,3.565,7.714l-.219.269a2.389,2.389,0,0,0-.589,3.893c3.9,3.5,10.381,6.157,12.657,7.445a2.862,2.862,0,0,0,3.573-.6,29.166,29.166,0,0,0,3.4-5.377c2.335-4.882,4.228-8.314,6.227-12.312l.891-1.782,1.851,1.411A126.04,126.04,0,0,0,154,179.743a3.687,3.687,0,0,0,3.719-.695,46.648,46.648,0,0,0,9.481-8.526c1.538-1.772-.081-3.551-2.349-4.152l-.332-.205a3.76,3.76,0,0,0,.081-.9c.283-5.8-1.6-15.4-6.659-17.356-5.1-.741-13.024,4.3-18.382,6.985l-.538.421c-1.118-.725-3.671-.259-5.7.338A21.682,21.682,0,0,0,131.018,156.425Z"/><path class="i" d="M128.242,157.82c-3.911.072-12.842,1.058-16.4,3.3-3.589,2.258-3.612,4.683-2.537,8.039.36,1.124.843,2.352,1.356,3.712,1.871,4.96,3.3,10.659,9.019,9.57a35.2,35.2,0,0,0,7.965-2.587c3.335-1.361,7.57-5.287,8.8-6.376l3.47-4.312,11.385,1.034c2.862.511,6.864-.038,10.222-.716,2.509-.385,3.135-2.318,3.084-4.214.283-5.8-1.6-15.4-6.659-17.356-5.1-.741-13.024,4.3-18.382,6.985Z"/><path class="i" d="M135.518,155.13a20.535,20.535,0,0,0-2.194.526c-2.265.668-3.957,1.187-3.863,2.561.184,2.852,2.07,10.277,4.089,11.849,1.416.8,3.237.68,5.911.034a10.707,10.707,0,0,0,3.262-1.372c1.57-.754-2.137-12.5-3.832-13.485a5.859,5.859,0,0,0-3.373-.113"/><path class="j" d="M125.941,170.621c1.71-.66,3.363-1.449,5.032-2.2a2.4,2.4,0,0,0,1.1-1.434,2.447,2.447,0,0,0-.242-1.849,2.417,2.417,0,0,0-1.434-1.1l-.638-.086a2.385,2.385,0,0,0-1.211.328c-1.137.512-2.263,1.048-3.411,1.534l.573-.242c-.347.147-.7.29-1.048.425a2.69,2.69,0,0,0-1.434,1.1,2.449,2.449,0,0,0-.242,1.849,2.424,2.424,0,0,0,1.1,1.435,2.348,2.348,0,0,0,1.849.242Z"/><path class="j" d="M126.7,163.088a9.92,9.92,0,0,0,1.151,4.224,10.046,10.046,0,0,0,1.243,1.772,9.647,9.647,0,0,0,1.645,1.467,2.413,2.413,0,0,0,1.849.242,2.449,2.449,0,0,0,1.434-1.1,2.42,2.42,0,0,0,.242-1.85l-.242-.573a2.4,2.4,0,0,0-.861-.861c-.045-.033-.089-.067-.134-.1l.486.376a7.316,7.316,0,0,1-1.236-1.251l.375.485a7.612,7.612,0,0,1-.926-1.593l.242.573a7.349,7.349,0,0,1-.493-1.775l.086.638c-.03-.223-.05-.445-.061-.669a2.518,2.518,0,0,0-.7-1.7,2.4,2.4,0,0,0-4.1,1.7Z"/><path class="j" d="M139.606,160.531c.154.165.3.335.438.512l-.375-.485a7.169,7.169,0,0,1,.871,1.493l-.242-.574a7.452,7.452,0,0,1,.507,1.854l-.086-.638a7.13,7.13,0,0,1,0,1.823l.086-.638c-.023.16-.051.317-.084.475a2.548,2.548,0,0,0,.242,1.849,2.4,2.4,0,0,0,3.284.861,2.39,2.39,0,0,0,1.1-1.434A9.521,9.521,0,0,0,143,157.137a2.42,2.42,0,0,0-3.394,0,2.451,2.451,0,0,0,0,3.394Z"/><path class="j" d="M143.98,163.04c.7-.37,1.405-.74,2.136-1.051l-.574.242a10.441,10.441,0,0,1,1.687-.555,2.4,2.4,0,0,0,1.676-2.953,2.429,2.429,0,0,0-1.1-1.434,2.582,2.582,0,0,0-1.849-.242,18.645,18.645,0,0,0-4.4,1.849,2.4,2.4,0,0,0-.861,3.283,2.422,2.422,0,0,0,1.435,1.1,2.594,2.594,0,0,0,1.849-.242Z"/><path class="j" d="M111.083,166.537a11.441,11.441,0,0,1-.118-1.432c-.01-.416-.006-.033,0-.235,0-.089.181-.57.015-.165.179-.436.15-.314.524-.7a5.634,5.634,0,0,1,1.149-.931c2.043-1.252,4.478-1.6,6.792-2.039a53.214,53.214,0,0,1,7.456-.889,5.316,5.316,0,0,0,2.3-.418,7.419,7.419,0,0,0,1.628-1.371,3.343,3.343,0,0,1,2.783-1.063,2.418,2.418,0,0,0,2.4-2.4,2.45,2.45,0,0,0-2.4-2.4,7.417,7.417,0,0,0-4.694,1.27c-.5.336-1.682,1.049-1.93,1.66q-.4.375.4-.1c-.238.009-.477.019-.715.032-.379.019-.758.04-1.136.066a70.66,70.66,0,0,0-9.222,1.352c-2.927.6-5.934,1.551-8.093,3.728-2.129,2.146-2.189,4.47-1.763,7.312a2.416,2.416,0,0,0,2.952,1.676,2.46,2.46,0,0,0,1.677-2.952Z"/><path class="j" d="M122.222,184.285a38.02,38.02,0,0,0,10.655-5.264,2.455,2.455,0,0,0,.861-3.284,2.429,2.429,0,0,0-3.284-.861,35.887,35.887,0,0,1-4.76,2.874q-.642.322-1.3.618c-.164.074-.329.145-.493.218-.245.1-.22.095.078-.032-.111.046-.222.092-.333.136-.888.359-1.79.679-2.7.967a2.4,2.4,0,1,0,1.276,4.628Z"/><path class="j" d="M148.424,172.412a26.077,26.077,0,0,0,10.835-.338,2.424,2.424,0,0,0,1.676-2.952,2.449,2.449,0,0,0-2.952-1.677,11.89,11.89,0,0,1-2.318.458c.638-.024.039-.007-.083.006q-.271.032-.543.054-.589.052-1.18.072a22.637,22.637,0,0,1-2.271-.032c-.363-.023-.726-.055-1.087-.1-.121-.014-.241-.028-.361-.044l.278.037a4.631,4.631,0,0,1-.718-.117,2.6,2.6,0,0,0-1.85.242,2.4,2.4,0,0,0,.574,4.387Z"/><path class="a" d="M106.258,317.336c-3.407-2.181-11.693-2-15.7-3.385-.121-.042-.234-.093-.352-.138-2.1,6.13-8.1,19.246-11.865,26.289,2.186,1.566,4.441,2.993,6.548,4.621,0,0,8.02,5.431,14.052,6.248,4.2.57,15.026-3.271,17.786-15.333S106.258,317.336,106.258,317.336Z"/><path class="c" d="M101.723,326.111q-2.028-.783-4.1-1.439a2.4,2.4,0,0,0-2.952,1.676,2.429,2.429,0,0,0,.242,1.85,2.581,2.581,0,0,0,1.434,1.1q2.075.652,4.1,1.438a1.812,1.812,0,0,0,.957.043,1.778,1.778,0,0,0,.893-.285,2.4,2.4,0,0,0,.861-3.283l-.376-.486a2.4,2.4,0,0,0-1.059-.617Z"/><path class="a" d="M137.073,314.442c-5.641.739-10.311-.022-16.178-.333-3.14-.167-8.6,2.146-11.366,3.659-2.358,1.292-4.77,3.544-5.179,6.743,0,0-.164,3.516-.29,6.227-5.66,2.693-11.2,5.415-12.982,6.4a9.456,9.456,0,0,0-3.474,2.984c-1.225,1.82-1.516,4.751,1.361,5.556l.635.178-.908.408c-1.792.806-2.927,2.9-1.594,4.772,1.2,1.693,3.311,1.938,5.2,1.624l1.921-.32-.2.35a6.2,6.2,0,0,0-.874,3.353c.142,1.688,2.371,2.563,4.007,2.527a22.753,22.753,0,0,0,5.622-1.72l.477-.189-1.007,1.061c-1.65,1.738.763,4.521,3.918,4.176a29.349,29.349,0,0,0,6.644-1.635c3.11-1.193,11.541-4.9,19.193-8.962a126.682,126.682,0,0,0,11.9-7.54q2.544-1.69,4.905-3.6A252.486,252.486,0,0,1,137.073,314.442Z"/><path class="c" d="M116.456,322.473c-5.352,2.191-10.57,4.731-15.781,7.231-2.571,1.234-5.138,2.478-7.688,3.753-2.254,1.127-4.71,2.2-6.418,4.116-3.019,3.38-3.19,8.817,1.758,10.415,2.946.952,4.208-3.681,1.276-4.628a1.086,1.086,0,0,1-.4-.19c-.223-.155.057.193-.034-.035-.152-.377.037.287-.042-.116a1.6,1.6,0,0,1,0-.391c-.017.224.137-.542.188-.673a6.806,6.806,0,0,1,2.83-2.667c1.479-.832,3.017-1.566,4.536-2.317q7.353-3.638,14.8-7.077,1.829-.846,3.667-1.67.82-.368,1.646-.726l.633-.272c.324-.138-.383.161-.076.033l.381-.157a2.478,2.478,0,0,0,1.676-2.952,2.416,2.416,0,0,0-2.952-1.677Z"/><path class="c" d="M88.844,343.563c-.349.161-.7.322-1.047.482a6.3,6.3,0,0,0-.876.45,6.5,6.5,0,0,0-1.233,1.01,8.775,8.775,0,0,0-.655.832,3.568,3.568,0,0,0-.276.46,1.774,1.774,0,0,0-.285.892,2.463,2.463,0,0,0,1.146,2.392,2.427,2.427,0,0,0,1.849.242,2.4,2.4,0,0,0,1.434-1.1,3.737,3.737,0,0,1,.365-.579l-.375.485a4.045,4.045,0,0,1,.67-.67l-.485.376a4.989,4.989,0,0,1,1.02-.586q.586-.267,1.17-.538a2.314,2.314,0,0,0,1.146-2.392,1.783,1.783,0,0,0-.284-.892,2.422,2.422,0,0,0-1.435-1.1l-.638-.086a2.4,2.4,0,0,0-1.211.328Z"/><path class="g" d="M150.826,346.028a15.913,15.913,0,0,0,4.311-1.094c2.294-.774,4.561-1.628,6.819-2.5,4.605-1.778,9.229-3.6,13.683-5.73a2.422,2.422,0,0,0,.861-3.284,2.452,2.452,0,0,0-3.284-.861c-4.157,1.993-8.129,3.544-12.536,5.246-2.191.846-4.391,1.674-6.614,2.43-.769.262-1.541.518-2.321.741-.3.085-.6.158-.9.235a2.675,2.675,0,0,0-.3.06c-.357.142.723-.062.274-.044-3.079.122-3.094,4.923,0,4.8Z"/><path class="g" d="M168.783,292.5c-9.355,5.207-19.21,9.331-28.829,14.01a52.758,52.758,0,0,0-5.084,2.669c-2.607,1.642-.2,5.8,2.423,4.144a97.791,97.791,0,0,1,10.934-5.441c4.508-2.1,9.045-4.138,13.532-6.284,3.208-1.534,6.34-3.224,9.447-4.954,2.7-1.5.282-5.649-2.423-4.144Z"/><path class="g" d="M76.135,341.5c-.446-.019.619.2.276.041a2.135,2.135,0,0,0-.29-.063c-.292-.082-.584-.159-.873-.249-.755-.236-1.5-.507-2.241-.784-2.027-.757-4.166-1.636-6.068-2.438-3.992-1.683-8.2-3.528-12.192-5.448a2.464,2.464,0,0,0-3.283.861,2.422,2.422,0,0,0,.861,3.284c4.334,2.082,8.75,4,13.181,5.866,2.126.894,4.259,1.776,6.422,2.577a14.24,14.24,0,0,0,4.207,1.153c3.089.127,3.083-4.673,0-4.8Z"/><path class="g" d="M53.722,294.926c9.967,5.7,20.407,10.454,30.6,15.731,1.8.934,3.633,1.852,5.351,2.937,2.619,1.654,5.03-2.5,2.422-4.145-3.629-2.292-7.606-4.108-11.439-6.024-4.448-2.224-8.921-4.4-13.369-6.622-3.775-1.889-7.474-3.926-11.138-6.022-2.686-1.536-5.107,2.61-2.423,4.145Z"/></svg>