<svg version="1.1" id="Layer_1" xmlns="http://www.w3.org/2000/svg" xmlns:xlink="http://www.w3.org/1999/xlink" x="0px" y="0px"
	 width="100%" viewBox="0 0 3334 2500" enable-background="new 0 0 3334 2500" xml:space="preserve">
<path fill="#FFFFFF" opacity="1.000000" stroke="none" 
	d="
M1710.000000,2502.000000 
	C1140.000122,2502.000000 571.000183,2502.000000 2.000229,2502.000000 
	C2.000153,1668.666870 2.000153,835.333862 2.000076,2.000565 
	C1113.332886,2.000376 2224.665771,2.000376 3335.999023,2.000188 
	C3335.999268,835.332764 3335.999268,1668.665527 3335.999512,2501.999023 
	C2794.333252,2502.000000 2252.666748,2502.000000 1710.000000,2502.000000 
M1464.195923,1078.804077 
	C1276.035522,890.643982 1087.875122,702.483826 898.295166,512.903992 
	C898.295166,1006.082397 898.295166,1496.988647 898.295166,1986.201904 
	C1143.242798,1741.254272 1388.855713,1495.641235 1634.947876,1249.549072 
	C1579.198853,1193.802124 1522.197510,1136.802979 1464.195923,1078.804077 
M1797.725586,817.000000 
	C1797.725586,1207.323486 1797.725586,1597.646973 1797.725586,1989.777222 
	C1802.752319,1985.223877 1806.285034,1982.289185 1809.519165,1979.055786 
	C2044.725586,1743.892578 2279.917725,1508.715210 2515.048584,1273.476318 
	C2522.251465,1266.270020 2528.792480,1258.402222 2535.607666,1250.880615 
	C2513.293457,1225.447266 1805.708252,519.408081 1797.725342,514.905090 
	C1797.725342,615.220886 1797.725342,715.110474 1797.725586,817.000000 
z"/>
<path fill="#3FA9F5" opacity="1.000000" stroke="none" 
	d="
M1464.696045,1079.303955 
	C1522.197510,1136.802979 1579.198853,1193.802124 1634.947876,1249.549072 
	C1388.855713,1495.641235 1143.242798,1741.254272 898.295166,1986.201904 
	C898.295166,1496.988647 898.295166,1006.082397 898.295166,512.903992 
	C1087.875122,702.483826 1276.035522,890.643982 1464.696045,1079.303955 
z"/>
<path fill="#3FA9F5" opacity="1.000000" stroke="none" 
	d="
M1797.725464,816.000000 
	C1797.725342,715.110474 1797.725342,615.220886 1797.725342,514.905090 
	C1805.708252,519.408081 2513.293457,1225.447266 2535.607666,1250.880615 
	C2528.792480,1258.402222 2522.251465,1266.270020 2515.048584,1273.476318 
	C2279.917725,1508.715210 2044.725586,1743.892578 1809.519165,1979.055786 
	C1806.285034,1982.289185 1802.752319,1985.223877 1797.725586,1989.777222 
	C1797.725586,1597.646973 1797.725586,1207.323486 1797.725464,816.000000 
z"/>
</svg>