<svg xmlns="http://www.w3.org/2000/svg" width="390" height="290.726" viewBox="0 0 390 290.726"><defs><style>.a{fill:#c6c6c6;}.b{fill:#fff;}.c{fill:#d9d9d9;}.d{fill:#3d8dcc;}.e{fill:#f2635f;}.f{fill:#3f88c9;}.g{fill:#ffda71;}</style></defs><path class="a" d="M24.966,223.009l35.11-35.11c2.187-2.187-1.206-5.582-3.394-3.394l-35.11,35.11c-2.187,2.187,1.206,5.582,3.394,3.394Z"/><path class="a" d="M22.141,260.62l53.6-53.6L90.9,191.861c2.187-2.188-1.206-5.583-3.394-3.395l-53.6,53.6L18.747,257.226c-2.187,2.187,1.206,5.582,3.394,3.394Z"/><rect class="b" x="46.435" y="55.875" width="285.455" height="191.288" rx="15.432"/><path class="c" d="M326.569,243.389a15.373,15.373,0,0,1-10.112,3.774H61.867a15.432,15.432,0,0,1-15.432-15.432V217.91H331.889v13.821A15.4,15.4,0,0,1,326.569,243.389Z"/><path class="a" d="M156.145,290.724l-10.009,0c-5.536,0-4.728-6.433-3.992-8.025s2.19-2.612,4.709-3.092c8.727-1.66,10.888-6.372,11.612-14.722.311-3.578.632-5.8.808-9.365.114-2.3.313-4.867.656-8.358h58.578c.338,3.492.537,6.059.651,8.359.176,3.566.5,5.787.808,9.365.725,8.35,2.886,13.062,11.612,14.722,2.519.48,3.974,1.5,4.71,3.092s1.543,8.025-3.992,8.025l-43.08-.009Z"/><path class="c" d="M316.457,244.763H66.283a33.11,33.11,0,0,1-7.263-.309,13.181,13.181,0,0,1-10.185-12.747c-.008-.817,0-1.635,0-2.452V78.532a76.688,76.688,0,0,1,.079-8.8A13.179,13.179,0,0,1,61.869,58.275c.464,0,.928,0,1.392,0h252.3a16.209,16.209,0,0,1,4.488.5,13.16,13.16,0,0,1,9.445,12.576c.028,2.927,0,5.856,0,8.783V230.105c0,1,.035,2.015-.062,3.009a13.164,13.164,0,0,1-12.97,11.649c-3.087.04-3.095,4.84,0,4.8a18.078,18.078,0,0,0,17.053-12.6,21.553,21.553,0,0,0,.779-6.464V80.134c0-2.932.029-5.866,0-8.8a18.005,18.005,0,0,0-9.93-16.011,19.269,19.269,0,0,0-8.475-1.85H63.1c-.675,0-1.353-.013-2.027.02A18.033,18.033,0,0,0,44.656,66.629c-.96,3.535-.621,7.52-.621,11.156V229.333c0,.794-.009,1.59,0,2.384a18,18,0,0,0,10.614,16.306c3.6,1.568,7.148,1.54,10.924,1.54H316.457C319.545,249.563,319.551,244.763,316.457,244.763Z"/><path class="c" d="M46.435,220.31H331.889c3.089,0,3.094-4.8,0-4.8H46.435c-3.089,0-3.094,4.8,0,4.8Z"/><path class="d" d="M229.051,105.888h-79.4a1.728,1.728,0,0,0-1.728,1.728v79.5a1.732,1.732,0,0,0,1.728,1.728h79.5a1.724,1.724,0,0,0,1.728-1.727c-.014-10.685-.089-67.718-.1-79.508A1.722,1.722,0,0,0,229.051,105.888Z"/><path class="e" d="M148.451,76.215l36,62.345a4.2,4.2,0,0,1-3.641,6.306H108.816a4.2,4.2,0,0,1-3.642-6.306l36-62.345A4.2,4.2,0,0,1,148.451,76.215Z"/><path class="a" d="M367.387,26.442c-3.157-.148-5.448,1.395-7.932,3.093q-4.177,2.853-8.322,5.757c-15.684,10.993-31.413,22.054-46.682,33.624l-.4.3a4.073,4.073,0,0,0-.867,5.577l5.893,8.426a4.074,4.074,0,0,0,5.537,1.1c15.431-9.885,30.535-20.6,45.32-31.422,4.434-3.245,9-6.461,13.176-10.038a9.352,9.352,0,0,0-5.722-16.42Z"/><path class="a" d="M299.582,98.517c4.5-3.151,10.127-8.669,7.494-14.582a19.517,19.517,0,0,0-3.714-5.945c-4.221-4.256-11.4-2.959-15.909.2-4.225,2.955-5.1,6.371-6.06,9.92a15.089,15.089,0,0,1-4.111,7.276,1.868,1.868,0,0,0,.584,2.95c3.364,1.585,7.3,3.283,10.725,3.352A19.167,19.167,0,0,0,299.582,98.517Z"/><path class="b" d="M265.156,7.283C246.689-1.5,222.172.841,209.13,19.463c-9.845,14.057-9.584,32.651-3.353,45.911,6.723,14.305,27.751,28.607,43.385,19.658a10.859,10.859,0,0,0,5.6-9.515c.11-2.653-.223-5.339.249-7.953,1.158-6.4,6.891-10.621,13.229-10.879,6.929-.282,12.746-.114,16.365-7.282a21.658,21.658,0,0,0,1.564-13.194c-2.024-12.445-9.321-23.777-21.077-28.993"/><path class="c" d="M266.367,5.211c-15.742-7.423-35.645-7.428-49.932,3.324-16.148,12.151-21.215,34.536-14.693,53.248a43.807,43.807,0,0,0,16.438,21.3c7.388,5.229,16.846,8.56,25.91,6.5,4.433-1.009,9.033-3.362,11.317-7.456a15.152,15.152,0,0,0,1.772-7.072c.068-2.738-.315-5.541.472-8.208A11.208,11.208,0,0,1,266,59.4a37.459,37.459,0,0,1,6.257-.49,25.083,25.083,0,0,0,6.047-.967c4.662-1.5,7.744-5.176,9.39-9.692,1.9-5.213,1.372-10.985.054-16.266a40.971,40.971,0,0,0-15.4-23.359,34.272,34.272,0,0,0-6.045-3.48A2.474,2.474,0,0,0,263.022,6a2.418,2.418,0,0,0,.861,3.284,34.045,34.045,0,0,1,17.29,18.044,35.035,35.035,0,0,1,2.965,13.234c.007,4.128-1.232,9.158-4.807,11.615-2.871,1.972-6.6,1.933-10.058,2.064a18.193,18.193,0,0,0-11.915,4.413c-3.647,3.285-5.013,7.844-5.007,12.633,0,2.356.245,4.738-.482,7.016a8.006,8.006,0,0,1-3.151,4.175c-6.781,4.553-15.657,3.232-22.586-.224a40.578,40.578,0,0,1-17.578-16.694c-8.24-15.412-5.949-36.607,6.268-49.255C226.1,4.637,243.676,2.3,258.656,7.249a46.681,46.681,0,0,1,5.288,2.106,2.467,2.467,0,0,0,3.284-.861,2.419,2.419,0,0,0-.861-3.283Z"/><path class="b" d="M234.326,32.816a8.5,8.5,0,0,1-.456,1.718,7.35,7.35,0,0,1-.774,1.34,6.97,6.97,0,0,1-.965.963,7.218,7.218,0,0,1-1.3.752,8.261,8.261,0,0,1-1.665.442,9.485,9.485,0,0,1-2.117,0,8.2,8.2,0,0,1-1.643-.439,7.415,7.415,0,0,1-1.345-.779,7.178,7.178,0,0,1-1-1,7.45,7.45,0,0,1-.785-1.357,8.322,8.322,0,0,1-.449-1.693,8.874,8.874,0,0,1-.015-1.886,7.893,7.893,0,0,1,.449-1.668,7.714,7.714,0,0,1,.8-1.37,6,6,0,0,1,2.417-1.863,7.973,7.973,0,0,1,1.71-.459,8.587,8.587,0,0,1,1.792,0,8.041,8.041,0,0,1,1.692.454,5.986,5.986,0,0,1,2.418,1.855,7.678,7.678,0,0,1,.8,1.362,7.854,7.854,0,0,1,.455,1.684A9.1,9.1,0,0,1,234.326,32.816Z"/><path class="b" d="M228.583,55.473a8.436,8.436,0,0,1-.455,1.718,7.375,7.375,0,0,1-.774,1.339,7.089,7.089,0,0,1-.965.964,7.248,7.248,0,0,1-1.3.751,8.2,8.2,0,0,1-1.665.442,9.425,9.425,0,0,1-2.117,0,8.18,8.18,0,0,1-1.643-.438,7.428,7.428,0,0,1-1.346-.78,7.171,7.171,0,0,1-1-1,7.45,7.45,0,0,1-.785-1.357,8.38,8.38,0,0,1-.45-1.692,8.883,8.883,0,0,1-.015-1.887,7.912,7.912,0,0,1,.45-1.668,7.645,7.645,0,0,1,.8-1.369,5.986,5.986,0,0,1,2.417-1.864,8.015,8.015,0,0,1,1.71-.459,8.587,8.587,0,0,1,1.792,0,7.994,7.994,0,0,1,1.692.453,6.028,6.028,0,0,1,2.418,1.855,7.711,7.711,0,0,1,.8,1.363,7.846,7.846,0,0,1,.455,1.683A9.043,9.043,0,0,1,228.583,55.473Z"/><path class="b" d="M255.9,25.221a8.5,8.5,0,0,1-.455,1.718,7.322,7.322,0,0,1-.775,1.339,6.923,6.923,0,0,1-.965.964,7.213,7.213,0,0,1-1.3.751,8.237,8.237,0,0,1-1.664.443,9.485,9.485,0,0,1-2.117,0A8.162,8.162,0,0,1,246.977,30a7.428,7.428,0,0,1-1.346-.78,7.164,7.164,0,0,1-1-1,7.376,7.376,0,0,1-.785-1.358,8.38,8.38,0,0,1-.45-1.692,8.874,8.874,0,0,1-.015-1.886,7.963,7.963,0,0,1,.449-1.669,7.767,7.767,0,0,1,.8-1.369,6,6,0,0,1,2.418-1.864,8.022,8.022,0,0,1,1.709-.459,8.6,8.6,0,0,1,1.793,0,7.985,7.985,0,0,1,1.691.453,7.572,7.572,0,0,1,1.351.789,7.518,7.518,0,0,1,1.067,1.066,7.656,7.656,0,0,1,.8,1.363,7.963,7.963,0,0,1,.455,1.683A9.043,9.043,0,0,1,255.9,25.221Z"/><path class="f" d="M232.011,32.178c-.05.293-.106.584-.182.871-.029.108-.06.215-.092.321-.019.059-.173.5-.068.236.094-.235-.052.094-.064.116-.071.13-.139.26-.215.387s-.153.254-.239.372c.2-.272-.027.011-.132.119-.087.091-.618.536-.275.289a7.312,7.312,0,0,1-.737.44c-.027.015-.348.156-.1.058.268-.107-.157.043-.22.063-.275.084-.56.131-.836.209-.343.1.348.006-.033.005-.156,0-.314.02-.471.024-.275.007-.549-.011-.824-.013-.1,0-.469-.076-.042.008-.1-.02-.209-.041-.313-.064a7.6,7.6,0,0,1-.92-.264c.415.151-.2-.117-.319-.187s-.248-.167-.378-.235c-.235-.122.011.015.056.055-.2-.18-.384-.374-.577-.562-.076-.073-.235-.335-.019,0-.082-.125-.165-.249-.242-.377s-.143-.263-.218-.392c-.049-.084-.155-.412-.029-.037-.081-.243-.158-.486-.22-.735-.036-.141-.056-.288-.1-.427-.073-.258,0,.025,0,.078a9.645,9.645,0,0,1-.03-1.062c0-.066.037-.557,0-.259-.029.26.02-.087.027-.118.066-.282.142-.557.225-.835.007-.023.134-.354.036-.122-.111.261.092-.164.122-.219.054-.1.109-.2.168-.3.024-.04.433-.587.142-.249a7.5,7.5,0,0,1,.531-.554c.08-.075.161-.149.243-.221-.3.258-.03.028.047-.016.257-.146.5-.3.769-.434-.051.025-.316.095-.06.033.178-.044.351-.115.529-.163.143-.038.287-.069.431-.1.031-.007.389-.059.12-.028-.3.035.171,0,.239,0,.149-.006.3-.008.448-.006s.824.073.363,0a6.961,6.961,0,0,1,.853.2c.14.041.279.087.416.136-.4-.143.049.04.133.085q.2.108.386.226c.08.05.457.35.144.076.217.19.417.395.619.6.307.314.1.113.039.025.109.152.207.314.3.476.057.1.109.2.165.3.308.546-.012-.184.07.14s.182.629.263.946c.026.1.03.426.015.034.006.161.018.323.021.485a10.652,10.652,0,0,1-.06,1.211,2.407,2.407,0,0,0,2.4,2.4,2.466,2.466,0,0,0,2.4-2.4A8.736,8.736,0,0,0,232.087,24a8.754,8.754,0,0,0-12.122,11.1,8.549,8.549,0,0,0,8.261,5.392,8.978,8.978,0,0,0,5.6-1.957,8.312,8.312,0,0,0,2.812-5.08,2.458,2.458,0,0,0-1.676-2.952A2.43,2.43,0,0,0,232.011,32.178Z"/><path class="e" d="M226.269,54.835c-.05.293-.107.583-.182.871-.029.107-.06.214-.093.32-.018.06-.172.5-.068.236.094-.234-.051.095-.063.116-.071.13-.139.26-.215.387s-.153.255-.239.373c.2-.273-.027.011-.132.119-.088.09-.618.535-.275.288a7.321,7.321,0,0,1-.737.441c-.028.015-.348.155-.1.058.268-.108-.157.043-.219.062-.276.085-.561.131-.836.21-.343.1.348.006-.033,0-.156,0-.314.02-.471.024-.275.007-.549-.01-.824-.013-.1,0-.469-.076-.042.009-.105-.021-.209-.042-.313-.065a7.493,7.493,0,0,1-.92-.264c.415.152-.2-.117-.32-.187s-.248-.166-.378-.234c-.234-.123.012.014.057.055-.2-.18-.384-.375-.578-.563-.075-.073-.234-.335-.018,0-.082-.126-.165-.25-.242-.378s-.143-.262-.219-.392c-.048-.083-.154-.412-.029-.037-.081-.243-.157-.486-.22-.734-.035-.142-.055-.288-.095-.428-.073-.258,0,.025,0,.079a9.652,9.652,0,0,1-.03-1.062c0-.066.036-.557,0-.26-.029.261.021-.087.028-.117.066-.283.141-.557.225-.835.007-.024.134-.355.035-.122-.11.26.092-.165.122-.22.054-.1.11-.2.168-.295.025-.041.434-.588.143-.25a7.3,7.3,0,0,1,.531-.553c.079-.076.16-.149.243-.222-.295.258-.03.028.047-.016.257-.146.5-.3.769-.434-.052.026-.316.1-.06.033.178-.044.351-.115.529-.163.143-.038.287-.068.431-.1.031-.007.389-.06.12-.028-.3.034.171,0,.238,0,.15-.006.3-.007.449-.005s.823.072.363,0a7.133,7.133,0,0,1,.852.2c.14.042.279.087.417.137-.4-.144.049.039.133.085q.2.106.386.225c.08.05.457.35.144.077.217.19.417.394.619.6.306.315.1.113.038.025a5.635,5.635,0,0,1,.3.477c.057.1.11.2.166.3.308.547-.012-.184.07.14s.182.63.263.946c.026.1.03.426.014.034.007.162.019.323.022.485a10.455,10.455,0,0,1-.061,1.212,2.408,2.408,0,0,0,2.4,2.4,2.466,2.466,0,0,0,2.4-2.4,8.735,8.735,0,0,0-4.638-8.817,8.754,8.754,0,0,0-12.122,11.1,8.548,8.548,0,0,0,8.26,5.392,8.986,8.986,0,0,0,5.6-1.956,8.319,8.319,0,0,0,2.812-5.08,2.459,2.459,0,0,0-1.677-2.953A2.43,2.43,0,0,0,226.269,54.835Z"/><path class="g" d="M253.582,24.583c-.05.293-.107.583-.183.871-.028.107-.059.214-.092.32-.018.06-.172.5-.068.236.094-.234-.051.095-.063.116-.071.13-.14.26-.216.387s-.152.255-.238.373c.2-.273-.028.011-.132.119-.088.09-.618.535-.276.288a7.211,7.211,0,0,1-.737.441c-.027.015-.347.156-.1.058.268-.108-.157.043-.22.062-.275.085-.56.131-.836.21-.343.1.348.006-.033,0-.156,0-.314.02-.47.024-.276.007-.549-.01-.825-.013-.1,0-.469-.076-.041.009-.1-.021-.209-.042-.313-.065a7.321,7.321,0,0,1-.92-.264c.415.152-.2-.117-.32-.187s-.248-.166-.378-.234c-.235-.123.012.014.057.055-.2-.18-.384-.375-.578-.563-.075-.073-.234-.335-.019,0-.081-.126-.165-.249-.242-.378s-.143-.262-.218-.391c-.049-.084-.154-.413-.029-.038-.081-.242-.158-.486-.22-.734-.035-.142-.056-.288-.095-.428-.074-.257,0,.025,0,.079a9.411,9.411,0,0,1-.03-1.062c0-.066.036-.557,0-.26-.029.261.02-.087.027-.117.067-.283.142-.557.225-.835.007-.024.134-.355.036-.122-.11.26.092-.165.122-.22.054-.1.11-.2.168-.295.025-.041.433-.588.143-.25a7.285,7.285,0,0,1,.53-.553c.08-.076.161-.149.244-.222-.3.258-.03.028.047-.016.257-.146.5-.3.769-.434-.052.026-.317.1-.061.033.178-.044.352-.115.53-.162.143-.039.287-.069.431-.1.031-.007.389-.059.12-.028-.3.034.171,0,.238-.005.15-.006.3-.007.449,0s.823.072.362,0a7.1,7.1,0,0,1,.853.2c.14.042.279.087.417.137-.4-.144.048.039.133.085.131.071.259.146.386.225.08.05.456.35.143.077.218.19.418.394.619.6.307.315.1.113.039.025.11.152.207.315.3.477.057.1.11.2.165.295.309.547-.011-.183.07.141s.182.629.264.945c.026.1.03.426.014.034.006.162.019.323.021.485a10.226,10.226,0,0,1-.06,1.212,2.408,2.408,0,0,0,2.4,2.4,2.466,2.466,0,0,0,2.4-2.4,8.736,8.736,0,0,0-4.639-8.816,9.046,9.046,0,0,0-9.97,1.349,9.024,9.024,0,0,0-2.152,9.749A8.549,8.549,0,0,0,249.8,32.9a8.986,8.986,0,0,0,5.6-1.956,8.318,8.318,0,0,0,2.811-5.08,2.459,2.459,0,0,0-1.676-2.953A2.429,2.429,0,0,0,253.582,24.583Z"/><path class="g" d="M271.493,177.189a39.73,39.73,0,0,1-2.141,8.074,34.415,34.415,0,0,1-3.639,6.295,32.726,32.726,0,0,1-4.534,4.529,33.935,33.935,0,0,1-6.111,3.532,38.741,38.741,0,0,1-7.824,2.079,44.666,44.666,0,0,1-9.949.014,38.4,38.4,0,0,1-7.723-2.063,34.613,34.613,0,0,1-6.323-3.664,33.636,33.636,0,0,1-4.684-4.688,35.033,35.033,0,0,1-3.689-6.378,39.191,39.191,0,0,1-2.113-7.955,41.7,41.7,0,0,1-.07-8.865,37.19,37.19,0,0,1,2.111-7.84,36.159,36.159,0,0,1,3.751-6.438,28.2,28.2,0,0,1,11.36-8.759,37.58,37.58,0,0,1,8.036-2.155,40.281,40.281,0,0,1,8.425,0,37.654,37.654,0,0,1,7.95,2.133,28.185,28.185,0,0,1,11.363,8.718,36.074,36.074,0,0,1,3.749,6.4,37.234,37.234,0,0,1,2.139,7.911A42.7,42.7,0,0,1,271.493,177.189Z"/><path class="d" d="M58.45,117.665a8.719,8.719,0,0,0-7.961,9.684,8.575,8.575,0,0,0,9.75,8.066c5.352-.539,8.475-4.578,7.944-9.849A8.711,8.711,0,0,0,58.45,117.665Z"/><path class="d" d="M11.069,69.871a44.7,44.7,0,0,1,4.463-1.945l.508-.184q1.2-.413-.36.109a5.172,5.172,0,0,1,1.037-.31q1.3-.37,2.623-.662a44.088,44.088,0,0,1,4.806-.779c.448-.047.9-.072,1.348-.121,1.171-.127-1.991.042-.175,0,.9-.018,1.8-.029,2.706,0a43.042,43.042,0,0,1,4.849.421,9.789,9.789,0,0,1,2.663.471c-.125-.066-1.835-.465-.438-.079.488.134.979.255,1.465.4a42.852,42.852,0,0,1,4.293,1.5q1.17.48,2.309,1.028c.3.144.6.326.907.449-1.9-.766-.445-.225.008.033a43.753,43.753,0,0,1,3.833,2.452q1.029.735,2.014,1.529.393.318.78.644.29.245.575.495.645.569-.517-.485c.58.241,1.37,1.32,1.8,1.772q.7.729,1.366,1.491a47.679,47.679,0,0,1,3.1,4.019c.78,1.111-.077-.174-.2-.325a14.074,14.074,0,0,1,.846,1.354c.372.606.737,1.216,1.1,1.826,1.158,1.936,2.335,3.853,3.571,5.74a35.79,35.79,0,0,0,7.529,8.462,29.862,29.862,0,0,0,24.666,5.554c3.93-.887,7.125-4.855,6.15-9.011-.927-3.95-4.8-7.1-9.011-6.15a22.669,22.669,0,0,1-2.455.43,4.9,4.9,0,0,0-.993.09l1.069-.062c-.249.006-.5.007-.748,0a22.062,22.062,0,0,1-2.239-.143q-.495-.057-.989-.136c-.328-.053-.656-.113-.982-.18q1.688.383.806.156a47.22,47.22,0,0,1-4.424-1.68c.049-.076,1.69.993.461.2-.279-.179-.566-.346-.844-.53-.769-.507-1.469-1.078-2.184-1.656-.845-.684,1.325,1.38.143.091-.238-.259-.485-.508-.72-.769-.586-.652-1.138-1.335-1.664-2.036-.476-.634-.916-1.291-1.367-1.942-.648-.938.983,1.612.069.095-.274-.456-.559-.906-.834-1.361a112.92,112.92,0,0,0-6.186-9.658A50.967,50.967,0,0,0,30.107,50.643a52.054,52.054,0,0,0-25.7,5.313C.8,57.756-1.2,62.528.782,66.244a7.842,7.842,0,0,0,10.287,3.627Z"/><path class="g" d="M308.016,126.881a8.747,8.747,0,0,0-10.425,7.034,8.6,8.6,0,0,0,7.068,10.544c5.3,1.012,9.459-1.978,10.456-7.2A8.739,8.739,0,0,0,308.016,126.881Z"/><path class="g" d="M329.83,173.51c.848-.95,1.715-1.881,2.615-2.782q.624-.625,1.268-1.232.366-.347.738-.685.925-.834-.363.319c-.08-.251,2.432-1.982,2.714-2.195q1.381-1.044,2.831-1.993t2.948-1.777q.429-.238.864-.467-1.572.785-.462.235c.445-.206.885-.42,1.333-.619a42.136,42.136,0,0,1,6.73-2.338c.24-.062.48-.122.722-.178q1.224-.278-.511.107a8.167,8.167,0,0,1,2.289-.405q2.01-.317,4.04-.5a72.327,72.327,0,0,1,8.144-.2q1.334.06-.336-.023c.291.018.582.04.872.064q1.017.081,2.031.193,2.026.225,4.037.578a66.8,66.8,0,0,1,8.471,2.08c1.773.555,4.359-.208,5.827-1.206a7.9,7.9,0,0,0,3.267-4.972c.663-4.569-2-7.786-6.177-9.094a70.036,70.036,0,0,0-37.866-1.1c-10.859,2.76-20.37,9.7-27.741,17.966-2.709,3.038-2.509,8.368.745,10.971a7.922,7.922,0,0,0,10.97-.744Z"/></svg>