<?xml version="1.0" standalone="no"?>
<!DOCTYPE svg PUBLIC "-//W3C//DTD SVG 20010904//EN"
 "http://www.w3.org/TR/2001/REC-SVG-20010904/DTD/svg10.dtd">
<svg version="1.0" xmlns="http://www.w3.org/2000/svg"
 width="260.000000pt" height="260.000000pt" viewBox="0 0 260.000000 260.000000"
 preserveAspectRatio="xMidYMid meet">
<metadata>
Created by potrace 1.14, written by Peter Selinger 2001-2017
</metadata>
<g transform="translate(0.000000,260.000000) scale(0.100000,-0.100000)"
fill="#000000" stroke="none">
<path d="M1967 2543 c-18 -32 -145 -247 -282 -478 -137 -231 -269 -456 -295
-500 -55 -94 -140 -238 -275 -465 -54 -91 -106 -181 -117 -200 -11 -19 -24
-39 -28 -45 -4 -5 -19 -30 -32 -55 -14 -25 -59 -102 -101 -172 -146 -244 -347
-587 -352 -600 -4 -11 175 -13 967 -13 535 0 975 3 977 8 3 7 -5 81 -15 132
-2 11 -6 40 -9 64 -3 24 -7 46 -9 50 -2 3 -7 28 -10 55 -4 27 -13 85 -21 130
-7 44 -16 99 -19 121 -4 22 -8 51 -11 65 -2 14 -7 43 -10 65 -3 22 -12 81 -21
130 -8 50 -17 104 -20 120 -2 17 -9 55 -14 85 -5 30 -12 71 -15 90 -3 19 -9
62 -15 95 -5 33 -21 132 -35 220 -15 88 -41 252 -60 365 -19 113 -36 221 -40
240 -3 19 -7 46 -10 60 -2 14 -7 43 -10 65 -3 23 -7 50 -9 60 -2 11 -7 40 -11
65 -4 25 -9 54 -11 65 -3 11 -7 39 -10 61 -2 23 -6 51 -9 62 -2 11 -7 41 -10
66 -4 25 -11 46 -16 46 -4 0 -23 -26 -42 -57z"/>
</g>
</svg>
