<?xml version="1.0" standalone="no"?>
<!DOCTYPE svg PUBLIC "-//W3C//DTD SVG 20010904//EN"
 "http://www.w3.org/TR/2001/REC-SVG-20010904/DTD/svg10.dtd">
<svg version="1.0" xmlns="http://www.w3.org/2000/svg"
 width="816.000000pt" height="816.000000pt" viewBox="0 0 816.000000 816.000000"
 preserveAspectRatio="xMidYMid meet">
<metadata>
Created by potrace 1.14, written by Peter Selinger 2001-2017
</metadata>
<g transform="translate(0.000000,816.000000) scale(0.100000,-0.100000)"
fill="#000000" stroke="none">
<path d="M4005 7849 c-135 -92 -212 -157 -365 -309 -176 -175 -357 -415 -454
-604 -20 -38 -40 -74 -44 -80 -23 -31 -145 -330 -156 -381 -1 -5 -4 -14 -7
-20 -3 -5 -12 -32 -18 -60 -7 -27 -17 -61 -22 -75 -5 -14 -11 -37 -14 -52 -8
-43 -15 -80 -25 -123 -5 -22 -12 -62 -15 -90 -4 -27 -8 -61 -11 -75 -16 -99
-22 -344 -11 -485 13 -157 18 -198 42 -315 8 -41 17 -86 20 -100 12 -70 70
-266 98 -333 9 -20 16 -40 16 -42 1 -3 8 -21 16 -41 8 -20 15 -38 15 -39 0 -1
8 -20 17 -41 9 -22 17 -41 18 -44 0 -3 20 -43 44 -90 87 -170 162 -290 253
-406 80 -101 107 -131 203 -227 56 -56 108 -112 114 -124 11 -22 35 -31 44
-15 3 4 6 21 8 37 6 53 71 138 147 189 55 38 92 75 104 106 8 19 21 293 18
378 0 6 0 18 0 25 0 6 2 550 4 1207 5 1402 11 1751 31 1869 6 33 15 39 16 10
1 -13 3 -35 4 -49 10 -66 15 -149 19 -298 3 -89 8 -167 11 -172 3 -5 1 -11 -5
-15 -6 -4 -7 -11 -4 -17 7 -11 8 -59 18 -653 5 -284 7 -1692 4 -2119 l-2 -199
49 -25 c28 -14 78 -54 112 -89 59 -59 78 -89 108 -172 l12 -33 99 99 c114 114
157 162 198 218 17 22 33 42 37 45 15 11 169 244 169 256 0 7 4 14 9 16 16 5
136 247 184 368 58 150 91 251 121 380 24 102 28 121 41 204 4 21 8 48 10 59
27 135 26 547 0 712 -2 17 -6 44 -9 60 -9 60 -17 101 -33 160 -8 33 -17 70
-19 82 -5 25 -70 227 -83 258 -5 11 -19 45 -31 75 -76 189 -195 399 -333 585
-87 118 -148 187 -277 313 -131 128 -140 136 -195 177 -22 17 -42 32 -45 36
-9 10 -183 129 -189 129 -3 0 -33 -19 -66 -41z"/>
<path d="M1760 4683 c0 -4 -33 -8 -73 -9 -69 0 -166 -8 -252 -20 -56 -7 -226
-44 -237 -50 -4 -3 -21 -8 -36 -10 -50 -9 -222 -76 -307 -120 -74 -38 -220
-127 -235 -144 -3 -3 -32 -25 -65 -50 -88 -64 -271 -252 -342 -350 -35 -47
-67 -90 -72 -96 -5 -6 -17 -26 -26 -45 -10 -19 -21 -36 -24 -39 -10 -7 -81
-154 -81 -165 0 -6 25 -28 56 -50 30 -22 61 -46 69 -52 7 -7 18 -13 23 -13 6
0 12 -4 14 -8 3 -7 161 -122 183 -132 5 -3 44 -27 85 -55 41 -27 84 -54 95
-61 11 -6 48 -27 82 -47 35 -20 63 -33 63 -29 0 4 4 2 8 -4 9 -13 152 -74 267
-112 89 -30 153 -49 270 -78 33 -9 69 -18 80 -21 32 -8 86 -20 140 -32 28 -6
59 -12 70 -15 76 -16 179 -37 211 -42 20 -3 46 -8 58 -10 11 -2 41 -7 66 -10
25 -3 56 -7 70 -10 123 -22 494 -22 606 0 12 2 39 7 60 10 22 3 50 8 64 11 14
2 36 7 50 9 21 4 99 22 170 41 8 2 42 10 75 18 102 26 408 125 434 142 13 8
14 42 2 49 -5 3 -28 51 -51 106 -47 111 -93 164 -166 188 -21 7 -48 17 -59 22
-21 9 -312 102 -330 106 -14 2 -153 42 -190 54 -16 5 -57 16 -90 24 -33 8 -87
22 -120 31 -177 48 -215 55 -347 60 -42 2 -80 5 -85 8 -9 6 -1168 0 -1318 -6
-164 -8 -296 -10 -301 -5 -6 7 152 57 229 73 10 2 26 6 35 9 9 3 33 7 52 10
19 3 72 12 117 19 45 7 91 13 102 12 12 -1 21 1 21 4 0 3 19 7 43 7 23 1 96 5
162 9 206 13 624 8 780 -9 17 -2 59 -7 95 -10 36 -4 81 -9 100 -11 19 -3 55
-7 79 -10 23 -3 56 -7 72 -10 16 -3 44 -7 62 -10 32 -5 59 -11 107 -21 14 -3
39 -7 55 -9 37 -5 46 -7 175 -40 58 -15 112 -28 120 -30 8 -2 26 -8 40 -13 14
-5 28 -10 33 -10 11 -1 166 -52 202 -67 108 -45 165 -67 167 -64 2 1 14 -4 28
-11 67 -36 114 -31 195 21 22 14 69 39 103 54 67 30 88 57 77 99 -9 31 -49
110 -57 114 -5 2 -8 8 -8 14 0 11 -50 84 -79 115 -12 12 -21 25 -21 28 0 19
-233 244 -330 318 -30 23 -57 44 -60 47 -3 3 -21 17 -40 30 -19 13 -37 27 -40
30 -35 38 -274 168 -340 185 -4 1 -48 14 -178 56 -19 6 -44 13 -55 14 -12 2
-55 11 -95 19 -41 9 -95 18 -120 21 -26 3 -60 7 -77 10 -16 2 -90 7 -164 10
-74 4 -138 8 -143 11 -4 3 -8 2 -8 -3z"/>
<path d="M6169 4626 c-2 -2 -40 -7 -84 -11 -44 -4 -82 -8 -86 -10 -3 -2 -23
-6 -45 -9 -44 -5 -53 -7 -179 -36 -49 -11 -97 -24 -105 -27 -8 -3 -17 -7 -20
-8 -101 -25 -279 -110 -381 -181 -74 -51 -203 -149 -235 -179 -7 -5 -33 -28
-59 -50 -91 -77 -172 -163 -268 -285 -27 -33 -77 -112 -77 -119 0 -5 -6 -14
-14 -20 -7 -6 -17 -26 -21 -44 -4 -17 -9 -39 -11 -47 -7 -32 10 -51 74 -81 37
-18 91 -48 121 -67 30 -19 66 -35 80 -37 26 -3 126 29 211 67 24 11 49 21 55
22 5 1 15 4 20 7 6 4 28 12 50 18 22 7 49 16 60 21 19 8 105 35 190 59 58 16
235 59 269 65 16 3 52 10 80 16 45 9 82 15 151 24 11 1 47 7 80 11 33 5 74 10
90 11 17 1 30 3 30 4 0 1 18 3 40 5 22 2 65 6 95 9 296 29 742 25 1035 -9 28
-4 69 -8 92 -11 23 -2 84 -14 135 -25 51 -11 102 -22 113 -24 46 -10 185 -58
180 -63 -3 -3 -24 -5 -48 -4 -23 1 -116 4 -207 7 -610 20 -1232 20 -1475 0
-142 -12 -165 -17 -475 -101 -52 -14 -102 -27 -110 -29 -8 -2 -15 -4 -15 -5 0
-1 -7 -3 -15 -5 -44 -10 -215 -63 -363 -112 -195 -65 -237 -93 -280 -190 -32
-73 -49 -118 -45 -119 2 -1 -5 -11 -15 -22 -32 -35 -18 -52 68 -84 44 -16 87
-32 95 -35 8 -3 24 -8 35 -10 11 -1 29 -7 40 -13 28 -13 211 -64 345 -95 59
-14 233 -47 270 -51 25 -2 63 -7 85 -10 124 -17 458 -4 595 22 19 4 46 8 60
10 14 1 34 4 45 7 11 3 40 8 65 12 47 8 64 11 103 21 12 3 33 7 47 10 14 3 75
17 135 31 61 14 117 27 125 28 8 1 35 8 60 14 25 7 52 15 60 16 80 18 395 129
410 145 3 3 43 24 90 48 77 39 239 137 266 160 5 5 21 15 34 22 13 7 29 17 34
22 6 5 34 25 63 46 192 137 233 168 233 175 0 27 -132 261 -180 320 -5 7 -31
39 -57 72 -58 74 -239 254 -320 317 -86 68 -222 151 -332 204 -53 26 -100 47
-106 49 -5 1 -17 5 -25 8 -20 8 -111 38 -130 43 -63 16 -190 46 -210 49 -14 2
-45 6 -70 10 -25 3 -58 8 -75 11 -35 6 -470 15 -476 10z"/>
<path d="M3991 3858 c-55 -21 -101 -63 -128 -117 -14 -29 -17 -66 -18 -186 -2
-172 4 -164 -95 -114 -120 61 -174 71 -249 44 -69 -24 -132 -101 -136 -164 -1
-21 -5 -43 -8 -48 -4 -6 -3 -13 0 -17 4 -4 8 -12 9 -19 5 -30 25 -67 52 -99
22 -24 85 -60 225 -127 l196 -94 -4 -36 c-5 -45 -13 -120 -21 -190 -4 -30 -8
-66 -9 -80 -3 -24 -11 -96 -20 -166 -2 -16 -6 -57 -10 -90 -3 -33 -8 -73 -10
-90 -3 -16 -7 -50 -10 -75 -13 -116 -17 -145 -20 -150 -2 -3 0 -12 4 -19 7
-10 76 -13 320 -12 172 0 316 3 322 6 5 4 7 10 5 13 -4 7 -13 82 -22 183 -2
24 -5 67 -8 94 -2 28 -7 84 -10 125 -4 41 -9 95 -11 120 -6 48 -11 108 -20
230 -3 41 -8 87 -10 103 -5 25 -1 30 47 52 29 14 59 25 66 25 6 0 12 3 12 8 0
4 15 13 33 21 82 35 241 114 259 129 11 9 31 37 45 61 48 80 28 207 -40 263
-12 10 -27 22 -33 27 -22 18 -99 33 -139 27 -23 -3 -81 -24 -130 -48 -50 -23
-98 -46 -108 -50 -17 -7 -18 -1 -16 76 1 46 -1 88 -5 94 -3 6 -3 13 2 16 16
10 -7 137 -32 180 -56 95 -168 133 -275 94z"/>
<path d="M3020 1841 l-35 -6 0 -79 0 -80 62 -1 61 0 4 60 c4 84 0 107 -20 103
-9 -1 -21 0 -27 3 -5 3 -26 3 -45 0z"/>
<path d="M5599 1843 c-1 -4 -2 -250 -3 -547 -1 -530 -1 -539 19 -546 17 -6 35
-6 100 -1 7 1 11 63 10 182 0 99 3 183 6 185 4 2 67 -54 140 -125 74 -71 162
-155 196 -187 l62 -59 68 2 c37 1 74 2 82 2 7 1 -11 25 -42 54 -30 28 -128
122 -217 207 l-161 155 39 35 c22 19 63 55 92 80 28 25 69 61 90 80 73 68 163
145 176 153 8 5 12 11 10 15 -3 6 -80 7 -146 3 -8 -1 -38 -22 -67 -49 -28 -26
-70 -63 -93 -82 -23 -19 -54 -46 -69 -60 -48 -46 -161 -142 -162 -139 0 2 -2
145 -2 318 -2 304 -3 314 -22 321 -11 4 -32 4 -46 0 -14 -4 -33 -3 -42 2 -10
5 -18 5 -18 1z"/>
<path d="M1758 1790 c-11 -4 -13 -101 -13 -523 l0 -517 25 -1 c29 -2 78 -2
101 0 13 1 15 49 15 436 -1 426 3 508 19 435 4 -19 11 -41 16 -50 8 -15 88
-226 93 -245 1 -5 10 -27 19 -49 9 -21 17 -42 17 -46 0 -7 25 -73 55 -145 7
-16 20 -53 30 -82 17 -47 21 -51 54 -55 20 -1 52 -2 73 0 30 3 38 8 48 35 20
54 27 71 38 97 28 68 202 538 202 548 0 6 4 14 10 17 6 4 9 -148 7 -444 -2
-445 -2 -451 18 -452 39 -1 100 -1 110 0 11 1 16 1040 6 1042 -21 5 -193 4
-200 -1 -5 -3 -35 -73 -66 -155 -30 -83 -60 -159 -65 -170 -5 -11 -25 -65 -45
-120 -20 -55 -40 -109 -44 -120 -5 -11 -19 -46 -31 -78 -13 -32 -24 -56 -25
-55 -4 4 -166 431 -169 443 -1 6 -12 36 -24 68 -12 31 -32 83 -44 115 -11 31
-25 61 -30 67 -9 10 -177 15 -200 5z"/>
<path d="M6590 1547 c-3 -3 -18 -7 -35 -10 -41 -6 -108 -25 -122 -35 -10 -6
-19 -85 -14 -114 0 -4 28 4 61 18 32 13 83 27 112 30 29 4 56 8 61 11 4 2 7
-1 7 -8 0 -8 3 -9 13 0 8 6 16 9 18 7 2 -2 20 -7 40 -10 56 -9 83 -21 117 -55
29 -29 54 -100 45 -127 -2 -6 -45 -10 -111 -11 -201 0 -290 -23 -360 -93 -66
-66 -80 -228 -27 -309 51 -76 123 -111 229 -112 100 -2 178 28 231 87 17 19
33 34 37 34 3 0 5 -22 3 -50 -2 -33 1 -50 8 -51 40 -4 117 -3 118 1 1 3 2 111
3 240 2 308 -8 374 -71 457 -27 35 -93 79 -135 90 -30 8 -222 16 -228 10z
m295 -411 c10 -3 12 -17 9 -48 -4 -36 -10 -76 -13 -85 -1 -2 -2 -6 -2 -10 -4
-18 -53 -87 -77 -109 -68 -60 -202 -65 -262 -11 -37 33 -47 57 -47 111 0 100
50 141 184 152 43 3 79 7 80 8 4 3 116 -3 128 -8z"/>
<path d="M2999 1532 c-14 -3 -16 -44 -16 -392 0 -215 3 -390 6 -391 36 -4 105
-3 113 2 11 7 14 766 3 777 -6 7 -81 10 -106 4z"/>
<path d="M3754 1528 c-3 -4 4 -26 15 -50 10 -24 22 -52 25 -62 12 -35 238
-580 254 -612 14 -29 14 -36 -4 -93 -10 -33 -22 -61 -26 -61 -5 0 -8 -6 -8
-12 0 -22 -44 -68 -70 -74 -14 -3 -47 -6 -74 -8 l-49 -3 -1 -51 c-1 -40 3 -52
14 -53 66 -3 156 5 183 16 75 31 103 80 228 394 33 85 66 166 71 180 6 14 12
28 13 31 1 3 7 19 14 35 7 17 24 59 38 95 14 36 31 79 38 95 19 43 95 233 95
237 0 2 -87 2 -126 -1 -7 -1 -40 -72 -74 -158 -34 -87 -69 -173 -78 -192 -8
-18 -15 -39 -15 -47 0 -8 -4 -14 -9 -14 -4 0 -8 -7 -8 -16 0 -8 -10 -36 -21
-62 -12 -26 -25 -58 -29 -72 -3 -14 -12 -25 -19 -25 -10 0 -198 447 -244 579
-3 10 -127 15 -133 4z"/>
<path d="M4681 1525 c-9 -12 -6 -515 4 -570 16 -91 63 -163 129 -197 49 -25
68 -29 140 -29 82 1 142 25 202 83 l50 49 -1 -43 c-3 -73 0 -76 62 -72 31 2
58 6 61 9 4 3 6 179 7 390 0 335 -2 385 -15 386 -18 1 -91 1 -105 0 -6 -1 -10
-95 -11 -259 -1 -280 -4 -298 -61 -362 -76 -86 -225 -93 -292 -14 -40 46 -47
108 -46 382 0 138 -2 252 -5 253 -39 6 -113 2 -119 -6z"/>
<path d="M3398 900 c-2 -14 -2 -54 0 -90 l3 -65 63 1 c34 0 67 4 74 8 8 5 11
33 10 89 l-3 82 -72 0 c-70 1 -72 0 -75 -25z"/>
</g>
</svg>
