<svg xmlns="http://www.w3.org/2000/svg" viewBox="0 0 1000 1000"><defs><style>.cls-1{fill:#fff;}</style></defs><title>VessiLogo</title><g id="Logos"><path class="cls-1" d="M343.91,439.81H301.74a8.26,8.26,0,0,0-6.88,3.68l-10,14.94a8.25,8.25,0,0,0,0,9.16l.37.56a8.26,8.26,0,0,0,13.75,0l7.69-11.52a3.09,3.09,0,0,1,2.56-1.37h13.28a3.09,3.09,0,0,1,2.57,4.8L299.88,498a3.08,3.08,0,0,1-5.13,0L258.48,443.5a8.27,8.27,0,0,0-6.88-3.69H209.5a8.27,8.27,0,0,0-6.87,12.86l67.2,100.71a8.27,8.27,0,0,0,13.53.32l8.7-13a8.49,8.49,0,0,0,1.31-4.54,8.86,8.86,0,0,0-9-8.76,9.14,9.14,0,0,0-2.79.44,8.59,8.59,0,0,0-2.44,1.22A12.18,12.18,0,0,1,278,530a2.46,2.46,0,0,1-1,.32,3.14,3.14,0,0,1-2-.54,3.46,3.46,0,0,1-.87-.88L228.3,460.07a3.09,3.09,0,0,1,2.56-4.8h13.08a3.09,3.09,0,0,1,2.56,1.37L287,517.32l3.45,5.17a8.26,8.26,0,0,0,13.75,0l3.45-5.17s41.4-62.05,41.41-62.05l1.74-2.61A8.27,8.27,0,0,0,343.91,439.81Z"/><path class="cls-1" d="M592.65,468.78a7.08,7.08,0,0,1-8.86-1A17.86,17.86,0,0,0,571,462.44a11.34,11.34,0,0,0-8.19,3,8.67,8.67,0,0,0-2.46,6c0,3,1.37,4.92,3.83,6.56,1.63,1.09,3.27,1.64,9,4.64l13.65,6.83c6,3,11.75,6,16.12,10.65,6.28,6.28,8.46,13.38,8.46,21.3a38.19,38.19,0,0,1-10.1,26.22c-9,9.83-20.21,12.84-32.23,12.84-7.37,0-16.66-1.1-24.85-7.38a43.36,43.36,0,0,1-11.87-14.31,7,7,0,0,1,3.19-9.6l9.36-4.44a7,7,0,0,1,9.15,3,18.86,18.86,0,0,0,3.55,4.85c1.64,1.64,5.46,4.37,11.75,4.37,4.09,0,8.46-1.37,10.92-3.82a13.6,13.6,0,0,0,3.82-9,12.28,12.28,0,0,0-3.31-8.47c-.15-.17-.32-.35-.49-.51-3.22-3.13-7-5-11.22-6.86l-9.83-4.64c-5.19-2.46-11.47-5.46-15.84-9.83a25.07,25.07,0,0,1-8.19-19.39,35.89,35.89,0,0,1,9.56-24.58c5.18-5.46,13.92-10.93,28.13-10.93,8.19,0,14.74,1.64,21.3,6a38.07,38.07,0,0,1,8.7,7.75,7,7,0,0,1-1.52,10.35Z"/><path class="cls-1" d="M798.78,446.62V550.83a7,7,0,0,1-7,7H779.31a7,7,0,0,1-7-7V460.68A7,7,0,0,1,775,455.2l15.7-12.5A5,5,0,0,1,798.78,446.62Z"/><path class="cls-1" d="M709.65,468.78a7.08,7.08,0,0,1-8.86-1A17.86,17.86,0,0,0,688,462.44a11.34,11.34,0,0,0-8.19,3,8.67,8.67,0,0,0-2.46,6c0,3,1.37,4.92,3.83,6.56,1.63,1.09,3.27,1.64,9,4.64l13.65,6.83c6,3,11.75,6,16.12,10.65,6.28,6.28,8.46,13.38,8.46,21.3a38.19,38.19,0,0,1-10.1,26.22c-9,9.83-20.21,12.84-32.23,12.84-7.37,0-16.66-1.1-24.85-7.38a43.36,43.36,0,0,1-11.87-14.31,7,7,0,0,1,3.19-9.6l9.36-4.44a7,7,0,0,1,9.15,3,18.86,18.86,0,0,0,3.55,4.85c1.64,1.64,5.46,4.37,11.75,4.37,4.09,0,8.46-1.37,10.92-3.82a13.6,13.6,0,0,0,3.82-9,12.28,12.28,0,0,0-3.31-8.47c-.15-.17-.32-.35-.49-.51-3.22-3.13-7-5-11.22-6.86l-9.83-4.64c-5.19-2.46-11.47-5.46-15.84-9.83a25.07,25.07,0,0,1-8.19-19.39,35.89,35.89,0,0,1,9.56-24.58c5.18-5.46,13.92-10.93,28.13-10.93,8.19,0,14.74,1.64,21.3,6a38.07,38.07,0,0,1,8.7,7.75,7,7,0,0,1-1.52,10.35Z"/><path class="cls-1" d="M486,529.56a3.4,3.4,0,0,1,1.22,4.77,59.44,59.44,0,0,1-17.56,18c-9.29,6-21.58,8.74-33.87,8.74-15.29,0-27.85-3.83-38.78-14.75s-16.93-26.77-16.93-44c0-17.75,6.28-35,18.3-47.25,9.56-9.56,22.12-15.57,38.51-15.57,18.29,0,30,7.92,36.87,15a53.33,53.33,0,0,1,16,37.39v0s1,14-11,14l-67.63.48a3.29,3.29,0,0,0-3.24,3.84c1.23,7.13,4.52,14.52,9.37,19.38,6.28,6.28,13.93,7.37,20.49,7.37,7.37,0,12.83-1.64,18.3-5.73a40.32,40.32,0,0,0,9-9.92,3.35,3.35,0,0,1,4.45-1.05Zm-27.81-45a3.41,3.41,0,0,0,3.22-4.51,27.18,27.18,0,0,0-7-11.06c-3.55-3.28-9.29-6.56-18-6.56-9.28,0-15.29,3.83-18.84,7.38A28.29,28.29,0,0,0,410.75,480a3.4,3.4,0,0,0,3.18,4.63Z"/></g></svg>